{"glyphs":{"0":{"ha":685,"x_min":86,"x_max":618,"o":"m 532 653 q 456 918 532 918 q 374 856 422 918 q 282 701 326 793 q 206 494 238 610 q 175 282 175 378 q 281 107 175 107 q 383 194 324 107 q 487 412 442 281 q 532 653 532 543 m 565 372 q 538 298 565 372 q 429 126 511 224 q 274 28 347 28 q 144 95 201 28 q 86 257 86 163 q 145 597 86 422 q 294 883 204 771 q 467 994 383 994 q 618 658 618 994 q 565 372 618 521 z "},"1":{"ha":446,"x_min":111,"x_max":357,"o":"m 300 989 q 311 989 300 989 q 340 961 322 989 q 357 892 357 933 q 338 718 357 850 q 297 503 318 586 q 256 335 276 421 q 222 201 235 249 q 194 103 210 154 q 146 6 168 6 q 122 26 133 6 q 111 75 111 47 q 140 213 111 103 q 210 524 169 324 q 274 946 251 725 q 300 989 278 989 z "},"2":{"ha":806,"x_min":82,"x_max":686,"o":"m 149 103 q 385 138 186 106 q 620 169 585 169 q 669 167 656 169 q 682 150 682 164 q 479 74 682 117 q 190 32 276 32 q 117 58 151 32 q 82 121 82 85 q 135 188 82 143 q 265 290 189 232 q 416 416 340 347 q 545 575 492 485 q 599 743 599 665 q 566 864 599 821 q 481 907 533 907 q 383 881 428 907 q 308 828 338 854 q 272 801 279 801 q 235 813 254 801 q 217 840 217 824 q 303 934 217 876 q 463 992 389 992 q 624 926 561 992 q 686 769 686 860 q 647 592 686 678 q 531 424 607 507 q 149 103 392 272 z "},"3":{"ha":811,"x_min":93,"x_max":754,"o":"m 403 499 q 647 444 550 490 q 743 319 743 397 q 660 172 743 242 q 459 64 578 103 q 217 25 340 25 q 93 63 93 25 q 178 85 93 71 q 365 120 263 100 q 551 194 467 140 q 636 325 636 249 q 546 403 636 374 q 365 447 456 432 q 274 474 274 461 q 278 490 274 486 q 324 528 282 506 q 422 578 367 551 q 533 637 478 604 q 627 715 589 669 q 665 813 665 761 q 563 903 665 903 q 367 836 483 903 q 319 814 328 814 q 290 833 311 814 q 268 863 268 851 q 373 938 268 896 q 558 981 478 981 q 697 924 639 981 q 754 801 754 868 q 692 669 754 733 q 403 499 586 565 z "},"4":{"ha":769,"x_min":119,"x_max":692,"o":"m 631 704 q 669 682 646 704 q 692 635 692 660 q 622 237 692 485 q 507 -11 551 -11 q 488 16 488 -11 q 503 89 488 43 q 578 361 557 260 q 307 286 433 286 q 174 332 229 286 q 119 463 119 378 q 198 676 119 547 q 362 893 276 804 q 475 982 447 982 q 518 951 518 982 q 361 763 518 932 q 254 615 303 699 q 206 467 206 531 q 310 361 206 361 q 431 381 368 361 q 554 419 524 408 q 590 432 585 431 q 607 658 607 546 q 631 704 607 704 z "},"5":{"ha":768,"x_min":71,"x_max":831,"o":"m 404 944 q 510 967 436 957 q 665 976 585 976 q 788 970 744 976 q 831 944 831 964 q 572 892 831 924 q 449 874 471 878 q 376 792 419 868 q 333 683 333 717 q 380 606 333 649 q 483 526 426 563 q 585 439 539 489 q 632 342 632 389 q 528 134 632 232 q 306 36 424 36 q 143 101 215 36 q 71 221 71 167 q 88 247 71 247 q 124 213 90 247 q 206 144 157 178 q 296 110 254 110 q 460 181 372 110 q 547 325 547 253 q 440 467 547 396 q 351 528 396 497 q 276 601 307 560 q 244 694 244 643 q 307 840 244 744 q 404 944 369 935 z "},"6":{"ha":783,"x_min":92,"x_max":665,"o":"m 665 331 q 541 124 665 219 q 281 29 417 29 q 145 85 199 29 q 92 247 92 142 q 158 494 92 353 q 308 738 224 635 q 469 913 393 842 q 566 983 544 983 q 606 973 588 983 q 625 953 625 963 q 570 892 625 944 q 430 747 515 840 q 286 561 344 654 q 560 475 456 546 q 665 331 665 404 m 288 106 q 479 174 382 106 q 576 324 576 243 q 488 438 576 385 q 254 507 400 490 q 175 219 175 358 q 206 134 175 163 q 288 106 238 106 z "},"7":{"ha":632,"x_min":147,"x_max":664,"o":"m 622 963 q 652 922 640 951 q 664 866 664 893 q 629 774 664 839 q 522 594 594 708 q 419 428 450 481 q 323 257 389 376 q 224 83 257 138 q 179 28 190 28 q 158 47 168 28 q 149 82 149 67 q 363 481 149 128 q 576 868 576 833 q 560 890 576 881 q 508 900 544 900 q 362 881 472 900 q 225 863 251 863 q 173 890 199 863 q 147 938 147 917 q 210 953 147 942 q 483 982 374 982 q 622 963 592 982 z "},"8":{"ha":844,"x_min":139,"x_max":843,"o":"m 644 1000 q 692 1000 644 1000 q 792 959 740 1000 q 843 852 843 918 q 766 706 843 786 q 547 517 689 626 q 686 315 686 390 q 565 123 686 211 q 328 35 444 35 q 203 82 264 35 q 143 191 143 129 q 215 331 143 253 q 421 519 288 410 q 366 563 403 535 q 308 608 329 592 q 257 650 288 625 q 208 692 226 675 q 172 728 190 710 q 139 790 139 765 q 156 835 139 835 q 203 798 161 835 q 349 678 244 761 q 485 571 454 596 q 665 724 613 675 q 737 804 717 774 q 757 860 757 835 q 667 919 757 919 q 502 890 600 919 q 388 860 404 860 q 345 878 371 860 q 319 911 319 896 q 433 969 319 939 q 644 1000 547 1000 m 597 326 q 483 467 597 369 q 247 250 286 314 q 229 188 229 218 q 257 133 229 158 q 326 108 285 108 q 506 176 415 108 q 597 326 597 243 z "},"9":{"ha":664,"x_min":99,"x_max":633,"o":"m 633 714 q 599 591 633 682 q 539 425 564 500 q 492 236 514 350 q 460 67 471 122 q 435 13 449 13 q 396 88 396 13 q 504 539 396 206 q 387 438 450 478 q 259 399 324 399 q 147 448 194 399 q 99 573 99 497 q 153 747 99 649 q 295 915 207 844 q 458 986 383 986 q 572 942 532 986 q 611 849 611 899 q 599 768 611 800 q 633 714 633 767 m 176 561 q 203 498 176 521 q 265 475 231 475 q 324 483 299 475 q 375 510 350 490 l 417 543 q 456 588 433 557 q 489 632 479 619 q 520 678 499 644 q 544 717 542 713 q 519 739 519 719 q 528 783 519 751 q 536 831 536 814 q 467 903 536 903 q 274 777 371 903 q 176 561 176 651 z "},"\u0000":{"ha":0,"x_min":0,"x_max":0,"o":""},"\r":{"ha":569,"x_min":0,"x_max":0,"o":""}," ":{"ha":569,"x_min":0,"x_max":0,"o":""},"!":{"ha":436,"x_min":67,"x_max":358,"o":"m 67 96 q 67 108 67 96 q 85 145 67 121 q 124 169 104 169 q 172 107 143 169 q 200 13 200 44 q 191 0 200 7 q 174 -7 182 -7 q 105 32 143 -7 q 67 96 67 71 m 278 1115 q 327 1097 296 1115 q 358 1064 358 1079 q 301 628 358 932 q 213 325 243 325 q 188 339 199 325 q 178 364 178 353 q 187 417 178 375 q 209 527 196 458 q 236 679 222 596 q 267 1082 267 876 q 278 1115 267 1115 z "},"\"":{"ha":346,"x_min":40,"x_max":338,"o":"m 288 1147 q 319 1130 300 1147 q 338 1100 338 1113 q 319 909 338 1032 q 282 786 301 786 q 258 801 269 786 q 246 826 246 817 q 258 938 246 836 q 271 1119 271 1040 q 288 1147 271 1147 m 82 1147 q 114 1130 94 1147 q 133 1100 133 1113 q 115 910 133 1035 q 78 786 96 786 q 52 801 64 786 q 40 826 40 817 q 53 938 40 836 q 65 1119 65 1040 q 82 1147 65 1147 z "},"#":{"ha":818,"x_min":69,"x_max":846,"o":"m 181 -14 q 156 3 169 -14 q 142 38 142 19 q 178 204 142 56 q 115 196 132 196 q 84 213 99 196 q 69 242 69 229 q 200 290 69 267 q 283 646 261 543 q 197 635 213 635 q 168 651 182 635 q 154 681 154 668 q 301 732 154 708 q 332 926 332 888 l 332 972 q 338 994 332 992 q 353 996 343 996 q 389 969 364 996 q 414 905 414 943 q 393 746 414 867 q 610 767 528 761 q 632 925 632 886 l 632 972 q 637 994 632 992 q 653 996 642 996 q 689 969 664 996 q 714 902 714 943 q 697 774 714 861 q 783 776 772 776 q 846 744 846 776 q 813 723 846 732 q 682 700 781 714 q 594 333 657 574 q 699 338 665 338 q 761 307 761 338 q 725 283 761 293 q 575 258 689 274 l 540 124 q 478 -14 504 -14 q 452 4 464 -14 q 440 38 440 22 q 489 246 440 54 l 265 217 l 240 126 q 181 -14 201 -14 m 593 688 l 375 660 q 289 304 347 528 q 508 326 371 315 q 593 688 564 543 z "},"$":{"ha":699,"x_min":26,"x_max":700,"o":"m 685 793 l 622 804 q 542 797 588 804 q 440 475 499 665 q 535 403 500 432 q 601 333 569 375 q 632 253 632 290 q 532 93 632 158 q 300 24 432 28 q 235 -86 260 -86 q 214 -53 214 -86 q 226 31 214 -19 q 85 110 143 50 q 26 205 26 169 q 50 240 26 240 q 88 211 60 240 q 244 106 172 119 q 350 442 254 140 q 223 544 267 500 q 179 626 179 588 q 190 698 179 664 q 217 744 201 732 q 483 868 306 825 q 536 1006 519 976 q 576 1035 553 1035 q 600 1003 600 1035 q 589 939 600 972 l 571 885 q 624 888 610 888 q 679 860 658 888 q 700 813 700 832 q 685 793 700 793 m 328 106 q 482 157 421 117 q 543 252 543 197 q 417 396 543 307 q 367 235 397 332 q 328 106 338 138 m 454 778 q 315 718 371 754 q 260 644 260 682 q 375 521 260 606 q 454 778 410 635 z "},"%":{"ha":1160,"x_min":143,"x_max":1056,"o":"m 910 556 q 1013 496 969 556 q 1056 342 1056 436 q 972 122 1056 221 q 800 22 889 22 q 704 74 746 22 q 663 189 663 125 q 742 447 663 339 q 910 556 822 556 m 813 101 q 918 176 861 101 q 975 324 975 250 q 955 438 975 397 q 904 479 935 479 q 799 390 856 479 q 743 201 743 301 q 761 131 743 161 q 813 101 779 101 m 842 1000 q 869 1015 842 1000 q 907 1031 896 1031 q 935 1003 918 1031 q 953 951 953 976 q 899 843 953 925 q 745 624 846 761 q 606 431 644 488 q 526 312 568 375 q 458 210 483 249 q 402 129 432 172 q 356 63 372 86 q 322 17 339 39 q 281 -22 290 -22 q 260 -4 271 -22 q 249 25 249 14 q 270 72 249 36 q 348 191 292 107 q 461 357 404 275 q 843 907 669 657 q 606 832 725 832 q 524 844 563 832 q 538 753 538 800 q 453 533 538 632 q 282 433 369 433 q 185 485 228 433 q 143 600 143 536 q 223 859 143 751 q 392 967 303 967 q 426 960 413 967 q 464 940 440 954 q 575 910 514 910 q 712 940 636 910 q 842 1000 788 969 m 293 513 q 399 587 342 513 q 457 734 457 661 q 436 849 457 807 q 386 890 415 890 q 281 801 338 890 q 225 613 225 713 q 243 542 225 572 q 293 513 261 513 z "},"&":{"ha":917,"x_min":31,"x_max":863,"o":"m 751 111 q 840 106 817 111 q 863 85 863 100 q 740 36 863 36 q 489 156 618 36 q 167 21 269 21 q 75 63 119 21 q 31 160 31 106 q 106 272 31 204 q 221 372 167 328 q 279 419 275 415 q 303 438 292 429 q 260 652 260 550 q 331 833 260 754 q 511 913 403 913 q 633 866 597 913 q 668 754 668 819 q 594 604 668 689 q 394 417 519 519 q 494 254 436 322 q 642 358 557 296 q 831 488 817 488 q 861 458 861 488 q 767 357 861 438 q 551 196 672 276 q 751 111 650 111 m 497 840 q 389 781 433 840 q 344 646 344 722 q 368 490 344 569 q 526 641 469 575 q 582 760 582 707 q 497 840 582 840 m 335 367 q 144 201 172 236 q 115 147 115 167 q 131 113 115 126 q 171 99 147 99 q 433 215 253 99 q 335 367 372 290 z "},"'":{"ha":144,"x_min":40,"x_max":136,"o":"m 68 1119 q 82 1147 68 1147 q 116 1130 96 1147 q 136 1100 136 1113 q 117 910 136 1035 q 78 786 97 786 q 52 802 64 786 q 40 827 40 818 q 54 938 40 836 q 68 1119 68 1040 z "},"(":{"ha":679,"x_min":117,"x_max":746,"o":"m 692 1206 q 702 1206 692 1206 q 729 1189 713 1206 q 746 1158 746 1172 q 716 1120 746 1143 q 638 1062 686 1097 q 533 981 590 1026 q 417 871 475 935 q 310 734 358 807 q 233 565 263 661 q 203 372 203 468 q 233 203 203 275 q 307 88 263 131 q 403 10 351 44 q 499 -42 454 -24 q 603 -110 603 -86 q 563 -136 603 -136 q 469 -119 524 -136 q 353 -60 415 -101 q 238 38 290 -19 q 151 183 186 94 q 117 397 117 272 q 170 658 117 521 q 300 891 224 796 q 460 1060 376 986 q 608 1169 544 1133 q 692 1206 671 1206 z "},")":{"ha":681,"x_min":-39,"x_max":571,"o":"m 571 760 q 533 511 571 633 q 435 297 494 389 q 305 127 375 206 q 168 -3 235 49 q -17 -108 28 -108 q -39 -89 -39 -108 q -1 -43 -39 -78 q 94 40 38 -8 q 219 162 151 88 q 343 317 286 236 q 438 509 400 399 q 476 719 476 619 q 453 886 476 819 q 395 991 429 953 q 328 1056 361 1029 q 271 1101 294 1082 q 247 1136 247 1121 q 306 1172 247 1172 q 480 1054 389 1172 q 571 760 571 936 z "},"*":{"ha":483,"x_min":147,"x_max":514,"o":"m 514 1008 q 460 970 514 1000 q 358 921 406 940 q 410 888 378 906 q 461 858 442 869 q 481 838 481 846 q 471 823 481 831 q 453 815 461 815 q 339 893 428 815 q 319 797 333 850 q 293 744 306 744 q 276 753 285 744 q 268 769 268 763 q 275 794 268 775 q 306 893 301 871 q 235 843 283 872 q 176 814 188 814 q 156 823 165 814 q 147 843 147 832 q 207 878 147 851 q 296 922 267 904 q 211 974 263 935 q 160 1030 160 1014 q 174 1046 160 1046 q 235 1026 219 1046 q 313 949 294 957 q 315 1072 315 993 q 332 1092 315 1092 q 358 1076 342 1092 q 374 1042 374 1061 q 347 944 374 1024 q 403 985 371 960 q 478 1036 467 1036 q 502 1028 490 1036 q 514 1008 514 1019 z "},"+":{"ha":833,"x_min":76,"x_max":821,"o":"m 821 494 q 719 450 821 472 q 465 414 617 428 q 446 303 457 367 q 429 211 435 240 q 417 150 424 182 q 390 96 404 96 q 363 116 375 96 q 351 156 351 136 q 355 199 351 175 q 368 283 358 222 q 388 408 378 343 q 151 399 275 399 q 100 419 124 399 q 76 464 76 440 q 113 488 76 488 q 272 485 213 485 q 399 489 332 485 q 431 742 404 529 q 454 781 435 781 q 496 751 469 781 q 522 701 522 722 q 482 494 522 679 q 596 506 532 499 q 763 521 736 521 q 821 494 821 521 z "},",":{"ha":292,"x_min":0,"x_max":206,"o":"m 206 42 q 136 -122 206 -35 q 21 -208 67 -208 q 0 -194 0 -208 q 18 -158 0 -181 q 58 -112 36 -135 q 99 -53 81 -90 q 117 21 117 -17 q 88 60 117 43 q 60 93 60 76 q 75 132 60 110 q 110 154 90 154 q 176 121 147 154 q 206 42 206 88 z "},"-":{"ha":583,"x_min":76,"x_max":531,"o":"m 531 450 q 497 424 531 433 q 303 383 463 414 q 127 351 143 351 q 94 367 111 351 q 76 394 76 382 q 230 449 76 421 q 457 478 383 478 q 531 450 531 478 z "},".":{"ha":329,"x_min":94,"x_max":231,"o":"m 203 -8 q 133 31 172 -8 q 94 97 94 71 q 113 146 94 122 q 152 169 132 169 q 201 107 172 169 q 231 13 231 44 q 221 -1 231 7 q 203 -8 211 -8 z "},"/":{"ha":544,"x_min":36,"x_max":565,"o":"m 306 400 q 124 -30 157 44 q 79 -104 90 -104 q 52 -85 68 -104 q 36 -54 36 -65 q 486 1019 36 19 q 494 1038 492 1031 q 499 1048 497 1044 q 503 1053 501 1051 q 506 1057 504 1056 q 515 1060 511 1060 q 546 1031 526 1060 q 565 976 565 1003 q 522 856 565 950 q 409 622 478 761 q 306 400 340 483 z "},":":{"ha":342,"x_min":49,"x_max":311,"o":"m 285 504 q 217 547 256 504 q 178 615 178 589 q 195 667 178 642 q 231 693 213 693 q 283 627 254 693 q 311 526 311 561 q 303 512 311 519 q 285 504 294 504 m 156 -8 q 88 34 126 -8 q 49 103 49 76 q 66 154 49 129 q 101 179 83 179 q 153 113 125 179 q 181 13 181 47 q 172 -1 181 6 q 156 -8 164 -8 z "},";":{"ha":425,"x_min":-7,"x_max":315,"o":"m 199 -3 q 129 -166 199 -79 q 14 -253 60 -253 q -7 -239 -7 -253 q 11 -202 -7 -225 q 51 -157 29 -179 q 92 -98 74 -135 q 110 -24 110 -61 q 81 15 110 -1 q 53 49 53 32 q 68 88 53 65 q 103 110 83 110 q 169 76 140 110 q 199 -3 199 43 m 289 504 q 221 547 260 504 q 182 615 182 589 q 200 667 182 642 q 235 693 218 693 q 287 627 258 693 q 315 526 315 561 q 307 512 315 519 q 289 504 299 504 z "},"<":{"ha":797,"x_min":165,"x_max":778,"o":"m 724 706 q 764 692 750 706 q 778 671 778 679 q 776 659 778 663 q 772 653 775 656 q 765 648 768 650 q 757 644 763 646 q 747 640 751 642 q 736 637 743 639 q 651 609 729 635 q 423 521 572 583 q 274 426 274 458 q 487 308 274 403 q 700 194 700 214 q 657 174 700 174 q 494 219 614 174 q 270 325 375 265 q 165 415 165 385 q 182 460 165 433 q 215 501 199 488 q 469 629 279 553 q 724 706 658 706 z "},"=":{"ha":846,"x_min":76,"x_max":811,"o":"m 76 322 q 348 377 76 346 q 698 408 619 408 q 776 378 776 408 q 701 343 776 358 q 417 300 626 328 q 114 272 208 272 q 88 292 100 274 q 76 322 76 310 m 113 597 q 378 651 114 624 q 726 679 642 679 q 811 647 811 679 q 769 620 811 631 q 474 578 726 610 q 151 547 221 547 q 125 565 138 547 q 113 597 113 583 z "},">":{"ha":738,"x_min":114,"x_max":657,"o":"m 253 624 q 207 655 228 631 q 186 692 186 679 q 217 706 186 706 q 422 639 296 704 q 619 506 547 574 q 645 468 633 492 q 657 433 657 444 q 650 410 657 421 q 628 388 643 400 q 597 367 613 376 q 556 343 582 357 q 510 319 529 329 q 459 294 492 310 q 408 269 426 279 q 143 169 214 169 q 114 186 114 169 q 224 266 114 207 q 445 380 335 325 q 556 446 556 435 q 442 540 556 479 q 253 624 328 601 z "},"?":{"ha":651,"x_min":157,"x_max":633,"o":"m 264 -7 q 195 32 233 -7 q 157 97 157 71 q 175 146 157 122 q 213 169 193 169 q 262 107 233 169 q 290 13 290 44 q 281 0 290 7 q 264 -7 272 -7 m 208 897 q 272 1028 208 971 q 422 1085 336 1085 q 571 1028 508 1085 q 633 876 633 971 q 594 760 633 824 q 506 646 554 696 q 338 434 367 506 q 298 344 308 363 q 275 326 288 326 q 247 382 247 326 q 278 490 247 438 q 353 590 308 542 q 442 685 397 638 q 546 881 546 797 q 508 968 546 933 q 419 1003 471 1003 q 329 971 368 1003 q 290 892 290 939 q 296 865 290 876 q 301 844 301 853 q 287 828 301 835 q 259 822 272 822 q 227 849 246 822 q 208 897 208 876 z "},"@":{"ha":1256,"x_min":57,"x_max":1200,"o":"m 801 986 q 1096 864 992 986 q 1200 564 1200 742 q 1086 240 1200 386 q 844 94 972 94 q 774 121 806 94 q 736 192 743 147 q 529 58 631 58 q 408 105 465 58 q 351 207 351 151 q 413 416 351 294 q 566 628 474 538 q 729 718 658 718 q 838 660 800 718 q 876 553 876 603 q 843 468 876 504 q 858 440 858 456 q 828 353 858 424 q 799 247 799 283 q 816 186 799 210 q 863 163 833 163 q 1028 284 939 163 q 1117 557 1117 406 q 1042 811 1117 708 q 804 914 968 914 q 538 841 665 914 q 326 656 411 768 q 190 413 240 544 q 139 150 139 281 q 224 -69 139 19 q 444 -158 310 -158 q 626 -140 544 -158 q 753 -104 708 -122 q 809 -86 799 -86 q 819 -97 819 -86 q 691 -186 819 -143 q 443 -229 563 -229 q 162 -117 267 -229 q 57 156 57 -4 q 90 375 57 260 q 190 599 124 490 q 344 794 256 707 q 551 933 432 881 q 801 986 671 986 m 813 479 q 811 528 811 488 q 794 610 811 569 q 743 650 776 650 q 615 569 690 650 q 484 381 539 488 q 429 206 429 275 q 459 149 429 172 q 522 126 489 126 q 675 222 596 126 q 788 454 754 317 q 813 479 792 475 z "},"A":{"ha":828,"x_min":65,"x_max":768,"o":"m 510 1003 q 581 865 549 1003 q 636 529 614 728 q 734 542 700 542 q 768 513 768 542 q 643 458 768 494 q 661 153 661 282 q 628 24 661 24 q 582 133 588 24 q 561 436 574 296 q 260 356 332 375 q 128 44 142 65 q 110 24 114 24 q 79 44 93 24 q 65 90 65 64 q 164 329 65 100 q 122 322 132 322 q 67 357 67 322 q 203 421 67 379 q 403 886 364 807 q 459 984 442 965 q 510 1003 476 1003 m 299 450 q 554 513 454 492 q 492 896 529 740 q 299 450 390 674 z "},"B":{"ha":894,"x_min":10,"x_max":806,"o":"m 308 881 l 268 879 q 226 899 246 879 q 207 934 207 918 q 265 963 207 950 q 400 976 322 976 q 694 922 594 976 q 793 776 793 868 q 467 525 793 586 l 500 525 q 720 472 635 525 q 806 347 806 418 q 631 128 806 225 q 229 31 457 31 q 71 67 132 31 q 10 147 10 104 q 25 174 10 174 q 50 160 33 174 q 167 108 104 115 q 144 176 144 131 q 185 319 144 197 q 307 868 307 688 q 308 881 307 878 m 488 896 q 354 886 442 896 q 389 822 389 854 q 326 533 389 771 q 415 572 343 549 q 512 603 486 594 q 580 632 538 613 q 644 669 622 651 q 704 771 704 715 q 640 861 704 826 q 488 896 576 896 m 203 106 q 554 182 394 106 q 714 353 714 258 q 609 435 714 401 q 383 468 504 468 q 344 480 363 468 q 319 506 325 492 q 290 398 310 469 q 260 290 269 326 q 190 106 215 135 l 203 106 z "},"C":{"ha":818,"x_min":113,"x_max":778,"o":"m 676 975 q 744 942 711 975 q 778 887 778 908 q 770 865 778 865 q 732 878 763 865 q 674 890 701 890 q 538 834 619 890 q 383 693 457 778 q 255 497 308 608 q 201 297 201 385 q 255 167 201 210 q 386 124 308 124 q 540 155 464 124 q 663 217 615 186 q 719 247 710 247 q 735 241 729 247 q 740 228 740 235 q 682 158 740 204 q 535 74 624 113 q 376 35 446 35 q 193 108 274 35 q 113 283 113 182 q 165 505 113 383 q 297 730 218 626 q 480 904 376 833 q 676 975 583 975 z "},"D":{"ha":879,"x_min":132,"x_max":831,"o":"m 240 982 q 498 916 361 982 q 733 734 635 850 q 831 494 831 618 q 718 293 831 407 q 457 100 606 179 q 208 21 308 21 q 156 57 181 21 q 132 140 132 93 q 213 483 132 188 q 293 860 293 778 q 294 892 293 885 q 233 921 254 903 q 213 957 213 939 q 240 982 213 982 m 742 497 q 624 724 742 608 q 354 879 507 839 q 372 818 372 850 q 370 769 372 786 q 363 726 368 751 q 351 677 357 700 q 335 614 346 654 q 315 542 324 574 q 291 454 307 511 q 264 356 275 397 q 215 107 231 243 q 388 157 292 110 q 560 267 485 204 q 689 394 636 329 q 742 497 742 458 z "},"E":{"ha":839,"x_min":115,"x_max":850,"o":"m 300 929 q 594 974 338 974 q 850 947 850 974 q 801 920 850 928 q 679 907 751 913 q 574 899 589 900 q 531 897 560 899 q 441 886 503 894 q 372 876 379 878 l 372 863 q 310 544 372 768 l 353 543 q 503 550 425 543 q 628 557 582 557 q 675 544 675 557 q 303 472 675 472 q 289 474 293 472 q 201 144 201 199 q 215 112 201 124 q 247 100 228 100 q 615 156 424 100 q 690 174 681 174 q 707 149 707 174 q 553 64 707 111 q 271 17 400 17 q 161 49 207 17 q 115 126 115 82 q 159 330 115 190 q 247 626 203 469 q 290 890 290 783 q 295 923 290 918 q 300 929 300 928 z "},"F":{"ha":711,"x_min":89,"x_max":817,"o":"m 274 464 l 265 464 q 224 306 250 404 q 192 179 199 208 q 139 24 153 24 q 107 49 125 24 q 89 91 89 75 q 174 433 89 107 q 263 890 258 760 q 274 928 263 911 q 558 974 299 974 q 817 944 817 974 q 773 922 817 928 q 699 913 729 915 q 614 905 669 910 q 466 890 558 900 q 340 879 374 881 q 342 860 342 872 q 283 538 342 776 q 485 544 399 538 q 608 551 572 551 q 644 539 644 551 q 601 506 644 524 q 469 476 557 489 q 274 464 381 464 z "},"G":{"ha":858,"x_min":82,"x_max":750,"o":"m 644 978 q 716 941 682 978 q 750 882 750 904 q 736 860 750 860 q 703 873 731 860 q 647 886 675 886 q 451 790 564 886 q 256 549 339 694 q 174 278 174 403 q 217 160 174 208 q 319 111 260 111 q 465 191 379 111 q 643 411 551 271 q 510 379 547 379 q 451 396 474 379 q 429 426 429 413 q 640 465 429 465 q 699 434 672 465 q 726 374 726 403 q 654 91 726 311 q 553 -129 582 -129 q 524 -89 524 -129 q 574 90 524 -53 q 646 308 624 233 q 485 99 576 176 q 311 22 393 22 q 156 101 229 22 q 82 271 82 179 q 170 572 82 406 q 393 858 258 739 q 644 978 528 978 z "},"H":{"ha":944,"x_min":104,"x_max":872,"o":"m 169 414 q 140 426 154 414 q 125 457 125 439 q 199 489 125 471 q 296 942 296 853 q 300 974 296 965 q 319 982 304 982 q 353 951 333 982 q 372 885 372 919 q 293 511 372 806 q 718 571 540 558 q 793 942 793 856 q 797 974 793 965 q 817 982 801 982 q 852 951 832 982 q 872 873 872 921 q 807 571 872 825 q 867 543 867 567 q 790 510 867 522 q 725 271 756 392 q 682 108 694 150 q 644 26 657 26 q 617 48 632 26 q 603 101 603 69 q 700 497 603 133 q 485 469 522 475 q 271 428 447 463 q 226 265 257 379 q 183 108 196 150 q 147 26 158 26 q 120 47 136 26 q 104 101 104 68 q 179 414 104 135 l 169 414 z "},"I":{"ha":432,"x_min":107,"x_max":369,"o":"m 154 31 q 124 51 140 31 q 107 100 107 71 q 198 489 107 129 q 289 938 289 849 q 292 970 289 963 q 313 978 296 978 q 349 947 329 978 q 369 882 369 917 q 267 411 369 789 q 239 306 256 372 q 211 200 222 240 q 188 117 200 160 q 154 31 163 31 z "},"J":{"ha":636,"x_min":7,"x_max":678,"o":"m 7 199 q 28 224 7 224 q 70 192 36 224 q 154 128 104 160 q 251 96 204 96 q 347 196 306 96 q 460 557 388 296 q 600 917 533 818 q 398 871 514 904 q 260 838 282 838 q 218 860 218 838 q 383 944 218 894 q 613 993 547 993 q 658 983 639 993 q 678 951 678 972 q 660 878 678 931 q 604 721 642 826 q 535 508 567 615 q 396 101 440 185 q 266 18 351 18 q 94 87 181 18 q 7 199 7 156 z "},"K":{"ha":813,"x_min":94,"x_max":819,"o":"m 760 975 q 803 965 786 975 q 819 940 819 954 q 756 869 819 925 q 371 469 507 647 q 400 336 371 408 q 484 221 429 264 q 606 147 539 178 q 710 94 672 115 q 747 50 747 72 q 703 32 747 32 q 598 56 660 32 q 473 124 536 81 q 362 243 410 168 q 303 407 314 318 q 167 99 240 325 q 138 32 146 32 q 109 53 124 32 q 94 105 94 74 q 190 492 94 136 q 285 938 285 849 q 288 970 285 963 q 308 978 292 978 q 340 947 324 978 q 357 882 357 917 q 263 450 357 789 q 556 803 388 631 q 760 975 724 975 z "},"L":{"ha":758,"x_min":101,"x_max":686,"o":"m 285 940 q 289 972 285 964 q 309 981 293 981 q 345 951 325 981 q 365 889 365 922 q 277 492 365 794 q 189 161 189 190 q 202 119 189 132 q 235 107 215 107 q 597 164 407 107 q 670 182 660 182 q 683 180 681 182 q 686 168 686 178 q 538 76 686 126 q 258 25 389 25 q 148 58 194 25 q 101 140 101 90 q 193 518 101 190 q 285 940 285 846 z "},"M":{"ha":1119,"x_min":94,"x_max":1107,"o":"m 288 970 q 290 974 288 970 q 306 978 292 978 q 344 951 319 978 q 374 893 369 924 q 565 418 390 788 q 809 719 731 619 q 932 872 888 818 q 1043 974 1015 974 q 1084 951 1061 974 q 1107 911 1107 928 q 1104 876 1107 894 q 1094 829 1101 858 q 1081 774 1088 800 q 1063 703 1075 749 q 1042 628 1050 658 q 947 281 976 410 q 881 32 892 32 q 852 53 865 32 q 839 108 839 75 q 902 436 839 178 q 1026 860 965 694 q 679 438 768 539 q 556 338 590 338 q 492 385 521 338 q 417 540 464 432 q 333 753 369 647 q 250 400 307 593 q 221 297 238 358 q 192 195 204 236 q 168 114 181 154 q 136 32 143 32 q 109 53 124 32 q 94 105 94 74 q 189 492 94 136 q 283 938 283 849 q 288 970 283 963 z "},"N":{"ha":975,"x_min":89,"x_max":911,"o":"m 854 983 q 891 957 871 983 q 911 906 911 931 q 878 571 911 776 q 790 196 846 365 q 681 26 735 26 q 617 81 644 26 q 477 404 589 136 q 335 758 365 672 q 219 319 275 535 q 153 65 164 103 q 133 26 142 26 q 106 47 122 26 q 89 100 89 68 q 185 494 89 132 q 281 943 281 856 q 284 976 281 968 q 300 983 288 983 q 334 959 313 983 q 365 893 356 935 q 491 568 375 851 q 682 122 607 285 q 776 463 742 274 q 817 743 811 651 q 822 909 822 835 q 854 983 822 983 z "},"O":{"ha":847,"x_min":92,"x_max":811,"o":"m 487 192 q 535 236 487 192 q 652 407 583 281 q 721 644 721 533 q 671 828 721 756 q 568 900 621 900 q 449 845 515 900 q 322 707 383 790 q 218 512 261 624 q 175 306 175 400 q 218 158 175 211 q 315 104 261 104 q 487 192 390 104 m 303 26 q 154 112 217 26 q 92 286 92 197 q 167 617 92 451 q 352 883 243 782 q 563 983 461 983 q 738 882 664 983 q 811 652 811 781 q 737 377 811 524 q 542 128 663 231 q 303 26 421 26 z "},"P":{"ha":749,"x_min":75,"x_max":763,"o":"m 763 754 q 240 374 763 476 q 122 19 136 19 q 92 39 108 19 q 75 89 75 58 q 165 435 75 119 q 263 860 256 750 q 236 902 236 875 q 322 956 236 929 q 489 983 408 983 q 683 920 604 983 q 763 754 763 857 m 681 744 q 626 860 681 815 q 503 906 572 906 q 338 869 433 906 q 344 829 344 849 q 263 450 344 743 q 567 572 453 490 q 681 744 681 653 z "},"Q":{"ha":876,"x_min":97,"x_max":815,"o":"m 558 978 q 740 878 664 978 q 815 649 815 778 q 744 377 815 521 q 564 139 674 233 q 617 11 586 81 q 675 -150 675 -128 q 649 -168 675 -168 q 583 -96 624 -168 q 500 92 543 -24 q 313 32 406 32 q 158 104 219 32 q 97 296 97 176 q 141 544 97 415 q 252 766 185 672 q 402 919 319 860 q 558 978 485 978 m 564 897 q 486 875 528 897 q 454 696 454 817 q 532 228 454 476 q 671 429 615 315 q 726 650 726 543 q 676 827 726 757 q 564 897 625 897 m 176 300 q 218 158 176 211 q 324 106 260 106 q 472 172 388 106 q 372 674 372 472 q 396 807 372 749 q 240 574 304 715 q 176 300 176 433 z "},"R":{"ha":799,"x_min":75,"x_max":750,"o":"m 121 28 q 91 47 107 28 q 75 97 75 65 q 158 433 75 128 q 250 850 240 738 q 227 872 238 857 q 217 901 217 888 q 303 956 217 929 q 469 983 390 983 q 672 936 593 983 q 750 792 750 889 q 708 663 750 722 q 605 568 665 604 q 483 506 544 532 q 380 462 422 479 q 338 436 338 444 q 560 200 338 394 q 605 163 578 185 q 649 126 632 140 q 683 97 665 113 q 717 51 717 67 q 689 31 717 31 q 540 111 646 31 q 342 293 433 192 q 246 446 251 394 q 183 218 201 283 q 153 111 164 153 q 121 28 128 28 m 480 587 q 516 603 480 587 q 610 676 551 619 q 669 792 669 733 q 500 899 669 899 q 324 863 429 899 q 329 829 329 850 q 251 465 329 743 q 338 520 267 486 q 480 587 408 554 z "},"S":{"ha":721,"x_min":8,"x_max":674,"o":"m 628 293 q 530 108 628 182 q 288 35 432 35 q 93 101 178 35 q 8 222 8 168 q 25 246 8 246 q 66 213 35 246 q 150 147 97 181 q 265 114 203 114 q 461 165 385 114 q 538 289 538 217 q 487 394 538 332 q 376 508 436 456 q 265 621 315 560 q 214 724 214 682 q 226 779 214 747 q 253 829 239 811 q 408 930 296 882 q 592 978 521 978 q 650 961 626 978 q 674 925 674 944 q 645 908 674 914 q 557 888 617 901 q 446 854 497 875 q 292 726 292 792 q 460 544 292 694 q 575 417 522 489 q 628 293 628 346 z "},"T":{"ha":736,"x_min":93,"x_max":825,"o":"m 424 900 l 147 888 q 112 911 131 888 q 93 951 93 935 q 151 971 93 968 q 542 974 210 974 q 737 949 649 974 q 825 900 825 925 q 783 886 825 886 q 662 892 742 886 q 501 900 582 899 q 506 872 506 885 q 400 400 506 785 q 358 236 385 346 q 317 77 332 126 q 290 28 301 28 q 258 47 275 28 q 242 97 242 65 q 328 459 242 129 q 424 900 414 789 z "},"U":{"ha":832,"x_min":138,"x_max":775,"o":"m 257 938 q 260 970 257 963 q 279 978 264 978 q 317 947 294 978 q 340 868 340 917 q 280 589 340 819 q 219 278 219 358 q 254 144 219 197 q 342 92 289 92 q 455 147 396 92 q 566 291 514 201 q 653 510 618 381 q 688 775 688 640 q 683 881 688 822 q 678 955 678 940 q 682 974 678 969 q 697 978 686 978 q 749 944 722 978 q 775 844 775 910 q 642 247 775 481 q 336 14 508 14 q 194 89 250 14 q 138 265 138 164 q 197 602 138 367 q 257 938 257 838 z "},"V":{"ha":739,"x_min":108,"x_max":821,"o":"m 782 978 q 808 968 794 978 q 821 940 821 958 q 795 878 821 922 q 707 728 769 833 q 594 524 644 624 q 501 335 543 424 q 435 194 458 246 q 389 99 411 143 q 329 17 350 17 q 267 104 304 17 q 169 528 231 192 q 108 944 108 864 q 124 978 108 978 q 164 953 143 978 q 193 903 185 929 q 241 599 201 876 q 333 146 281 322 q 569 656 400 335 q 782 978 739 978 z "},"W":{"ha":1083,"x_min":111,"x_max":1014,"o":"m 715 978 q 936 851 858 978 q 1014 532 1014 724 q 972 292 1014 407 q 858 105 929 176 q 708 33 788 33 q 578 161 617 33 q 529 463 542 275 q 435 337 493 417 q 324 186 376 257 q 164 31 206 31 q 128 63 144 31 q 111 140 111 94 q 153 495 111 185 q 194 929 194 806 q 222 978 194 978 q 267 952 242 978 q 293 900 293 926 q 272 744 293 874 q 186 138 201 307 q 395 424 281 286 q 547 561 510 561 q 593 492 575 561 q 619 340 611 424 q 650 188 628 257 q 708 119 672 119 q 865 250 799 119 q 931 544 931 381 q 886 767 931 660 q 828 849 864 817 q 753 881 792 881 q 684 906 714 881 q 654 949 654 931 q 715 978 654 978 z "},"X":{"ha":896,"x_min":54,"x_max":876,"o":"m 826 978 q 857 959 838 978 q 876 933 876 940 q 874 921 876 925 q 865 910 872 917 q 853 900 858 904 q 786 844 808 868 q 730 778 764 821 q 669 702 696 736 q 585 594 642 668 q 489 472 490 474 q 605 302 531 408 q 714 140 679 196 q 749 58 749 85 q 731 32 749 32 q 611 140 699 32 q 431 400 524 249 q 169 80 214 128 q 92 32 125 32 q 67 44 81 32 q 54 63 54 56 q 57 76 54 71 q 63 85 60 82 q 88 111 65 89 q 389 469 189 215 q 200 953 200 794 q 217 978 200 978 q 273 960 247 978 q 299 918 299 942 q 444 542 299 781 q 736 911 676 844 q 826 978 796 978 z "},"Y":{"ha":808,"x_min":140,"x_max":843,"o":"m 474 494 q 566 614 497 494 q 704 853 635 733 q 801 972 774 972 q 843 936 843 972 q 801 847 843 917 q 682 649 760 776 q 561 442 604 522 q 474 279 518 361 q 410 160 431 197 q 367 81 390 122 q 301 10 324 10 q 285 34 285 10 q 297 92 285 58 q 339 186 308 125 q 456 417 385 281 q 299 513 374 432 q 183 701 225 594 q 140 903 140 808 q 150 953 140 933 q 176 972 160 972 q 205 928 192 972 q 240 804 218 885 q 299 651 263 724 q 386 537 336 579 q 474 494 436 494 z "},"Z":{"ha":842,"x_min":90,"x_max":781,"o":"m 781 807 q 686 645 781 749 q 479 450 592 542 q 178 154 178 201 q 190 129 178 142 q 224 117 201 117 q 483 142 301 117 q 691 168 664 168 q 723 163 718 168 q 728 143 728 158 q 656 97 728 122 q 460 54 583 72 q 213 36 336 36 q 128 71 167 36 q 90 148 90 106 q 153 263 90 190 q 305 411 215 335 q 483 564 394 488 q 697 825 697 746 q 625 867 697 849 q 480 885 553 885 q 336 874 407 885 q 244 863 265 863 q 200 884 224 863 q 175 926 176 906 q 272 963 172 946 q 386 971 322 971 q 742 879 644 971 q 781 807 781 842 z "},"[":{"ha":622,"x_min":113,"x_max":728,"o":"m 594 1101 q 728 1064 728 1101 q 696 1041 728 1047 q 590 1027 664 1035 q 492 1016 515 1019 q 461 1013 468 1013 q 465 985 465 997 q 296 371 465 907 q 201 35 201 68 q 239 3 201 3 q 350 10 276 3 q 436 18 424 18 q 457 1 457 18 q 385 -54 457 -31 q 255 -78 313 -78 q 155 -51 197 -78 q 113 24 113 -24 q 247 506 113 72 q 382 1031 382 940 q 386 1054 382 1046 l 386 1057 q 594 1101 390 1101 z "},"\\":{"ha":833,"x_min":179,"x_max":708,"o":"m 708 -54 q 692 -85 708 -65 q 665 -104 676 -104 q 621 -30 654 -104 q 439 400 588 44 q 335 622 404 483 q 223 856 267 761 q 179 976 179 950 q 199 1031 179 1003 q 229 1060 218 1060 q 249 1042 242 1060 q 258 1019 253 1031 q 708 -54 708 19 z "},"]":{"ha":571,"x_min":-26,"x_max":503,"o":"m 503 990 l 503 975 q 434 526 503 865 q 317 -6 365 188 q 274 -78 304 -56 q 181 -101 244 -101 q 46 -74 118 -101 q -26 -18 -26 -47 q -8 -1 -26 -1 q 81 -11 11 -1 q 185 -21 150 -21 q 228 15 219 -21 q 335 485 254 114 q 415 928 415 857 q 418 950 415 936 q 319 954 386 954 q 175 985 175 954 q 243 1024 175 1011 q 385 1038 311 1038 q 503 990 503 1038 z "},"^":{"ha":586,"x_min":107,"x_max":488,"o":"m 488 807 q 471 786 488 786 q 395 872 442 786 q 311 1053 349 958 q 200 888 253 993 q 151 807 164 815 q 131 799 139 799 q 107 833 107 799 q 143 945 107 868 q 224 1084 179 1022 q 294 1146 269 1146 q 363 1122 346 1146 q 393 1053 375 1107 q 449 907 411 999 q 488 807 488 815 z "},"_":{"ha":836,"x_min":76,"x_max":740,"o":"m 740 35 q 672 13 740 17 q 465 5 557 6 q 251 -3 374 4 q 115 -10 129 -11 q 89 6 101 -10 q 76 40 76 22 q 185 71 76 58 q 437 83 294 83 q 675 71 579 83 q 740 35 740 63 z "},"`":{"ha":263,"x_min":14,"x_max":249,"o":"m 24 1069 q 21 1072 24 1069 q 16 1081 18 1075 q 14 1099 14 1086 q 29 1131 14 1111 q 58 1150 44 1150 q 77 1147 71 1150 q 92 1135 83 1143 q 109 1117 101 1126 q 131 1092 117 1108 q 157 1064 146 1076 q 180 1039 168 1051 q 199 1019 192 1026 q 214 1003 206 1013 q 226 990 222 994 q 235 979 231 985 q 241 970 239 974 q 244 963 243 967 q 249 947 249 956 q 240 929 249 938 q 221 921 231 921 q 197 930 211 921 q 157 960 183 939 q 119 991 131 982 q 92 1011 107 1000 q 69 1028 76 1022 q 50 1043 61 1035 q 34 1057 39 1051 q 24 1069 29 1063 z "},"a":{"ha":621,"x_min":0,"x_max":533,"o":"m 382 697 q 418 697 382 697 q 494 638 454 697 q 533 530 533 578 q 503 440 533 482 q 515 404 515 426 q 501 236 515 315 q 482 110 486 157 q 473 43 478 63 q 456 24 468 24 q 425 69 432 24 q 418 208 418 114 q 309 78 375 132 q 180 24 243 24 q 58 72 117 24 q 0 179 0 121 q 62 391 0 268 q 217 606 124 514 q 382 697 310 697 m 461 457 q 460 503 460 467 q 444 578 460 540 q 396 615 428 615 q 269 535 343 615 q 140 351 194 456 q 86 178 86 246 q 115 126 86 147 q 175 106 143 106 q 322 199 247 106 q 436 428 397 292 q 461 457 440 451 z "},"b":{"ha":697,"x_min":33,"x_max":676,"o":"m 532 704 q 637 644 597 704 q 676 489 676 583 q 624 282 676 394 q 488 94 572 169 q 322 19 404 19 q 128 138 211 19 q 81 24 94 24 q 50 43 67 24 q 33 87 33 63 q 76 257 33 111 q 161 622 118 403 q 204 1044 204 840 q 209 1077 204 1068 q 231 1086 214 1086 q 267 1056 247 1086 q 286 993 286 1026 q 206 432 286 768 q 532 704 375 704 m 157 211 q 313 100 219 100 q 498 225 407 100 q 589 497 589 350 q 524 618 589 618 q 335 496 440 618 q 157 211 229 374 z "},"c":{"ha":586,"x_min":49,"x_max":561,"o":"m 252 24 q 214 24 252 24 q 112 80 175 24 q 49 226 49 136 q 106 427 49 315 q 252 618 163 539 q 424 697 342 697 q 523 653 485 697 q 561 582 561 610 q 544 554 561 554 q 492 584 528 554 q 429 614 457 614 q 303 546 374 614 q 183 383 232 478 q 133 230 133 289 q 166 138 133 171 q 258 106 199 106 q 368 122 317 106 q 449 155 419 139 q 493 171 479 171 q 513 149 513 171 q 421 72 513 119 q 252 24 329 24 z "},"d":{"ha":664,"x_min":24,"x_max":700,"o":"m 618 1044 q 622 1077 618 1068 q 643 1086 626 1086 q 680 1056 660 1086 q 700 988 700 1026 q 669 776 700 949 q 563 314 638 604 q 467 24 489 24 q 436 41 451 24 q 421 78 421 58 q 440 186 421 99 q 311 69 381 115 q 178 24 242 24 q 69 74 114 24 q 24 187 24 125 q 55 336 24 249 q 135 504 86 424 q 256 641 185 585 q 397 697 326 697 q 536 556 504 697 q 618 1044 606 850 m 403 615 q 269 542 340 615 q 153 366 199 469 q 107 175 107 263 q 133 121 107 143 q 190 99 160 99 q 353 186 254 99 q 499 407 464 286 q 474 556 499 496 q 403 615 449 615 z "},"e":{"ha":596,"x_min":21,"x_max":565,"o":"m 565 478 q 565 442 565 478 q 492 363 565 406 q 322 321 418 321 q 121 347 226 321 q 99 221 99 276 q 138 134 99 165 q 240 103 176 103 q 376 129 304 103 q 458 156 449 156 q 483 133 483 156 q 401 65 483 106 q 251 24 319 24 q 88 84 156 24 q 21 241 21 144 q 71 444 21 338 q 201 624 121 551 q 360 697 282 697 q 502 624 439 697 q 565 478 565 551 m 371 619 q 247 558 308 619 q 144 406 185 497 q 305 386 225 386 q 435 413 385 386 q 486 484 486 440 q 449 574 486 528 q 371 619 411 619 z "},"f":{"ha":478,"x_min":58,"x_max":603,"o":"m 108 18 q 82 35 96 18 q 68 67 68 53 q 84 140 68 81 q 133 320 100 199 q 194 558 167 442 q 113 546 132 546 q 76 560 93 546 q 58 588 58 574 q 183 636 58 610 q 214 643 204 640 q 261 853 239 744 q 453 1083 308 1083 q 564 1033 525 1083 q 603 926 603 983 q 581 868 603 868 q 550 903 563 868 q 517 974 538 939 q 461 1008 497 1008 q 401 978 424 1008 q 365 901 376 943 q 303 658 343 829 q 393 665 353 665 q 467 635 467 665 q 439 610 467 618 q 282 576 394 597 q 108 18 147 18 z "},"g":{"ha":654,"x_min":-15,"x_max":586,"o":"m 586 401 q 526 258 586 342 q 414 -78 479 153 q 371 -207 396 -144 q 217 -333 321 -333 q 49 -284 114 -333 q -15 -181 -15 -235 q -7 -153 -15 -168 q 13 -137 1 -137 q 41 -158 24 -137 q 74 -201 58 -178 q 126 -245 90 -225 q 199 -265 163 -265 q 255 -250 235 -265 q 289 -212 275 -235 q 317 -148 303 -189 q 342 -71 332 -107 q 396 121 376 58 q 196 24 278 24 q 84 73 132 24 q 36 183 36 122 q 94 394 36 274 q 244 606 153 515 q 415 697 336 697 q 533 622 493 697 q 572 464 572 547 l 572 450 q 586 401 586 432 m 192 106 q 372 193 276 106 q 518 417 467 281 q 501 469 508 433 q 456 604 485 581 q 424 615 443 615 q 290 535 364 615 q 167 351 217 454 q 117 178 117 247 q 139 126 117 146 q 192 106 161 106 z "},"h":{"ha":725,"x_min":36,"x_max":661,"o":"m 206 1035 q 211 1076 206 1065 q 235 1086 217 1086 q 272 1056 253 1086 q 292 992 292 1025 q 252 652 292 881 q 129 189 213 424 q 385 588 294 478 q 540 697 475 697 q 617 642 574 697 q 661 521 661 588 q 617 315 661 454 q 538 99 572 175 q 474 24 504 24 q 451 48 451 24 q 464 112 451 72 q 500 217 476 151 q 579 524 579 432 q 560 576 579 554 q 525 597 542 597 q 434 535 485 597 q 328 388 383 472 q 267 297 272 304 q 256 279 263 290 q 231 241 249 268 q 172 149 213 214 q 86 24 94 24 q 54 44 72 24 q 36 81 36 64 q 53 161 36 99 q 147 536 121 400 q 206 1035 206 832 z "},"i":{"ha":314,"x_min":43,"x_max":369,"o":"m 249 907 q 249 919 249 907 q 265 949 249 931 q 300 967 281 967 q 344 919 319 967 q 369 851 369 872 q 346 817 369 817 q 283 850 317 817 q 249 907 249 883 m 189 635 q 194 652 189 635 q 208 683 199 669 q 229 697 217 697 q 257 678 242 697 q 272 642 272 660 q 131 101 272 549 q 76 24 104 24 q 53 35 63 24 q 43 65 43 47 q 56 128 43 82 q 90 247 69 175 q 123 365 111 318 q 149 473 135 411 q 172 568 164 535 q 189 635 179 601 z "},"j":{"ha":349,"x_min":-278,"x_max":376,"o":"m 200 647 q 226 697 214 697 q 258 680 242 697 q 274 633 274 663 q 90 -135 274 599 q 25 -283 65 -235 q -83 -332 -15 -332 q -214 -274 -150 -332 q -278 -178 -278 -217 q -269 -151 -278 -167 q -252 -135 -260 -135 q -235 -143 -244 -135 q -208 -174 -226 -151 q -183 -204 -190 -196 q -86 -264 -133 -264 q -5 -186 -39 -264 q 83 149 29 -108 q 200 647 138 407 m 256 907 q 256 919 256 907 q 272 949 256 931 q 307 967 288 967 q 351 919 326 967 q 376 851 376 872 q 369 824 376 831 q 354 817 361 817 q 290 850 325 817 q 256 907 256 883 z "},"k":{"ha":633,"x_min":42,"x_max":619,"o":"m 494 513 q 471 488 494 513 q 408 397 447 464 q 369 275 369 329 q 400 180 369 221 q 467 118 431 139 q 535 78 504 97 q 565 47 565 60 q 526 24 565 24 q 381 94 463 24 q 300 251 300 165 l 300 267 q 141 68 181 113 q 85 24 101 24 q 55 47 68 24 q 42 92 42 69 q 86 272 42 114 q 175 650 131 429 q 219 1049 219 871 q 225 1078 219 1071 q 247 1086 231 1086 q 281 1056 264 1086 q 299 993 299 1026 q 126 149 299 688 q 496 636 363 494 q 572 697 554 697 q 604 681 589 697 q 619 653 619 665 q 581 601 619 642 q 494 513 542 561 z "},"l":{"ha":324,"x_min":42,"x_max":289,"o":"m 289 1000 q 150 189 289 703 q 86 24 106 24 q 57 44 72 24 q 42 79 42 64 q 83 259 42 94 q 167 652 125 424 q 208 1051 208 881 q 211 1079 208 1072 q 227 1086 214 1086 q 265 1058 240 1086 q 289 1000 289 1029 z "},"m":{"ha":1088,"x_min":36,"x_max":1024,"o":"m 926 697 q 993 647 963 697 q 1024 494 1024 597 q 965 207 1024 390 q 857 24 906 24 q 835 51 835 24 q 862 149 835 79 q 917 316 889 219 q 944 508 944 413 q 908 604 944 604 q 869 589 888 604 q 840 563 851 574 q 813 529 829 551 q 785 490 797 507 q 751 442 772 474 q 716 388 731 410 q 676 324 701 365 q 635 261 650 283 q 586 175 619 239 q 486 24 508 24 q 463 38 475 24 q 450 67 450 51 q 469 133 450 83 q 513 239 489 183 q 557 375 538 294 q 576 526 576 456 q 558 581 576 558 q 525 604 539 604 q 501 600 511 604 q 478 585 490 596 q 454 563 465 575 q 427 531 443 551 q 398 492 411 510 q 365 444 385 474 q 330 390 346 414 q 289 328 314 367 q 240 253 264 289 q 175 151 215 217 q 86 24 96 24 q 53 44 71 24 q 36 77 36 64 q 40 107 36 90 q 50 149 43 124 q 64 200 57 175 q 108 347 85 263 q 141 526 132 431 q 152 660 150 621 q 171 699 154 699 q 210 673 190 699 q 229 618 229 647 q 129 183 229 469 q 383 588 297 479 q 535 697 468 697 q 610 644 567 697 q 653 526 653 590 q 624 361 653 461 q 798 624 729 550 q 926 697 867 697 z "},"n":{"ha":724,"x_min":36,"x_max":660,"o":"m 536 697 q 616 644 572 697 q 660 532 660 590 q 615 306 660 444 q 535 96 569 168 q 472 24 501 24 q 450 47 450 24 q 462 108 450 71 q 497 208 474 144 q 579 526 579 426 q 560 581 579 558 q 528 604 542 604 q 504 599 515 604 q 480 583 493 594 q 455 560 467 572 q 426 526 443 549 q 396 487 408 504 q 362 438 383 469 q 326 386 340 407 q 243 258 271 299 q 175 151 215 217 q 86 24 96 24 q 53 44 71 24 q 36 78 36 64 q 47 128 36 92 q 106 332 93 275 q 147 633 147 510 q 172 699 147 699 q 211 673 192 699 q 231 604 231 647 q 201 429 231 561 q 135 199 171 297 q 385 586 296 475 q 536 697 474 697 z "},"o":{"ha":628,"x_min":63,"x_max":569,"o":"m 358 167 q 390 200 358 167 q 455 317 422 233 q 488 464 488 400 q 466 573 488 528 q 408 635 444 618 q 219 486 293 613 q 146 222 146 360 q 217 93 146 118 q 358 167 294 101 m 108 452 q 131 505 108 452 q 234 627 154 557 q 395 697 314 697 q 523 628 476 697 q 569 468 569 560 q 463 164 569 304 q 215 24 356 24 q 104 86 146 24 q 63 248 63 149 q 108 452 63 347 z "},"p":{"ha":619,"x_min":-61,"x_max":610,"o":"m -16 -331 q -24 -331 -16 -331 q -47 -310 -32 -331 q -61 -272 -61 -290 q -14 -67 -61 -254 q 126 658 126 493 q 131 691 126 682 q 151 700 135 700 q 192 669 168 700 q 217 608 217 638 q 193 479 217 579 q 332 646 258 588 q 472 704 406 704 q 574 636 539 704 q 610 470 610 568 q 532 264 610 372 q 349 90 454 156 q 158 25 243 25 q 88 40 114 25 q 63 -69 72 -21 q 44 -156 53 -117 q 24 -239 35 -196 q -16 -331 0 -331 m 146 106 q 306 154 219 106 q 457 292 392 203 q 522 479 522 381 q 462 619 522 619 q 299 509 401 619 q 140 260 196 399 l 103 110 q 146 106 122 106 z "},"q":{"ha":625,"x_min":14,"x_max":563,"o":"m 526 -136 q 544 -143 536 -136 q 553 -160 553 -150 q 506 -206 553 -181 q 413 -262 460 -231 q 338 -313 365 -294 q 299 -332 311 -332 q 273 -308 286 -332 q 260 -260 260 -285 q 322 -65 260 -235 q 404 157 385 104 q 284 61 351 99 q 164 24 217 24 q 63 76 111 24 q 14 183 14 128 q 76 395 14 274 q 235 607 139 517 q 414 697 331 697 q 515 653 468 697 q 561 581 561 610 q 544 553 561 553 q 490 585 526 553 q 424 617 454 617 q 283 536 363 617 q 148 351 203 456 q 93 178 93 246 q 115 128 93 150 q 163 106 136 106 q 350 195 250 106 q 489 429 450 285 q 513 449 494 449 q 547 436 532 449 q 563 405 563 424 q 540 321 563 386 q 456 87 518 256 q 343 -228 393 -82 q 526 -136 474 -136 z "},"r":{"ha":436,"x_min":50,"x_max":506,"o":"m 135 563 l 132 638 q 139 691 132 685 q 153 697 146 697 q 192 668 172 697 q 211 606 211 639 q 196 428 211 517 q 285 578 238 515 q 372 667 332 642 q 444 692 413 692 q 506 667 506 692 q 463 631 506 649 q 331 531 381 599 q 232 358 281 464 q 158 168 183 251 q 119 51 132 85 q 88 18 107 18 q 61 38 72 18 q 50 76 50 57 q 58 125 50 94 q 116 344 97 253 q 135 563 135 435 z "},"s":{"ha":561,"x_min":6,"x_max":538,"o":"m 419 697 q 501 651 464 697 q 538 578 538 604 q 521 553 538 553 q 472 583 504 553 q 406 614 440 614 q 296 566 371 614 q 221 471 221 518 q 314 378 221 438 q 392 324 353 353 q 485 188 485 254 q 414 72 485 121 q 249 24 343 24 q 80 71 154 24 q 6 156 6 118 q 13 176 6 168 q 31 185 21 185 q 67 164 42 185 q 231 103 146 103 q 394 189 394 103 q 353 263 394 226 q 264 326 313 300 q 174 393 215 353 q 133 475 133 433 q 238 622 133 547 q 419 697 343 697 z "},"t":{"ha":489,"x_min":49,"x_max":503,"o":"m 274 590 q 199 326 243 468 q 156 146 156 183 q 193 108 156 108 q 329 137 260 108 q 404 165 399 165 q 424 149 424 165 q 347 69 424 115 q 206 24 269 24 q 107 53 143 24 q 71 122 71 83 q 89 228 71 161 q 140 399 107 294 q 190 574 172 504 q 98 560 114 560 q 65 575 82 560 q 49 603 49 590 q 211 660 49 628 q 235 854 235 775 q 256 896 235 896 q 295 873 272 896 q 318 822 318 850 q 293 672 318 793 q 431 686 390 686 q 503 657 503 686 q 469 631 503 640 l 274 590 z "},"u":{"ha":665,"x_min":26,"x_max":619,"o":"m 546 675 q 567 697 546 697 q 601 672 583 697 q 619 618 619 646 q 468 82 619 610 q 429 24 451 24 q 399 69 399 24 q 444 260 399 115 q 315 87 388 150 q 178 24 242 24 q 70 73 114 24 q 26 181 26 122 q 65 392 26 267 q 151 608 103 518 q 226 697 199 697 q 253 681 242 697 q 265 649 265 665 q 227 557 265 633 q 150 372 189 481 q 111 174 111 264 q 131 120 111 142 q 181 99 151 99 q 331 206 250 99 q 467 439 413 314 q 544 667 521 561 q 546 675 546 672 z "},"v":{"ha":586,"x_min":78,"x_max":572,"o":"m 522 697 q 555 684 538 697 q 572 654 572 671 q 511 488 572 622 q 392 226 450 354 q 313 58 335 97 q 267 18 290 18 q 119 375 199 18 q 78 663 78 557 q 97 697 78 697 q 140 678 115 697 q 167 632 164 658 q 272 118 185 293 q 371 365 301 189 q 475 619 440 540 q 522 697 510 697 z "},"w":{"ha":907,"x_min":69,"x_max":903,"o":"m 563 567 l 556 299 q 569 96 556 163 q 692 267 640 174 q 767 435 743 360 q 808 576 792 511 q 838 677 825 640 q 869 714 851 714 q 903 640 903 714 q 836 408 903 565 q 690 134 769 250 q 560 18 611 18 q 531 26 540 18 q 508 61 521 33 q 485 297 485 117 q 493 603 485 478 q 304 157 375 296 q 193 18 233 18 q 163 31 175 18 q 91 319 113 81 q 69 653 69 557 q 103 710 69 710 q 147 635 133 710 q 159 421 154 594 q 197 96 164 247 q 319 364 256 201 q 424 616 383 526 q 497 706 465 706 q 548 674 533 706 q 563 567 563 642 z "},"x":{"ha":557,"x_min":-21,"x_max":578,"o":"m 419 146 q 435 123 419 146 q 467 77 451 100 q 482 45 482 54 q 474 30 482 36 q 456 24 465 24 q 256 267 406 24 q 54 38 93 68 q 26 24 38 24 q -3 39 14 24 q -21 65 -21 54 q 11 107 -21 75 q 215 333 136 236 q 57 671 57 611 q 61 692 57 686 q 84 697 65 697 q 131 683 103 697 q 158 650 158 669 q 263 394 158 583 q 469 658 432 618 q 526 697 507 697 q 561 684 544 697 q 578 659 578 671 q 570 638 578 647 q 543 612 563 629 q 505 574 524 594 q 456 517 486 554 q 383 425 425 479 l 303 325 q 335 274 314 307 q 371 216 356 240 q 419 146 386 192 z "},"y":{"ha":614,"x_min":-28,"x_max":631,"o":"m 576 697 q 613 673 594 697 q 631 628 631 649 q 618 569 631 608 q 576 444 606 529 q 521 289 546 358 q 445 80 496 219 q 364 -149 394 -60 q 182 -332 299 -332 q 42 -287 111 -332 q -28 -190 -28 -242 q -17 -162 -28 -178 q 3 -147 -6 -147 q 36 -176 11 -147 q 179 -265 110 -265 q 230 -242 206 -265 q 281 -157 254 -218 q 397 163 319 -71 q 193 24 303 24 q 86 73 129 24 q 43 196 43 122 q 81 394 43 269 q 167 608 119 519 q 242 697 214 697 q 269 681 256 697 q 282 648 282 665 q 244 554 282 631 q 167 370 206 478 q 128 174 128 263 q 148 120 128 142 q 197 99 168 99 q 305 156 249 99 q 408 303 361 213 q 551 656 493 469 q 565 695 558 693 q 576 697 571 697 z "},"z":{"ha":581,"x_min":7,"x_max":546,"o":"m 75 654 q 307 697 75 697 q 472 667 425 697 q 511 626 494 653 q 528 578 528 600 q 461 458 528 529 q 315 331 394 388 q 103 139 103 175 q 154 106 103 106 q 365 119 242 106 q 508 133 489 133 q 537 130 528 133 q 546 114 546 126 q 398 51 546 79 q 151 24 250 24 q 51 61 94 24 q 7 135 7 99 q 76 238 7 171 q 229 366 146 304 q 382 490 313 428 q 451 581 451 553 q 290 614 451 614 q 206 606 260 614 q 133 599 153 599 q 94 617 114 599 q 75 654 75 636 z "},"{":{"ha":554,"x_min":68,"x_max":679,"o":"m 263 947 q 337 1116 263 1047 q 498 1185 411 1185 q 632 1139 585 1185 q 679 1022 679 1093 q 664 956 679 985 q 629 926 649 926 q 614 962 614 926 q 612 1017 614 997 q 600 1058 610 1038 q 513 1099 582 1099 q 391 1048 443 1099 q 339 917 339 997 q 370 740 339 836 q 401 603 401 644 q 360 524 401 563 q 254 485 319 485 q 222 488 244 485 q 235 414 235 456 q 196 277 235 372 q 157 104 157 182 q 199 -9 157 26 q 319 -44 242 -44 q 396 -67 396 -44 q 361 -103 396 -89 q 279 -117 326 -117 q 128 -53 188 -117 q 68 90 68 11 q 116 278 68 169 q 164 456 164 388 q 140 518 164 475 q 100 572 100 544 q 115 600 100 600 q 163 576 124 600 q 238 553 201 553 q 299 576 274 553 q 325 631 325 599 q 294 768 325 664 q 263 947 263 872 z "},"|":{"ha":444,"x_min":72,"x_max":408,"o":"m 122 -165 q 115 -165 122 -165 q 90 -145 107 -165 q 72 -97 72 -125 q 199 463 72 -69 q 325 1074 325 994 q 329 1106 325 1097 q 350 1115 333 1115 q 388 1085 367 1115 q 408 1022 408 1056 q 274 411 408 947 q 224 203 263 368 q 122 -165 138 -165 z "},"}":{"ha":681,"x_min":113,"x_max":701,"o":"m 467 59 q 462 22 467 59 q 417 -65 457 -15 q 303 -115 376 -115 q 172 -78 231 -115 q 113 -6 113 -40 q 132 28 113 28 q 167 11 151 28 q 292 -42 210 -42 q 400 100 381 -42 q 415 226 410 161 q 483 447 429 393 q 408 507 438 468 q 379 590 379 546 q 416 684 379 633 q 497 776 453 735 q 578 873 542 818 q 615 981 615 928 q 574 1071 615 1033 q 486 1108 532 1108 q 412 1091 440 1108 q 367 1053 383 1074 q 311 996 325 996 q 282 1013 300 996 q 264 1040 264 1029 q 338 1137 264 1089 q 489 1185 413 1185 q 633 1123 565 1185 q 701 994 701 1061 q 664 864 701 926 q 581 758 626 801 q 460 589 460 642 q 521 508 460 536 q 582 492 549 497 q 617 482 615 486 q 619 475 619 478 q 582 435 619 447 q 483 210 497 401 q 467 59 478 133 z "},"~":{"ha":831,"x_min":117,"x_max":744,"o":"m 339 590 q 400 565 371 590 q 449 510 429 540 q 499 453 469 479 q 563 426 529 428 q 624 449 597 428 q 664 496 651 471 q 724 563 700 563 q 744 525 744 563 q 689 403 744 464 q 557 343 633 343 q 453 384 503 343 q 339 518 403 425 q 185 381 258 483 q 147 351 164 351 q 117 381 117 351 q 193 517 118 443 q 339 590 268 590 z "}," ":{"ha":569,"x_min":0,"x_max":0,"o":""},"¡":{"ha":439,"x_min":110,"x_max":401,"o":"m 401 725 q 401 713 401 725 q 383 676 401 700 q 344 651 364 651 q 297 714 325 651 q 268 808 268 776 q 277 821 268 814 q 294 828 286 828 q 363 789 325 828 q 401 725 401 750 m 190 -294 q 141 -276 172 -294 q 110 -243 110 -258 q 167 192 110 -111 q 256 496 225 496 q 280 482 269 496 q 290 457 290 468 q 281 404 290 446 q 259 294 272 363 q 233 142 246 225 q 201 -261 201 -56 q 190 -294 201 -294 z "},"¢":{"ha":622,"x_min":85,"x_max":600,"o":"m 489 699 q 569 647 539 689 q 600 581 600 606 q 584 556 600 556 q 531 587 568 556 q 468 619 494 618 q 338 113 363 207 q 460 147 401 119 q 531 174 518 174 q 550 151 550 174 q 467 80 550 125 q 314 29 383 35 q 267 -101 278 -101 q 247 -87 260 -101 q 235 -62 235 -72 q 253 32 235 -51 q 133 99 181 46 q 85 226 85 153 q 192 513 85 360 q 419 696 300 667 q 481 840 464 840 q 503 824 493 840 q 513 794 513 808 q 510 770 513 781 q 501 742 507 760 q 489 699 492 714 m 168 224 q 196 147 168 178 q 271 111 224 117 q 390 596 335 399 q 238 430 307 547 q 168 224 168 313 z "},"£":{"ha":857,"x_min":93,"x_max":899,"o":"m 813 717 l 821 765 q 757 832 821 832 q 666 770 711 832 q 560 532 621 708 q 760 522 746 532 q 765 514 765 519 q 535 460 765 468 q 439 197 485 310 q 492 147 474 163 q 592 96 549 96 q 667 113 635 96 q 717 153 700 131 q 785 208 760 208 q 825 170 825 208 q 751 76 825 132 q 610 21 676 21 q 403 122 513 21 q 343 44 372 65 q 266 24 314 24 q 156 81 218 24 q 93 196 93 139 q 133 287 93 253 q 238 321 172 321 q 379 254 303 321 q 450 458 413 343 q 300 482 300 461 q 315 517 300 499 q 344 535 331 535 q 472 532 394 535 q 622 850 551 779 q 690 899 660 886 q 773 911 721 911 q 862 873 825 911 q 899 778 899 835 q 873 724 899 750 q 830 699 847 699 q 813 717 813 699 m 211 133 q 228 115 211 133 q 275 97 244 97 q 346 178 306 97 q 242 247 274 247 q 178 194 178 247 q 211 133 178 168 z "},"¤":{"ha":833,"x_min":154,"x_max":714,"o":"m 615 585 q 647 469 647 532 q 558 247 647 339 q 581 215 568 233 q 601 186 594 196 q 614 164 607 176 q 628 135 628 144 q 619 121 628 126 q 603 115 611 115 q 501 203 568 115 q 398 175 454 175 q 299 206 342 175 q 203 115 221 115 q 170 129 186 115 q 154 151 154 143 q 158 165 154 160 q 171 181 161 171 q 189 201 181 192 q 246 258 197 210 q 207 390 207 314 q 278 585 207 499 q 221 716 221 696 q 243 736 221 736 q 290 725 265 736 q 317 694 315 714 q 333 638 319 675 q 452 676 390 676 q 563 643 514 676 q 667 736 636 736 q 698 724 682 736 q 714 699 714 711 q 615 585 714 686 m 407 240 q 525 308 478 240 q 572 446 572 376 q 535 561 572 515 q 446 607 497 607 q 328 538 375 607 q 281 399 281 468 q 319 285 281 331 q 407 240 357 240 z "},"¥":{"ha":743,"x_min":51,"x_max":779,"o":"m 472 486 q 597 461 597 486 q 551 431 597 442 q 369 408 506 419 q 353 321 367 386 q 479 325 428 325 q 585 303 585 325 q 536 269 585 282 q 333 243 499 260 l 333 242 q 315 168 325 208 q 299 106 304 128 q 289 63 294 83 q 267 24 276 24 q 234 42 251 24 q 217 92 217 61 q 250 235 217 122 q 82 226 167 226 q 61 242 71 226 q 51 271 51 258 q 271 317 51 300 q 288 401 282 360 q 101 392 161 392 q 81 403 92 392 q 71 432 71 415 q 289 479 71 463 q 186 683 242 551 q 131 878 131 815 q 151 900 131 900 q 193 886 172 900 q 219 860 214 872 q 262 728 225 847 q 347 526 299 608 q 561 763 422 626 q 740 900 700 900 q 766 889 753 900 q 779 867 779 878 q 714 792 779 857 q 549 632 649 728 q 401 485 450 536 q 472 486 428 486 z "},"¦":{"ha":447,"x_min":74,"x_max":410,"o":"m 299 597 q 267 617 285 597 q 250 665 250 638 q 288 844 250 693 q 326 1074 326 994 q 331 1106 326 1097 q 353 1115 336 1115 q 390 1085 369 1115 q 410 1013 410 1056 q 365 784 410 971 q 299 597 321 597 m 122 -165 q 91 -145 108 -165 q 74 -97 74 -125 q 112 81 74 -69 q 150 311 150 232 q 155 344 150 335 q 176 353 160 353 q 213 323 193 353 q 233 251 233 293 q 188 22 233 210 q 122 -165 143 -165 z "},"§":{"ha":596,"x_min":8,"x_max":557,"o":"m 449 1013 q 525 964 493 1013 q 557 867 557 915 q 533 818 557 818 q 492 875 506 818 q 471 913 486 896 q 433 931 456 931 q 345 894 388 931 q 303 820 303 858 q 338 734 303 782 q 416 645 374 686 q 494 543 458 604 q 529 421 529 482 q 469 296 529 360 q 321 213 408 232 q 393 58 393 135 q 335 -74 393 -19 q 186 -129 278 -129 q 65 -81 121 -129 q 8 4 8 -33 q 20 42 8 22 q 41 63 32 63 q 56 56 50 63 q 72 32 63 50 q 179 -49 111 -49 q 303 65 303 -49 q 266 150 303 104 q 185 233 229 196 q 105 322 142 269 q 68 422 68 374 q 137 569 68 500 q 288 671 206 639 q 218 822 218 756 q 292 951 218 889 q 449 1013 365 1013 m 388 551 q 332 618 369 575 q 154 419 154 539 q 204 325 154 378 q 243 288 224 306 q 267 267 263 271 q 390 321 336 269 q 443 426 443 372 q 388 551 443 479 z "},"¨":{"ha":333,"x_min":14,"x_max":319,"o":"m 203 1099 q 203 1110 203 1099 q 218 1140 203 1121 q 252 1158 233 1158 q 295 1112 271 1158 q 319 1046 319 1065 q 297 1011 319 1011 q 236 1044 269 1011 q 203 1099 203 1076 m 14 1099 q 14 1110 14 1099 q 29 1140 14 1121 q 63 1158 44 1158 q 106 1112 82 1158 q 131 1046 131 1065 q 108 1011 131 1011 q 47 1044 81 1011 q 14 1099 14 1076 z "},"©":{"ha":983,"x_min":125,"x_max":978,"o":"m 978 561 q 831 219 978 356 q 469 83 685 83 q 215 181 306 83 q 125 429 125 278 q 278 767 125 618 q 621 917 432 917 q 881 816 783 917 q 978 561 978 715 m 450 142 q 777 255 657 142 q 897 575 897 368 q 827 777 897 697 q 656 857 757 857 q 356 739 499 857 q 244 594 288 683 q 201 392 201 506 q 270 210 201 279 q 450 142 339 142 m 649 767 q 692 745 671 767 q 714 705 714 724 q 699 686 714 686 q 674 692 690 686 q 646 699 657 699 q 497 594 586 699 q 408 388 408 489 q 433 335 408 357 q 496 314 458 314 q 573 330 533 314 q 639 362 613 346 q 675 378 665 378 q 693 357 693 378 q 622 286 693 329 q 491 243 550 243 q 384 288 432 243 q 336 397 336 333 q 383 550 336 461 q 506 703 431 639 q 649 767 581 767 z "},"ª":{"ha":611,"x_min":111,"x_max":539,"o":"m 436 729 l 436 747 q 347 657 397 692 q 244 622 296 622 q 151 666 192 622 q 111 770 111 710 q 147 911 111 831 q 251 1055 183 992 q 386 1118 318 1118 q 497 1070 454 1118 q 539 986 539 1022 q 533 951 539 974 l 533 946 q 517 858 533 925 q 500 706 500 790 q 478 622 500 622 q 449 655 461 622 q 436 729 436 688 m 475 963 q 452 1017 475 988 q 396 1046 429 1046 q 251 949 318 1046 q 185 763 185 851 q 249 693 185 693 q 375 769 313 693 q 475 958 438 844 l 475 963 z "},"«":{"ha":1086,"x_min":69,"x_max":1054,"o":"m 999 658 q 1040 647 1025 658 q 1054 626 1054 635 q 1047 611 1054 617 q 1028 600 1040 606 q 1006 592 1015 594 q 604 464 678 504 q 569 431 569 446 q 774 334 569 408 q 979 240 979 260 q 939 219 979 219 q 667 299 864 219 q 471 425 471 379 q 488 467 471 443 q 522 504 504 492 q 757 603 581 549 q 999 658 933 658 m 568 688 q 609 676 594 688 q 624 658 624 665 q 622 647 624 650 q 617 640 621 643 q 612 635 614 638 q 603 631 610 633 q 594 628 597 629 q 582 624 590 626 q 571 621 574 622 q 301 521 435 578 q 168 432 168 464 q 364 322 168 408 q 560 217 560 235 q 510 194 560 194 q 265 287 461 194 q 69 422 69 379 q 86 466 69 440 q 119 504 103 492 q 346 620 182 553 q 568 688 510 688 z "},"¬":{"ha":689,"x_min":-28,"x_max":714,"o":"m 554 569 l 113 569 q 14 590 56 569 q -28 633 -28 610 q -7 656 -28 656 q 44 653 -1 656 q 395 647 179 647 q 653 633 611 647 q 714 518 714 613 q 669 367 714 464 q 567 194 624 269 q 486 119 511 119 q 461 138 461 119 q 501 217 461 150 q 624 528 624 422 q 554 569 624 569 z "},"­":{"ha":833,"x_min":76,"x_max":531,"o":"m 531 450 q 497 424 531 433 q 303 383 463 414 q 127 351 143 351 q 94 367 111 351 q 76 394 76 382 q 230 449 76 421 q 457 478 383 478 q 531 450 531 478 z "},"®":{"ha":757,"x_min":104,"x_max":653,"o":"m 104 693 q 203 910 104 814 q 415 1006 301 1006 q 590 941 528 1006 q 653 776 653 876 q 559 557 653 644 q 326 469 465 469 q 162 532 219 469 q 104 693 104 594 m 314 507 q 524 580 446 507 q 601 786 601 653 q 556 915 601 864 q 447 967 511 967 q 247 886 340 967 q 154 674 154 806 q 198 551 154 594 q 314 507 242 507 m 492 831 q 361 719 492 761 q 384 692 361 714 q 420 658 407 669 q 444 640 433 647 q 458 628 454 632 q 481 599 481 606 q 463 586 481 586 q 397 626 446 586 q 328 700 349 667 q 288 586 303 586 q 274 594 281 586 q 267 614 267 603 q 292 717 267 625 q 321 844 317 810 q 311 865 311 854 q 340 886 311 876 q 403 896 369 896 q 465 879 438 896 q 492 831 492 863 m 360 843 q 339 743 360 825 q 365 755 344 746 q 397 770 385 764 q 422 786 408 776 q 453 833 453 808 q 407 857 453 857 q 360 847 382 857 l 360 843 z "},"¯":{"ha":499,"x_min":14,"x_max":485,"o":"m 485 864 q 445 840 485 847 q 319 827 406 833 q 189 817 232 821 q 86 807 111 807 q 38 826 61 807 q 14 863 14 846 q 190 892 14 892 q 425 888 365 892 q 485 864 485 883 z "},"°":{"ha":410,"x_min":103,"x_max":458,"o":"m 254 672 q 341 728 307 672 q 375 833 375 785 q 356 908 375 882 q 307 933 338 933 q 219 876 254 933 q 185 770 185 818 q 204 697 185 722 q 254 672 224 672 m 103 754 q 169 925 103 843 q 325 1007 235 1007 q 422 964 385 1007 q 458 844 458 921 q 393 685 458 767 q 236 603 328 603 q 140 646 176 603 q 103 754 103 689 z "},"±":{"ha":833,"x_min":110,"x_max":797,"o":"m 797 640 q 706 599 797 619 q 478 565 614 579 q 453 433 467 510 q 433 328 440 357 q 407 278 421 278 q 381 297 393 278 q 368 335 368 317 q 401 558 368 353 q 190 550 293 550 q 141 571 164 550 q 118 613 118 592 q 153 639 118 639 q 291 636 243 636 q 414 639 339 636 q 440 856 440 813 q 461 900 440 900 q 503 874 476 900 q 529 827 529 847 q 494 644 529 807 q 585 656 533 649 q 745 668 693 668 q 797 640 797 668 m 686 201 q 743 185 743 201 q 667 144 743 163 q 486 117 592 126 q 167 99 269 99 q 128 120 146 99 q 110 158 110 142 q 129 175 110 175 q 476 188 288 175 q 686 201 665 201 z "},"²":{"ha":407,"x_min":76,"x_max":399,"o":"m 157 571 q 354 599 342 599 q 394 578 394 599 q 293 532 394 554 q 155 510 192 510 q 97 526 118 510 q 76 560 76 542 q 117 613 76 579 q 205 682 157 646 q 293 772 253 718 q 333 878 333 826 q 282 943 333 943 q 219 916 250 943 q 181 889 188 889 q 158 899 174 889 q 142 921 142 910 q 185 975 142 944 q 279 1006 229 1006 q 364 970 329 1006 q 399 882 399 935 q 336 725 399 799 q 157 571 274 651 z "},"³":{"ha":440,"x_min":86,"x_max":435,"o":"m 178 750 q 275 817 178 776 q 341 858 311 832 q 371 915 371 883 q 336 946 371 946 q 262 924 301 946 q 211 901 222 901 q 187 913 200 901 q 174 938 174 925 q 227 984 174 961 q 326 1007 281 1007 q 403 976 372 1007 q 435 904 435 944 q 394 828 435 864 q 297 764 354 792 q 394 730 357 754 q 431 669 431 706 q 343 558 431 604 q 171 511 256 511 q 86 538 86 511 q 221 581 86 557 q 313 613 271 590 q 356 668 356 636 q 267 713 356 693 q 178 749 178 733 l 178 750 z "},"´":{"ha":268,"x_min":14,"x_max":254,"o":"m 39 921 q 35 921 39 921 q 22 928 31 921 q 14 945 14 935 q 17 963 14 956 q 28 981 19 969 q 44 1000 38 992 q 91 1048 68 1025 q 130 1089 114 1071 q 155 1117 146 1107 q 175 1138 164 1126 q 213 1158 197 1158 q 241 1138 228 1158 q 254 1106 254 1118 q 253 1088 254 1093 q 247 1075 251 1082 q 237 1063 242 1068 q 222 1050 232 1058 q 203 1036 211 1042 q 158 1000 175 1013 q 130 978 142 988 q 112 963 118 968 q 97 951 106 958 q 83 941 88 944 q 73 933 79 938 q 63 928 67 929 q 56 925 60 926 q 39 921 47 921 z "},"µ":{"ha":900,"x_min":35,"x_max":831,"o":"m 751 643 q 755 662 751 643 q 763 689 758 681 q 781 697 767 697 q 813 672 796 697 q 831 625 831 647 q 679 82 831 603 q 639 24 663 24 q 610 67 610 24 q 651 249 610 111 q 388 24 522 24 q 306 54 338 24 q 272 131 275 85 q 201 -33 251 86 q 119 -215 150 -153 q 74 -278 89 -278 q 47 -267 60 -278 q 35 -246 35 -257 q 56 -183 35 -235 q 126 -10 76 -131 q 214 215 175 111 q 294 447 253 318 q 359 637 336 576 q 396 697 382 697 q 428 687 410 697 q 446 667 446 676 q 415 563 446 644 q 324 174 324 317 q 344 120 324 142 q 393 99 364 99 q 513 168 449 99 q 626 333 576 238 q 710 517 675 428 q 751 643 744 606 z "},"¶":{"ha":671,"x_min":88,"x_max":672,"o":"m 336 563 q 216 514 271 514 q 124 555 161 514 q 88 642 88 596 q 156 864 88 740 q 317 1036 224 988 q 434 1067 350 1054 q 559 1081 518 1081 q 617 1074 600 1081 q 653 1041 635 1067 q 672 988 672 1015 q 528 188 671 725 q 463 24 485 24 q 434 38 450 24 q 418 67 418 53 q 458 236 418 82 q 542 617 497 390 q 596 1022 586 843 q 471 999 579 1017 q 472 985 472 994 q 329 188 471 722 q 263 24 286 24 q 234 39 250 24 q 218 67 218 54 q 242 169 218 81 q 336 563 319 468 z "},"·":{"ha":329,"x_min":94,"x_max":231,"o":"m 203 347 q 133 387 172 347 q 94 452 94 426 q 113 501 94 478 q 152 525 132 525 q 201 463 172 525 q 231 368 231 400 q 221 355 231 363 q 203 347 211 347 z "},"¸":{"ha":313,"x_min":14,"x_max":299,"o":"m 175 -100 q 259 -122 219 -100 q 299 -174 299 -144 q 253 -247 299 -217 q 56 -299 175 -299 q 14 -275 14 -299 q 53 -251 14 -258 q 141 -231 92 -244 q 208 -186 190 -217 q 142 -160 203 -172 q 82 -133 82 -149 q 106 -67 82 -118 q 138 8 129 -17 q 176 38 146 38 q 206 5 206 38 q 164 -100 206 -28 l 175 -100 z "},"¹":{"ha":208,"x_min":115,"x_max":233,"o":"m 168 979 q 182 1008 168 1008 q 215 990 196 1008 q 233 960 233 972 q 183 578 233 836 q 150 507 168 507 q 127 522 139 507 q 115 547 115 536 q 142 718 115 557 q 168 979 168 879 z "},"º":{"ha":628,"x_min":132,"x_max":535,"o":"m 207 826 q 226 744 207 782 q 272 689 244 707 q 412 759 365 701 q 458 903 458 817 q 379 1057 458 1017 q 249 972 292 1036 q 207 826 207 908 m 378 1118 q 493 1052 451 1118 q 535 894 535 986 q 462 715 535 803 q 278 628 389 628 q 173 692 214 628 q 132 849 132 757 q 203 1030 132 942 q 378 1118 274 1118 z "},"»":{"ha":1157,"x_min":113,"x_max":1022,"o":"m 578 646 q 592 672 578 656 q 621 688 607 688 q 766 646 671 686 q 942 544 861 606 q 1022 435 1022 483 q 1006 393 1022 413 q 781 272 960 351 q 539 192 601 192 q 510 206 510 192 q 720 328 510 226 q 931 443 931 429 q 824 535 931 476 q 648 613 718 593 q 578 646 578 632 m 176 615 q 192 642 176 625 q 222 658 208 658 q 367 625 271 657 q 547 540 463 593 q 632 439 632 486 q 528 351 632 408 q 306 249 425 293 q 150 206 188 206 q 113 221 113 206 q 324 334 113 242 q 536 449 536 426 q 435 522 536 481 q 255 581 333 563 q 176 615 176 600 z "},"¼":{"ha":1057,"x_min":96,"x_max":925,"o":"m 875 458 q 906 437 886 458 q 925 397 925 415 q 876 135 925 297 q 794 -26 828 -26 q 774 -15 782 -26 q 767 10 767 -3 q 775 51 767 24 q 825 221 814 169 q 673 182 735 182 q 577 216 611 182 q 543 304 543 250 q 598 451 543 358 q 713 614 653 544 q 789 683 774 683 q 817 672 804 683 q 829 647 829 660 q 775 572 829 635 q 617 307 617 383 q 667 251 617 251 q 771 274 713 251 q 839 300 829 297 q 847 425 847 356 q 875 458 847 458 m 788 1025 q 792 1025 788 1025 q 808 1000 796 1025 q 821 949 821 975 q 759 838 821 924 q 597 624 697 751 q 450 426 497 497 q 190 43 238 110 q 126 -24 142 -24 q 108 -6 119 -24 q 96 22 96 11 q 235 258 96 53 q 565 730 375 464 q 760 1002 756 996 q 766 1011 764 1008 q 771 1017 768 1014 q 775 1022 774 1021 q 788 1025 781 1025 m 222 397 q 191 415 208 399 q 174 441 174 431 q 208 656 174 451 q 242 993 242 861 q 258 1021 242 1021 q 297 1002 275 1021 q 318 968 318 983 q 301 767 317 864 q 278 631 285 671 q 269 568 272 592 q 260 514 265 544 q 250 465 254 483 q 242 431 246 447 q 222 397 232 397 z "},"½":{"ha":1039,"x_min":61,"x_max":897,"o":"m 844 82 q 893 61 893 82 q 763 6 893 35 q 569 -22 633 -22 q 516 -3 542 -22 q 490 38 490 17 q 524 88 490 58 q 607 153 558 117 q 703 234 656 190 q 785 335 751 278 q 819 439 819 392 q 801 510 819 486 q 753 535 783 535 q 697 517 724 535 q 651 483 669 500 q 621 467 632 467 q 592 476 610 467 q 575 500 575 486 q 633 568 575 529 q 751 607 692 607 q 853 562 810 607 q 897 453 897 517 q 812 245 897 342 q 565 42 726 149 q 661 56 594 46 q 844 82 825 82 m 753 1025 q 757 1025 753 1025 q 774 1000 761 1025 q 786 949 786 975 q 724 838 786 924 q 563 624 663 751 q 415 426 463 497 q 155 43 203 110 q 92 -24 107 -24 q 73 -6 85 -24 q 61 22 61 11 q 201 258 61 53 q 531 730 340 464 q 725 1002 721 996 q 731 1011 729 1008 q 736 1017 733 1014 q 742 1022 739 1021 q 753 1025 744 1025 m 188 397 q 156 415 174 399 q 139 446 139 431 q 156 551 139 461 q 207 993 207 815 q 224 1021 207 1021 q 262 1002 240 1021 q 283 968 283 983 q 253 696 279 843 q 203 420 214 443 q 188 397 193 397 z "},"¾":{"ha":1151,"x_min":115,"x_max":1057,"o":"m 1007 458 q 1038 437 1019 458 q 1057 397 1057 415 q 1008 136 1057 299 q 926 -26 958 -26 q 906 -15 914 -26 q 899 10 899 -3 q 908 51 899 24 q 958 222 944 164 q 807 182 871 182 q 709 216 743 182 q 675 304 675 250 q 730 451 675 358 q 845 614 785 544 q 922 683 906 683 q 949 672 938 683 q 961 647 961 660 q 908 572 961 635 q 749 307 749 381 q 799 251 749 251 q 904 274 846 251 q 972 300 963 297 q 981 425 981 356 q 1007 458 981 458 m 922 1025 q 925 1025 922 1025 q 942 1000 929 1025 q 954 949 954 975 q 892 838 954 924 q 731 624 831 751 q 583 426 631 497 q 323 43 371 110 q 260 -24 275 -24 q 241 -6 253 -24 q 229 22 229 11 q 369 258 229 53 q 699 730 508 464 q 893 1002 889 996 q 899 1011 897 1008 q 904 1017 901 1014 q 908 1022 907 1021 q 922 1025 914 1025 m 550 661 q 439 523 550 582 q 222 464 328 464 q 115 496 115 464 q 169 518 115 507 q 289 540 224 529 q 408 584 354 551 q 463 664 463 617 q 405 708 463 693 q 290 733 347 724 q 232 758 232 743 q 236 775 232 764 q 280 808 240 786 q 364 849 319 829 q 444 903 408 869 q 481 975 481 938 q 425 1022 481 1022 q 335 994 386 1022 q 271 965 285 965 q 242 978 257 965 q 228 1006 228 992 q 295 1061 228 1032 q 419 1090 363 1090 q 516 1051 476 1090 q 556 964 556 1013 q 498 865 556 915 q 365 781 440 814 q 499 738 447 769 q 550 661 550 707 z "},"¿":{"ha":515,"x_min":-1,"x_max":475,"o":"m 368 828 q 437 789 399 828 q 475 724 475 750 q 457 675 475 699 q 419 651 439 651 q 370 714 399 651 q 342 808 342 776 q 351 821 342 814 q 368 828 360 828 m 424 -76 q 360 -207 424 -150 q 210 -264 296 -264 q 61 -207 124 -264 q -1 -56 -1 -150 q 38 61 -1 -3 q 128 175 78 125 q 294 387 265 315 q 334 476 324 458 q 357 494 344 494 q 385 439 385 494 q 354 331 385 383 q 280 231 324 279 q 192 136 236 183 q 86 -60 86 24 q 124 -147 86 -112 q 213 -182 161 -182 q 303 -150 264 -182 q 342 -71 342 -118 q 336 -44 342 -56 q 331 -23 331 -32 q 345 -8 331 -14 q 373 -1 360 -1 q 405 -28 386 -1 q 424 -76 424 -56 z "},"À":{"ha":828,"x_min":65,"x_max":768,"o":"m 510 1003 q 581 865 549 1003 q 636 529 614 728 q 734 542 700 542 q 768 513 768 542 q 643 458 768 494 q 661 153 661 282 q 628 24 661 24 q 582 133 588 24 q 561 436 574 296 q 260 356 332 375 q 128 44 142 65 q 110 24 114 24 q 79 44 93 24 q 65 90 65 64 q 164 329 65 100 q 122 322 132 322 q 67 357 67 322 q 203 421 67 379 q 403 886 364 807 q 459 984 442 965 q 510 1003 476 1003 m 299 450 q 554 513 454 492 q 492 896 529 740 q 299 450 390 674 m 382 1231 q 379 1234 382 1231 q 374 1243 376 1238 q 372 1261 372 1249 q 388 1293 372 1274 q 416 1313 403 1313 q 435 1309 429 1313 q 451 1297 442 1306 q 467 1280 460 1289 q 490 1255 475 1271 q 515 1226 504 1239 q 538 1201 526 1214 q 557 1182 550 1189 q 572 1166 564 1175 q 585 1152 581 1157 q 593 1142 589 1147 q 599 1133 597 1136 q 603 1125 601 1129 q 607 1109 607 1118 q 598 1092 607 1100 q 579 1083 589 1083 q 556 1092 569 1083 q 515 1123 542 1101 q 477 1153 489 1144 q 450 1174 465 1163 q 427 1191 435 1185 q 408 1206 419 1197 q 392 1219 397 1214 q 382 1231 388 1225 z "},"Á":{"ha":828,"x_min":65,"x_max":768,"o":"m 510 1003 q 581 865 549 1003 q 636 529 614 728 q 734 542 700 542 q 768 513 768 542 q 643 458 768 494 q 661 153 661 282 q 628 24 661 24 q 582 133 588 24 q 561 436 574 296 q 260 356 332 375 q 128 44 142 65 q 110 24 114 24 q 79 44 93 24 q 65 90 65 64 q 164 329 65 100 q 122 322 132 322 q 67 357 67 322 q 203 421 67 379 q 403 886 364 807 q 459 984 442 965 q 510 1003 476 1003 m 299 450 q 554 513 454 492 q 492 896 529 740 q 299 450 390 674 m 559 1087 q 557 1086 559 1087 q 551 1084 554 1085 q 542 1083 549 1083 q 526 1090 535 1083 q 518 1108 518 1097 q 521 1125 518 1118 q 533 1143 524 1132 q 550 1163 542 1154 q 595 1210 572 1188 q 634 1251 618 1233 q 659 1279 650 1269 q 681 1300 668 1289 q 717 1321 701 1321 q 745 1301 732 1321 q 758 1268 758 1281 q 757 1250 758 1256 q 751 1238 756 1244 q 741 1226 746 1231 q 726 1213 736 1221 q 708 1197 715 1204 q 663 1163 679 1175 q 634 1140 646 1150 q 616 1126 622 1131 q 601 1114 610 1121 q 588 1103 592 1107 q 577 1096 583 1100 q 567 1090 571 1092 q 559 1087 564 1089 z "},"Â":{"ha":828,"x_min":65,"x_max":768,"o":"m 510 1003 q 581 865 549 1003 q 636 529 614 728 q 734 542 700 542 q 768 513 768 542 q 643 458 768 494 q 661 153 661 282 q 628 24 661 24 q 582 133 588 24 q 561 436 574 296 q 260 356 332 375 q 128 44 142 65 q 110 24 114 24 q 79 44 93 24 q 65 90 65 64 q 164 329 65 100 q 122 322 132 322 q 67 357 67 322 q 203 421 67 379 q 403 886 364 807 q 459 984 442 965 q 510 1003 476 1003 m 299 450 q 554 513 454 492 q 492 896 529 740 q 299 450 390 674 m 481 1176 q 458 1158 481 1176 q 403 1117 435 1140 q 356 1094 372 1094 q 329 1103 340 1094 q 318 1132 318 1111 q 339 1174 318 1153 q 394 1215 360 1196 q 450 1249 428 1235 q 486 1271 472 1263 q 516 1288 500 1279 q 544 1300 532 1296 q 563 1304 556 1304 q 575 1303 569 1304 q 585 1300 581 1301 q 596 1294 590 1299 q 605 1288 601 1290 q 615 1279 608 1286 q 624 1269 621 1272 q 647 1240 643 1244 q 740 1105 740 1129 q 714 1081 740 1081 q 667 1100 688 1081 q 610 1171 646 1119 q 567 1232 574 1222 q 481 1176 528 1211 z "},"Ã":{"ha":828,"x_min":65,"x_max":772,"o":"m 510 1003 q 581 865 549 1003 q 636 529 614 728 q 734 542 700 542 q 768 513 768 542 q 643 458 768 494 q 661 153 661 282 q 628 24 661 24 q 582 133 588 24 q 561 436 574 296 q 260 356 332 375 q 128 44 142 65 q 110 24 114 24 q 79 44 93 24 q 65 90 65 64 q 164 329 65 100 q 122 322 132 322 q 67 357 67 322 q 203 421 67 379 q 403 886 364 807 q 459 984 442 965 q 510 1003 476 1003 m 299 450 q 554 513 454 492 q 492 896 529 740 q 299 450 390 674 m 382 1088 q 351 1117 351 1088 q 402 1211 351 1161 q 503 1261 453 1261 q 586 1210 556 1261 q 646 1156 618 1158 q 679 1171 664 1157 q 703 1200 694 1185 q 749 1243 725 1243 q 772 1205 772 1243 q 734 1124 772 1167 q 643 1082 696 1082 q 499 1192 576 1082 q 447 1151 469 1178 q 410 1106 425 1125 q 382 1088 396 1088 z "},"Ä":{"ha":828,"x_min":65,"x_max":768,"o":"m 510 1003 q 581 865 549 1003 q 636 529 614 728 q 734 542 700 542 q 768 513 768 542 q 643 458 768 494 q 661 153 661 282 q 628 24 661 24 q 582 133 588 24 q 561 436 574 296 q 260 356 332 375 q 128 44 142 65 q 110 24 114 24 q 79 44 93 24 q 65 90 65 64 q 164 329 65 100 q 122 322 132 322 q 67 357 67 322 q 203 421 67 379 q 403 886 364 807 q 459 984 442 965 q 510 1003 476 1003 m 299 450 q 554 513 454 492 q 492 896 529 740 q 299 450 390 674 m 489 1110 q 428 1142 461 1110 q 394 1197 394 1175 q 410 1238 394 1219 q 444 1257 425 1257 q 487 1210 463 1257 q 511 1144 511 1164 q 489 1110 511 1110 m 678 1110 q 617 1142 650 1110 q 583 1197 583 1175 q 599 1238 583 1219 q 633 1257 614 1257 q 676 1210 651 1257 q 700 1144 700 1164 q 678 1110 700 1110 z "},"Å":{"ha":828,"x_min":65,"x_max":768,"o":"m 510 1003 q 581 865 549 1003 q 636 529 614 728 q 734 542 700 542 q 768 513 768 542 q 643 458 768 494 q 661 153 661 282 q 628 24 661 24 q 582 133 588 24 q 561 436 574 296 q 260 356 332 375 q 128 44 142 65 q 110 24 114 24 q 79 44 93 24 q 65 90 65 64 q 164 329 65 100 q 122 322 132 322 q 67 357 67 322 q 203 421 67 379 q 403 886 364 807 q 459 984 442 965 q 510 1003 476 1003 m 299 450 q 554 513 454 492 q 492 896 529 740 q 299 450 390 674 m 674 1201 q 674 1177 674 1201 q 638 1107 674 1153 q 556 1061 601 1061 q 483 1092 510 1061 q 456 1172 456 1124 q 492 1265 456 1219 q 574 1311 528 1311 q 647 1280 619 1311 q 674 1201 674 1249 m 608 1190 q 608 1204 608 1190 q 598 1233 608 1218 q 569 1249 588 1249 q 535 1227 551 1249 q 519 1178 519 1206 q 530 1136 519 1151 q 558 1121 540 1121 q 592 1142 576 1121 q 608 1190 608 1163 z "},"Æ":{"ha":1103,"x_min":14,"x_max":1075,"o":"m 233 392 l 229 392 q 183 280 211 349 q 138 174 154 211 q 103 94 122 136 q 51 17 68 17 q 14 69 14 17 q 37 135 14 82 q 106 292 60 188 q 230 592 151 397 q 351 878 308 786 q 464 940 374 924 q 711 956 554 956 q 950 952 868 956 q 1053 942 1032 949 q 1075 925 1075 936 q 796 889 1075 889 l 724 889 q 725 863 725 881 q 654 517 725 761 q 931 540 860 540 q 978 507 978 540 q 901 479 978 492 q 633 444 825 467 q 554 150 554 176 q 567 112 554 124 q 600 100 581 100 q 968 156 776 100 q 1043 174 1033 174 q 1060 149 1060 174 q 906 64 1060 111 q 624 17 753 17 q 514 49 560 17 q 468 126 468 82 q 543 435 468 193 q 312 403 379 414 q 233 392 244 392 m 565 506 q 643 888 643 756 q 438 861 457 883 q 257 458 424 847 q 565 506 346 478 z "},"Ç":{"ha":818,"x_min":113,"x_max":778,"o":"m 344 -50 q 428 -72 389 -50 q 468 -124 468 -94 q 422 -197 468 -167 q 225 -249 344 -249 q 183 -225 183 -249 q 222 -201 183 -208 q 310 -181 261 -194 q 378 -136 360 -167 q 312 -110 372 -122 q 251 -83 251 -99 q 273 -23 251 -69 q 303 46 294 24 q 167 136 222 69 q 113 293 113 203 q 165 505 113 383 q 297 730 218 626 q 480 904 376 833 q 676 975 583 975 q 744 942 711 975 q 778 887 778 908 q 770 865 778 865 q 732 878 763 865 q 674 890 701 890 q 538 834 619 890 q 383 693 457 778 q 255 497 308 608 q 201 297 201 385 q 255 167 201 210 q 386 124 308 124 q 540 155 464 124 q 663 217 615 186 q 719 247 710 247 q 735 241 729 247 q 740 228 740 235 q 682 158 740 204 q 535 74 624 113 q 376 35 446 35 l 371 35 q 333 -50 361 -3 l 344 -50 z "},"È":{"ha":839,"x_min":115,"x_max":850,"o":"m 300 929 q 594 974 338 974 q 850 947 850 974 q 801 920 850 928 q 679 907 751 913 q 574 899 589 900 q 531 897 560 899 q 441 886 503 894 q 372 876 379 878 l 372 863 q 310 544 372 768 l 353 543 q 503 550 425 543 q 628 557 582 557 q 675 544 675 557 q 303 472 675 472 q 289 474 293 472 q 201 144 201 199 q 215 112 201 124 q 247 100 228 100 q 615 156 424 100 q 690 174 681 174 q 707 149 707 174 q 553 64 707 111 q 271 17 400 17 q 161 49 207 17 q 115 126 115 82 q 159 330 115 190 q 247 626 203 469 q 290 890 290 783 q 295 923 290 918 q 300 929 300 928 m 454 1231 q 451 1234 454 1231 q 447 1243 449 1238 q 444 1261 444 1249 q 460 1293 444 1274 q 488 1313 475 1313 q 508 1309 501 1313 q 523 1297 514 1306 q 540 1280 532 1289 q 562 1255 547 1271 q 588 1226 576 1239 q 610 1201 599 1214 q 629 1182 622 1189 q 644 1166 636 1175 q 657 1152 653 1157 q 665 1142 661 1147 q 672 1133 669 1136 q 675 1125 674 1129 q 679 1109 679 1118 q 670 1092 679 1100 q 651 1083 661 1083 q 628 1092 642 1083 q 588 1123 614 1101 q 549 1153 561 1144 q 522 1174 538 1163 q 499 1191 507 1185 q 481 1206 492 1197 q 465 1219 469 1214 q 454 1231 460 1225 z "},"É":{"ha":839,"x_min":115,"x_max":850,"o":"m 300 929 q 594 974 338 974 q 850 947 850 974 q 801 920 850 928 q 679 907 751 913 q 574 899 589 900 q 531 897 560 899 q 441 886 503 894 q 372 876 379 878 l 372 863 q 310 544 372 768 l 353 543 q 503 550 425 543 q 628 557 582 557 q 675 544 675 557 q 303 472 675 472 q 289 474 293 472 q 201 144 201 199 q 215 112 201 124 q 247 100 228 100 q 615 156 424 100 q 690 174 681 174 q 707 149 707 174 q 553 64 707 111 q 271 17 400 17 q 161 49 207 17 q 115 126 115 82 q 159 330 115 190 q 247 626 203 469 q 290 890 290 783 q 295 923 290 918 q 300 929 300 928 m 631 1087 q 629 1086 631 1087 q 624 1084 626 1085 q 614 1083 621 1083 q 599 1090 607 1083 q 590 1108 590 1097 q 593 1125 590 1118 q 605 1143 596 1132 q 622 1163 614 1154 q 667 1210 644 1188 q 706 1251 690 1233 q 731 1279 722 1269 q 753 1300 740 1289 q 789 1321 774 1321 q 817 1301 804 1321 q 831 1268 831 1281 q 829 1250 831 1256 q 823 1238 828 1244 q 813 1226 818 1231 q 798 1213 808 1221 q 781 1197 788 1204 q 735 1163 751 1175 q 706 1140 718 1150 q 688 1126 694 1131 q 673 1114 682 1121 q 660 1103 664 1107 q 649 1096 656 1100 q 640 1090 643 1092 q 631 1087 636 1089 z "},"Ê":{"ha":839,"x_min":115,"x_max":850,"o":"m 300 929 q 594 974 338 974 q 850 947 850 974 q 801 920 850 928 q 679 907 751 913 q 574 899 589 900 q 531 897 560 899 q 441 886 503 894 q 372 876 379 878 l 372 863 q 310 544 372 768 l 353 543 q 503 550 425 543 q 628 557 582 557 q 675 544 675 557 q 303 472 675 472 q 289 474 293 472 q 201 144 201 199 q 215 112 201 124 q 247 100 228 100 q 615 156 424 100 q 690 174 681 174 q 707 149 707 174 q 553 64 707 111 q 271 17 400 17 q 161 49 207 17 q 115 126 115 82 q 159 330 115 190 q 247 626 203 469 q 290 890 290 783 q 295 923 290 918 q 300 929 300 928 m 553 1176 q 530 1158 553 1176 q 476 1117 507 1140 q 428 1094 444 1094 q 401 1103 413 1094 q 390 1132 390 1111 q 411 1174 390 1153 q 466 1215 432 1196 q 522 1249 500 1235 q 558 1271 544 1263 q 588 1288 572 1279 q 616 1300 604 1296 q 635 1304 628 1304 q 647 1303 642 1304 q 658 1300 653 1301 q 668 1294 663 1299 q 677 1288 674 1290 q 687 1279 681 1286 q 696 1269 693 1272 q 719 1240 715 1244 q 813 1105 813 1129 q 786 1081 813 1081 q 739 1100 760 1081 q 682 1171 718 1119 q 639 1232 646 1222 q 553 1176 600 1211 z "},"Ë":{"ha":839,"x_min":115,"x_max":850,"o":"m 300 929 q 594 974 338 974 q 850 947 850 974 q 801 920 850 928 q 679 907 751 913 q 574 899 589 900 q 531 897 560 899 q 441 886 503 894 q 372 876 379 878 l 372 863 q 310 544 372 768 l 353 543 q 503 550 425 543 q 628 557 582 557 q 675 544 675 557 q 303 472 675 472 q 289 474 293 472 q 201 144 201 199 q 215 112 201 124 q 247 100 228 100 q 615 156 424 100 q 690 174 681 174 q 707 149 707 174 q 553 64 707 111 q 271 17 400 17 q 161 49 207 17 q 115 126 115 82 q 159 330 115 190 q 247 626 203 469 q 290 890 290 783 q 295 923 290 918 q 300 929 300 928 m 561 1110 q 500 1142 533 1110 q 467 1197 467 1175 q 482 1238 467 1219 q 516 1257 497 1257 q 559 1210 535 1257 q 583 1144 583 1164 q 561 1110 583 1110 m 750 1110 q 689 1142 722 1110 q 656 1197 656 1175 q 671 1238 656 1219 q 705 1257 686 1257 q 748 1210 724 1257 q 772 1144 772 1164 q 750 1110 772 1110 z "},"Ì":{"ha":432,"x_min":107,"x_max":443,"o":"m 218 1231 q 215 1234 218 1231 q 210 1243 213 1238 q 208 1261 208 1249 q 224 1293 208 1274 q 252 1313 239 1313 q 272 1309 265 1313 q 287 1297 278 1306 q 303 1280 296 1289 q 326 1255 311 1271 q 351 1226 340 1239 q 374 1201 363 1214 q 393 1182 386 1189 q 408 1166 400 1175 q 421 1152 417 1157 q 429 1142 425 1147 q 435 1133 433 1136 q 439 1125 438 1129 q 443 1109 443 1118 q 434 1092 443 1100 q 415 1083 425 1083 q 392 1092 406 1083 q 351 1123 378 1101 q 313 1153 325 1144 q 286 1174 301 1163 q 263 1191 271 1185 q 244 1206 256 1197 q 228 1219 233 1214 q 218 1231 224 1225 m 154 31 q 124 51 140 31 q 107 100 107 71 q 198 489 107 129 q 289 938 289 849 q 292 970 289 963 q 313 978 296 978 q 349 947 329 978 q 369 882 369 917 q 267 411 369 789 q 239 306 256 372 q 211 200 222 240 q 188 117 200 160 q 154 31 163 31 z "},"Í":{"ha":432,"x_min":107,"x_max":594,"o":"m 379 1083 q 375 1083 379 1083 q 363 1090 371 1083 q 354 1108 354 1097 q 357 1125 354 1118 q 369 1143 360 1132 q 386 1163 378 1154 q 431 1210 408 1188 q 470 1251 454 1233 q 495 1279 486 1269 q 517 1300 504 1289 q 553 1321 538 1321 q 581 1301 568 1321 q 594 1268 594 1281 q 593 1250 594 1256 q 587 1238 592 1244 q 577 1226 582 1231 q 562 1213 572 1221 q 544 1197 551 1204 q 499 1163 515 1175 q 470 1140 482 1150 q 452 1126 458 1131 q 437 1114 446 1121 q 424 1103 428 1107 q 413 1096 419 1100 q 403 1090 407 1092 q 394 1086 400 1089 q 379 1083 388 1083 m 154 31 q 124 51 140 31 q 107 100 107 71 q 198 489 107 129 q 289 938 289 849 q 292 970 289 963 q 313 978 296 978 q 349 947 329 978 q 369 882 369 917 q 267 411 369 789 q 239 306 256 372 q 211 200 222 240 q 188 117 200 160 q 154 31 163 31 z "},"Î":{"ha":432,"x_min":107,"x_max":576,"o":"m 380 1300 q 386 1302 380 1300 q 399 1304 392 1304 q 411 1303 406 1304 q 422 1300 417 1301 q 432 1294 426 1299 q 441 1288 438 1290 q 451 1279 444 1286 q 460 1269 457 1272 q 483 1240 479 1244 q 576 1105 576 1129 q 550 1081 576 1081 q 503 1100 524 1081 q 446 1171 482 1119 q 403 1232 410 1222 q 317 1176 364 1211 q 240 1117 271 1140 q 192 1094 208 1094 q 165 1103 176 1094 q 154 1132 154 1111 q 175 1174 154 1153 q 230 1215 196 1196 q 286 1249 264 1235 q 322 1271 308 1263 q 352 1288 336 1279 q 380 1300 368 1296 m 154 31 q 124 51 140 31 q 107 100 107 71 q 198 489 107 129 q 289 938 289 849 q 292 970 289 963 q 313 978 296 978 q 349 947 329 978 q 369 882 369 917 q 267 411 369 789 q 239 306 256 372 q 211 200 222 240 q 188 117 200 160 q 154 31 163 31 z "},"Ï":{"ha":432,"x_min":107,"x_max":536,"o":"m 419 1197 q 419 1208 419 1197 q 435 1238 419 1219 q 469 1257 450 1257 q 512 1210 488 1257 q 536 1144 536 1164 q 514 1110 536 1110 q 453 1142 486 1110 q 419 1197 419 1175 m 231 1197 q 231 1208 231 1197 q 246 1238 231 1219 q 280 1257 261 1257 q 323 1210 299 1257 q 347 1144 347 1164 q 325 1110 347 1110 q 264 1142 297 1110 q 231 1197 231 1175 m 154 31 q 124 51 140 31 q 107 100 107 71 q 198 489 107 129 q 289 938 289 849 q 292 970 289 963 q 313 978 296 978 q 349 947 329 978 q 369 882 369 917 q 267 411 369 789 q 239 306 256 372 q 211 200 222 240 q 188 117 200 160 q 154 31 163 31 z "},"Ð":{"ha":838,"x_min":18,"x_max":828,"o":"m 238 938 q 495 872 358 938 q 730 690 632 806 q 828 450 828 574 q 715 249 828 363 q 454 56 603 135 q 206 -24 306 -24 q 153 13 178 -24 q 129 97 129 49 q 193 376 129 146 q 99 368 124 368 q 18 392 18 368 q 213 450 18 425 q 290 815 290 729 q 292 847 290 840 q 231 876 251 858 q 210 913 210 894 q 238 938 210 938 m 739 453 q 622 679 739 564 q 351 835 504 794 q 369 755 369 806 q 301 458 369 704 q 372 463 347 463 q 418 454 396 463 q 440 432 440 446 q 282 388 440 410 l 261 311 q 213 63 228 199 q 385 113 289 65 q 558 222 482 160 q 686 349 633 285 q 739 453 739 414 z "},"Ñ":{"ha":975,"x_min":89,"x_max":911,"o":"m 414 1117 q 465 1211 414 1161 q 565 1261 515 1261 q 650 1210 618 1261 q 708 1156 681 1158 q 742 1171 726 1157 q 765 1200 757 1185 q 811 1243 788 1243 q 835 1205 835 1243 q 797 1124 835 1167 q 706 1082 758 1082 q 561 1192 639 1082 q 510 1151 532 1178 q 473 1106 488 1125 q 444 1088 458 1088 q 414 1117 414 1088 m 854 983 q 891 957 871 983 q 911 906 911 931 q 878 571 911 776 q 790 196 846 365 q 681 26 735 26 q 617 81 644 26 q 477 404 589 136 q 335 758 365 672 q 219 319 275 535 q 153 65 164 103 q 133 26 142 26 q 106 47 122 26 q 89 100 89 68 q 185 494 89 132 q 281 943 281 856 q 284 976 281 968 q 300 983 288 983 q 334 959 313 983 q 365 893 356 935 q 491 568 375 851 q 682 122 607 285 q 776 463 742 274 q 817 743 811 651 q 822 909 822 835 q 854 983 822 983 z "},"Ò":{"ha":847,"x_min":92,"x_max":811,"o":"m 507 1231 q 504 1234 507 1231 q 499 1243 501 1238 q 497 1261 497 1249 q 513 1293 497 1274 q 541 1313 528 1313 q 560 1309 554 1313 q 576 1297 567 1306 q 592 1280 585 1289 q 615 1255 600 1271 q 640 1226 629 1239 q 663 1201 651 1214 q 682 1182 675 1189 q 697 1166 689 1175 q 710 1152 706 1157 q 718 1142 714 1147 q 724 1133 722 1136 q 728 1125 726 1129 q 732 1109 732 1118 q 723 1092 732 1100 q 704 1083 714 1083 q 681 1092 694 1083 q 640 1123 667 1101 q 602 1153 614 1144 q 575 1174 590 1163 q 552 1191 560 1185 q 533 1206 544 1197 q 517 1219 522 1214 q 507 1231 513 1225 m 487 192 q 535 236 487 192 q 652 407 583 281 q 721 644 721 533 q 671 828 721 756 q 568 900 621 900 q 449 845 515 900 q 322 707 383 790 q 218 512 261 624 q 175 306 175 400 q 218 158 175 211 q 315 104 261 104 q 487 192 390 104 m 303 26 q 154 112 217 26 q 92 286 92 197 q 167 617 92 451 q 352 883 243 782 q 563 983 461 983 q 738 882 664 983 q 811 652 811 781 q 737 377 811 524 q 542 128 663 231 q 303 26 421 26 z "},"Ó":{"ha":847,"x_min":92,"x_max":883,"o":"m 668 1083 q 664 1083 668 1083 q 651 1090 660 1083 q 643 1108 643 1097 q 646 1125 643 1118 q 658 1143 649 1132 q 675 1163 667 1154 q 720 1210 697 1188 q 759 1251 743 1233 q 784 1279 775 1269 q 806 1300 793 1289 q 842 1321 826 1321 q 870 1301 857 1321 q 883 1268 883 1281 q 882 1250 883 1256 q 876 1238 881 1244 q 866 1226 871 1231 q 851 1213 861 1221 q 833 1197 840 1204 q 788 1163 804 1175 q 759 1140 771 1150 q 741 1126 747 1131 q 726 1114 735 1121 q 713 1103 717 1107 q 702 1096 708 1100 q 692 1090 696 1092 q 683 1086 689 1089 q 668 1083 676 1083 m 487 192 q 535 236 487 192 q 652 407 583 281 q 721 644 721 533 q 671 828 721 756 q 568 900 621 900 q 449 845 515 900 q 322 707 383 790 q 218 512 261 624 q 175 306 175 400 q 218 158 175 211 q 315 104 261 104 q 487 192 390 104 m 303 26 q 154 112 217 26 q 92 286 92 197 q 167 617 92 451 q 352 883 243 782 q 563 983 461 983 q 738 882 664 983 q 811 652 811 781 q 737 377 811 524 q 542 128 663 231 q 303 26 421 26 z "},"Ô":{"ha":847,"x_min":92,"x_max":865,"o":"m 669 1300 q 675 1302 669 1300 q 688 1304 681 1304 q 700 1303 694 1304 q 710 1300 706 1301 q 721 1294 715 1299 q 730 1288 726 1290 q 740 1279 733 1286 q 749 1269 746 1272 q 772 1240 768 1244 q 865 1105 865 1129 q 839 1081 865 1081 q 792 1100 813 1081 q 735 1171 771 1119 q 692 1232 699 1222 q 606 1176 653 1211 q 528 1117 560 1140 q 481 1094 497 1094 q 454 1103 465 1094 q 443 1132 443 1111 q 464 1174 443 1153 q 519 1215 485 1196 q 575 1249 553 1235 q 611 1271 597 1263 q 641 1288 625 1279 q 669 1300 657 1296 m 487 192 q 535 236 487 192 q 652 407 583 281 q 721 644 721 533 q 671 828 721 756 q 568 900 621 900 q 449 845 515 900 q 322 707 383 790 q 218 512 261 624 q 175 306 175 400 q 218 158 175 211 q 315 104 261 104 q 487 192 390 104 m 303 26 q 154 112 217 26 q 92 286 92 197 q 167 617 92 451 q 352 883 243 782 q 563 983 461 983 q 738 882 664 983 q 811 652 811 781 q 737 377 811 524 q 542 128 663 231 q 303 26 421 26 z "},"Õ":{"ha":847,"x_min":92,"x_max":897,"o":"m 476 1117 q 527 1211 476 1161 q 628 1261 578 1261 q 711 1210 681 1261 q 771 1156 743 1158 q 804 1171 789 1157 q 828 1200 819 1185 q 874 1243 850 1243 q 897 1205 897 1243 q 859 1124 897 1167 q 768 1082 821 1082 q 624 1192 701 1082 q 572 1151 594 1178 q 535 1106 550 1125 q 507 1088 521 1088 q 476 1117 476 1088 m 487 192 q 535 236 487 192 q 652 407 583 281 q 721 644 721 533 q 671 828 721 756 q 568 900 621 900 q 449 845 515 900 q 322 707 383 790 q 218 512 261 624 q 175 306 175 400 q 218 158 175 211 q 315 104 261 104 q 487 192 390 104 m 303 26 q 154 112 217 26 q 92 286 92 197 q 167 617 92 451 q 352 883 243 782 q 563 983 461 983 q 738 882 664 983 q 811 652 811 781 q 737 377 811 524 q 542 128 663 231 q 303 26 421 26 z "},"Ö":{"ha":847,"x_min":92,"x_max":825,"o":"m 708 1197 q 708 1208 708 1197 q 724 1238 708 1219 q 758 1257 739 1257 q 801 1210 776 1257 q 825 1144 825 1164 q 803 1110 825 1110 q 742 1142 775 1110 q 708 1197 708 1175 m 519 1197 q 519 1208 519 1197 q 535 1238 519 1219 q 569 1257 550 1257 q 612 1210 588 1257 q 636 1144 636 1164 q 614 1110 636 1110 q 553 1142 586 1110 q 519 1197 519 1175 m 487 192 q 535 236 487 192 q 652 407 583 281 q 721 644 721 533 q 671 828 721 756 q 568 900 621 900 q 449 845 515 900 q 322 707 383 790 q 218 512 261 624 q 175 306 175 400 q 218 158 175 211 q 315 104 261 104 q 487 192 390 104 m 303 26 q 154 112 217 26 q 92 286 92 197 q 167 617 92 451 q 352 883 243 782 q 563 983 461 983 q 738 882 664 983 q 811 652 811 781 q 737 377 811 524 q 542 128 663 231 q 303 26 421 26 z "},"×":{"ha":718,"x_min":74,"x_max":704,"o":"m 606 211 q 576 193 606 193 q 363 393 521 193 q 126 193 154 193 q 92 206 110 193 q 74 231 74 219 q 104 269 74 243 q 199 347 135 294 q 318 451 264 400 q 199 625 249 544 q 149 728 149 706 q 174 751 149 751 q 225 740 199 751 q 251 710 251 728 q 375 508 251 671 q 588 717 549 685 q 648 751 628 750 q 686 740 668 751 q 704 717 704 728 q 659 665 704 707 q 536 553 614 622 l 421 450 q 474 384 442 425 q 526 319 507 343 q 567 269 546 296 q 606 211 606 219 z "},"Ø":{"ha":847,"x_min":53,"x_max":843,"o":"m 768 833 q 811 637 811 750 q 737 377 811 524 q 542 128 663 231 q 303 26 421 26 q 164 99 225 26 q 89 24 103 24 q 53 58 53 24 q 119 169 53 78 q 92 286 92 228 q 167 617 92 451 q 352 883 243 782 q 556 983 461 983 q 722 901 651 983 q 819 976 793 976 q 843 947 843 976 q 783 851 843 918 l 768 833 m 175 299 q 181 246 175 268 q 324 422 233 311 q 476 610 415 533 q 664 838 596 758 q 567 900 618 900 q 449 845 515 900 q 322 707 383 790 q 218 512 261 624 q 175 299 175 400 m 721 635 q 703 760 721 701 q 214 163 481 503 q 324 104 257 104 q 487 192 390 104 q 652 407 583 281 q 721 635 721 533 z "},"Ù":{"ha":832,"x_min":138,"x_max":775,"o":"m 367 1231 q 364 1234 367 1231 q 359 1243 361 1238 q 357 1261 357 1249 q 372 1293 357 1274 q 401 1313 388 1313 q 420 1309 414 1313 q 435 1297 426 1306 q 452 1280 444 1289 q 474 1255 460 1271 q 500 1226 489 1239 q 523 1201 511 1214 q 542 1182 535 1189 q 557 1166 549 1175 q 569 1152 565 1157 q 578 1142 574 1147 q 584 1133 582 1136 q 589 1125 586 1129 q 592 1109 592 1118 q 583 1092 592 1100 q 564 1083 574 1083 q 540 1092 554 1083 q 500 1123 526 1101 q 462 1153 474 1144 q 435 1174 450 1163 q 412 1191 419 1185 q 393 1206 404 1197 q 377 1219 382 1214 q 367 1231 372 1225 m 257 938 q 260 970 257 963 q 279 978 264 978 q 317 947 294 978 q 340 868 340 917 q 280 589 340 819 q 219 278 219 358 q 254 144 219 197 q 342 92 289 92 q 455 147 396 92 q 566 291 514 201 q 653 510 618 381 q 688 775 688 640 q 683 881 688 822 q 678 955 678 940 q 682 974 678 969 q 697 978 686 978 q 749 944 722 978 q 775 844 775 910 q 642 247 775 481 q 336 14 508 14 q 194 89 250 14 q 138 265 138 164 q 197 602 138 367 q 257 938 257 838 z "},"Ú":{"ha":832,"x_min":138,"x_max":775,"o":"m 528 1083 q 524 1083 528 1083 q 511 1090 519 1083 q 503 1108 503 1097 q 506 1125 503 1118 q 517 1143 508 1132 q 533 1163 526 1154 q 580 1210 557 1188 q 619 1251 603 1233 q 644 1279 635 1269 q 664 1300 653 1289 q 701 1321 686 1321 q 730 1301 717 1321 q 743 1268 743 1281 q 742 1250 743 1256 q 735 1238 740 1244 q 726 1226 731 1231 q 710 1213 721 1221 q 692 1197 700 1204 q 647 1163 664 1175 q 619 1140 631 1150 q 601 1126 607 1131 q 585 1114 594 1121 q 572 1103 576 1107 q 562 1096 568 1100 q 552 1090 556 1092 q 544 1086 549 1089 q 528 1083 536 1083 m 257 938 q 260 970 257 963 q 279 978 264 978 q 317 947 294 978 q 340 868 340 917 q 280 589 340 819 q 219 278 219 358 q 254 144 219 197 q 342 92 289 92 q 455 147 396 92 q 566 291 514 201 q 653 510 618 381 q 688 775 688 640 q 683 881 688 822 q 678 955 678 940 q 682 974 678 969 q 697 978 686 978 q 749 944 722 978 q 775 844 775 910 q 642 247 775 481 q 336 14 508 14 q 194 89 250 14 q 138 265 138 164 q 197 602 138 367 q 257 938 257 838 z "},"Û":{"ha":832,"x_min":138,"x_max":775,"o":"m 528 1300 q 534 1302 528 1300 q 547 1304 540 1304 q 560 1303 554 1304 q 570 1300 565 1301 q 581 1294 575 1299 q 590 1288 586 1290 q 599 1279 593 1286 q 608 1269 606 1272 q 632 1240 628 1244 q 725 1105 725 1129 q 699 1081 725 1081 q 651 1100 672 1081 q 594 1171 631 1119 q 551 1232 558 1222 q 466 1176 513 1211 q 388 1117 419 1140 q 341 1094 357 1094 q 314 1103 325 1094 q 303 1132 303 1111 q 324 1174 303 1153 q 378 1215 344 1196 q 435 1249 413 1235 q 471 1271 457 1263 q 501 1288 485 1279 q 528 1300 517 1296 m 257 938 q 260 970 257 963 q 279 978 264 978 q 317 947 294 978 q 340 868 340 917 q 280 589 340 819 q 219 278 219 358 q 254 144 219 197 q 342 92 289 92 q 455 147 396 92 q 566 291 514 201 q 653 510 618 381 q 688 775 688 640 q 683 881 688 822 q 678 955 678 940 q 682 974 678 969 q 697 978 686 978 q 749 944 722 978 q 775 844 775 910 q 642 247 775 481 q 336 14 508 14 q 194 89 250 14 q 138 265 138 164 q 197 602 138 367 q 257 938 257 838 z "},"Ü":{"ha":832,"x_min":138,"x_max":775,"o":"m 568 1197 q 568 1208 568 1197 q 583 1238 568 1219 q 617 1257 599 1257 q 660 1210 636 1257 q 685 1144 685 1164 q 663 1110 685 1110 q 601 1142 635 1110 q 568 1197 568 1175 m 379 1197 q 379 1208 379 1197 q 394 1238 379 1219 q 428 1257 410 1257 q 472 1210 447 1257 q 496 1144 496 1164 q 474 1110 496 1110 q 413 1142 446 1110 q 379 1197 379 1175 m 257 938 q 260 970 257 963 q 279 978 264 978 q 317 947 294 978 q 340 868 340 917 q 280 589 340 819 q 219 278 219 358 q 254 144 219 197 q 342 92 289 92 q 455 147 396 92 q 566 291 514 201 q 653 510 618 381 q 688 775 688 640 q 683 881 688 822 q 678 955 678 940 q 682 974 678 969 q 697 978 686 978 q 749 944 722 978 q 775 844 775 910 q 642 247 775 481 q 336 14 508 14 q 194 89 250 14 q 138 265 138 164 q 197 602 138 367 q 257 938 257 838 z "},"Ý":{"ha":808,"x_min":140,"x_max":843,"o":"m 513 1083 q 508 1083 513 1083 q 496 1090 504 1083 q 488 1108 488 1097 q 490 1125 488 1118 q 502 1143 493 1132 q 519 1163 511 1154 q 565 1210 542 1188 q 603 1251 588 1233 q 628 1279 619 1269 q 650 1300 638 1289 q 686 1321 671 1321 q 715 1301 701 1321 q 728 1268 728 1281 q 726 1250 728 1256 q 720 1238 725 1244 q 710 1226 715 1231 q 695 1213 706 1221 q 678 1197 685 1204 q 632 1163 649 1175 q 603 1140 615 1150 q 585 1126 592 1131 q 570 1114 579 1121 q 557 1103 561 1107 q 547 1096 553 1100 q 537 1090 540 1092 q 528 1086 533 1089 q 513 1083 521 1083 m 474 494 q 566 614 497 494 q 704 853 635 733 q 801 972 774 972 q 843 936 843 972 q 801 847 843 917 q 682 649 760 776 q 561 442 604 522 q 474 279 518 361 q 410 160 431 197 q 367 81 390 122 q 301 10 324 10 q 285 34 285 10 q 297 92 285 58 q 339 186 308 125 q 456 417 385 281 q 299 513 374 432 q 183 701 225 594 q 140 903 140 808 q 150 953 140 933 q 176 972 160 972 q 205 928 192 972 q 240 804 218 885 q 299 651 263 724 q 386 537 336 579 q 474 494 436 494 z "},"Þ":{"ha":675,"x_min":79,"x_max":617,"o":"m 201 251 q 124 24 139 24 q 94 43 108 24 q 79 90 79 63 q 117 261 79 117 q 233 853 233 703 q 238 885 233 876 q 260 894 243 894 q 297 866 276 894 q 318 802 318 838 q 304 689 318 767 q 397 707 361 707 q 547 646 476 707 q 617 499 617 585 q 507 319 617 392 q 258 247 397 247 q 201 251 231 247 m 260 325 q 449 378 363 325 q 535 490 535 431 q 492 584 535 549 q 399 619 450 619 q 288 592 347 619 q 222 326 257 454 q 260 325 235 325 z "},"ß":{"ha":801,"x_min":83,"x_max":708,"o":"m 361 104 l 436 101 q 565 144 504 101 q 625 250 625 188 q 593 328 625 289 q 523 395 561 368 q 453 458 485 422 q 421 519 421 493 q 451 568 421 546 q 519 608 482 590 q 588 660 557 626 q 618 735 618 694 q 574 847 618 800 q 478 894 531 894 q 378 844 425 894 q 313 708 331 793 q 125 24 176 24 q 97 42 110 24 q 83 85 83 60 q 100 175 83 111 q 226 725 172 443 q 319 910 249 843 q 497 976 390 976 q 639 902 575 976 q 703 739 703 828 q 672 638 703 681 q 606 576 642 594 q 539 541 569 557 q 508 516 508 525 q 540 481 508 507 q 608 426 571 456 q 677 349 646 397 q 708 250 708 300 q 626 84 708 142 q 440 26 543 26 q 360 43 389 26 q 331 83 331 60 q 361 104 331 104 z "},"à":{"ha":621,"x_min":0,"x_max":561,"o":"m 558 829 q 559 827 558 829 q 560 822 560 825 q 561 811 561 818 q 552 796 561 804 q 533 788 543 788 q 510 797 524 788 q 469 827 496 806 q 431 858 443 849 q 404 878 419 867 q 381 895 389 889 q 363 910 374 901 q 347 924 351 918 q 336 936 342 929 q 326 962 326 946 q 342 997 326 978 q 370 1017 357 1017 q 390 1013 383 1017 q 405 1001 396 1010 q 422 984 414 993 q 444 959 429 975 q 469 931 458 943 q 492 906 481 918 q 511 886 504 893 q 526 870 518 879 q 539 856 535 861 q 547 846 543 851 q 553 837 551 840 q 558 829 556 833 m 62 391 q 93 452 62 391 q 217 606 124 514 q 382 697 310 697 q 494 638 454 697 q 533 530 533 578 q 503 440 533 482 q 515 404 515 426 q 501 236 515 315 q 482 110 486 157 q 473 43 478 63 q 456 24 468 24 q 425 69 432 24 q 418 208 418 114 q 309 78 375 132 q 180 24 243 24 q 58 72 117 24 q 0 179 0 121 q 62 391 0 268 m 461 457 q 460 503 460 467 q 444 578 460 540 q 396 615 428 615 q 269 535 343 615 q 140 351 194 456 q 86 178 86 246 q 115 126 86 147 q 175 106 143 106 q 322 199 247 106 q 436 428 397 292 q 461 457 440 451 z "},"á":{"ha":621,"x_min":0,"x_max":713,"o":"m 634 1004 q 640 1010 634 1004 q 654 1020 646 1015 q 674 1025 663 1025 q 699 1005 686 1025 q 713 972 713 985 q 711 954 713 960 q 705 942 710 949 q 695 930 700 935 q 680 917 690 925 q 661 903 669 908 q 617 867 633 879 q 588 844 600 854 q 570 830 576 835 q 555 818 564 825 q 542 808 546 811 q 531 800 538 804 q 522 794 525 796 q 514 792 518 793 q 497 788 506 788 q 481 794 489 788 q 472 812 472 801 q 475 829 472 822 q 487 847 478 836 q 503 867 496 858 q 549 915 526 892 q 588 956 572 938 q 613 983 604 974 q 634 1004 622 993 m 62 391 q 93 452 62 391 q 217 606 124 514 q 382 697 310 697 q 494 638 454 697 q 533 530 533 578 q 503 440 533 482 q 515 404 515 426 q 501 236 515 315 q 482 110 486 157 q 473 43 478 63 q 456 24 468 24 q 425 69 432 24 q 418 208 418 114 q 309 78 375 132 q 180 24 243 24 q 58 72 117 24 q 0 179 0 121 q 62 391 0 268 m 461 457 q 460 503 460 467 q 444 578 460 540 q 396 615 428 615 q 269 535 343 615 q 140 351 194 456 q 86 178 86 246 q 115 126 86 147 q 175 106 143 106 q 322 199 247 106 q 436 428 397 292 q 461 457 440 451 z "},"â":{"ha":621,"x_min":0,"x_max":694,"o":"m 601 944 q 694 809 694 833 q 668 785 694 785 q 621 804 642 785 q 564 875 600 824 q 521 936 528 926 q 435 880 482 915 q 358 822 389 844 q 310 799 326 799 q 283 807 294 799 q 272 836 272 815 q 293 878 272 857 q 348 919 314 900 q 404 953 382 939 q 440 975 426 967 q 470 992 454 983 q 498 1004 486 1000 q 517 1008 510 1008 q 529 1007 524 1008 q 540 1004 535 1006 q 550 999 544 1003 q 559 992 556 994 q 569 983 563 990 q 578 972 575 976 q 601 944 597 949 m 62 391 q 93 452 62 391 q 217 606 124 514 q 382 697 310 697 q 494 638 454 697 q 533 530 533 578 q 503 440 533 482 q 515 404 515 426 q 501 236 515 315 q 482 110 486 157 q 473 43 478 63 q 456 24 468 24 q 425 69 432 24 q 418 208 418 114 q 309 78 375 132 q 180 24 243 24 q 58 72 117 24 q 0 179 0 121 q 62 391 0 268 m 461 457 q 460 503 460 467 q 444 578 460 540 q 396 615 428 615 q 269 535 343 615 q 140 351 194 456 q 86 178 86 246 q 115 126 86 147 q 175 106 143 106 q 322 199 247 106 q 436 428 397 292 q 461 457 440 451 z "},"ã":{"ha":621,"x_min":0,"x_max":726,"o":"m 657 906 q 703 947 679 947 q 726 909 726 947 q 688 828 726 871 q 597 786 650 786 q 453 896 531 786 q 401 856 424 882 q 365 810 379 829 q 336 792 350 792 q 306 821 306 792 q 356 915 306 865 q 457 965 407 965 q 542 914 510 965 q 600 860 572 863 q 633 875 618 861 q 657 906 649 889 m 62 391 q 93 452 62 391 q 217 606 124 514 q 382 697 310 697 q 494 638 454 697 q 533 530 533 578 q 503 440 533 482 q 515 404 515 426 q 501 236 515 315 q 482 110 486 157 q 473 43 478 63 q 456 24 468 24 q 425 69 432 24 q 418 208 418 114 q 309 78 375 132 q 180 24 243 24 q 58 72 117 24 q 0 179 0 121 q 62 391 0 268 m 461 457 q 460 503 460 467 q 444 578 460 540 q 396 615 428 615 q 269 535 343 615 q 140 351 194 456 q 86 178 86 246 q 115 126 86 147 q 175 106 143 106 q 322 199 247 106 q 436 428 397 292 q 461 457 440 451 z "},"ä":{"ha":621,"x_min":0,"x_max":654,"o":"m 538 901 q 538 913 538 901 q 553 942 538 924 q 587 961 568 961 q 630 915 606 961 q 654 849 654 868 q 632 814 654 814 q 571 847 604 814 q 538 901 538 879 m 62 391 q 93 452 62 391 q 217 606 124 514 q 382 697 310 697 q 494 638 454 697 q 533 530 533 578 q 503 440 533 482 q 515 404 515 426 q 501 236 515 315 q 482 110 486 157 q 473 43 478 63 q 456 24 468 24 q 425 69 432 24 q 418 208 418 114 q 309 78 375 132 q 180 24 243 24 q 58 72 117 24 q 0 179 0 121 q 62 391 0 268 m 461 457 q 460 503 460 467 q 444 578 460 540 q 396 615 428 615 q 269 535 343 615 q 140 351 194 456 q 86 178 86 246 q 115 126 86 147 q 175 106 143 106 q 322 199 247 106 q 436 428 397 292 q 461 457 440 451 m 443 814 q 382 847 415 814 q 349 901 349 879 q 364 942 349 924 q 398 961 379 961 q 441 915 417 961 q 465 849 465 868 q 443 814 465 814 z "},"å":{"ha":621,"x_min":0,"x_max":628,"o":"m 410 876 q 410 900 410 876 q 446 969 410 924 q 528 1015 482 1015 q 601 984 574 1015 q 628 905 628 953 q 592 811 628 857 q 510 765 556 765 q 437 797 464 765 q 410 876 410 828 m 474 883 q 474 869 474 883 q 484 840 474 856 q 513 825 494 825 q 547 846 531 825 q 563 894 563 867 q 552 938 563 922 q 524 953 542 953 q 490 931 506 953 q 474 883 474 910 m 62 391 q 93 452 62 391 q 217 606 124 514 q 382 697 310 697 q 494 638 454 697 q 533 530 533 578 q 503 440 533 482 q 515 404 515 426 q 501 236 515 315 q 482 110 486 157 q 473 43 478 63 q 456 24 468 24 q 425 69 432 24 q 418 208 418 114 q 309 78 375 132 q 180 24 243 24 q 58 72 117 24 q 0 179 0 121 q 62 391 0 268 m 461 457 q 460 503 460 467 q 444 578 460 540 q 396 615 428 615 q 269 535 343 615 q 140 351 194 456 q 86 178 86 246 q 115 126 86 147 q 175 106 143 106 q 322 199 247 106 q 436 428 397 292 q 461 457 440 451 z "},"æ":{"ha":1013,"x_min":40,"x_max":982,"o":"m 422 615 q 286 535 358 615 q 168 351 214 454 q 122 178 122 247 q 147 126 122 147 q 197 106 171 106 q 340 183 275 106 q 475 415 406 260 q 503 474 489 453 q 422 615 500 615 m 788 619 q 663 558 725 619 q 561 406 601 497 q 722 386 643 386 q 852 413 801 386 q 903 484 903 440 q 865 574 903 528 q 788 619 828 619 m 40 183 q 94 395 40 275 q 238 606 147 515 q 415 697 328 697 q 513 661 472 697 q 567 571 553 625 q 779 697 668 697 q 919 624 856 697 q 982 478 982 551 q 908 363 982 406 q 740 321 835 321 q 538 347 646 321 q 515 224 515 282 q 554 134 515 165 q 657 103 593 103 q 793 129 721 103 q 875 156 865 156 q 900 133 900 156 q 818 65 900 106 q 657 24 736 24 q 512 76 578 24 q 439 217 446 129 q 325 72 378 119 q 208 24 272 24 q 92 72 144 24 q 40 183 40 119 z "},"ç":{"ha":586,"x_min":49,"x_max":561,"o":"m 232 -50 q 316 -72 276 -50 q 356 -124 356 -94 q 311 -197 356 -167 q 113 -249 232 -249 q 71 -225 71 -249 q 110 -201 71 -208 q 198 -181 149 -194 q 265 -136 247 -167 q 199 -110 260 -122 q 139 -83 139 -99 q 159 -25 139 -67 q 186 36 179 17 q 87 108 125 58 q 49 236 49 157 q 106 427 49 315 q 252 618 163 539 q 424 697 342 697 q 523 653 485 697 q 561 582 561 610 q 544 554 561 554 q 492 584 528 554 q 429 614 457 614 q 303 546 374 614 q 183 383 232 478 q 133 230 133 289 q 166 138 133 171 q 258 106 199 106 q 368 122 317 106 q 449 155 419 139 q 493 171 479 171 q 513 149 513 171 q 421 72 513 119 q 263 24 329 24 l 256 24 q 221 -50 244 -7 l 232 -50 z "},"è":{"ha":596,"x_min":21,"x_max":565,"o":"m 565 478 q 565 442 565 478 q 492 363 565 406 q 322 321 418 321 q 121 347 226 321 q 99 221 99 276 q 138 134 99 165 q 240 103 176 103 q 376 129 304 103 q 458 156 449 156 q 483 133 483 156 q 401 65 483 106 q 251 24 319 24 q 88 84 156 24 q 21 241 21 144 q 71 444 21 338 q 201 624 121 551 q 360 697 282 697 q 502 624 439 697 q 565 478 565 551 m 371 619 q 247 558 308 619 q 144 406 185 497 q 305 386 225 386 q 435 413 385 386 q 486 484 486 440 q 449 574 486 528 q 371 619 411 619 m 269 935 q 267 939 269 935 q 262 947 264 942 q 260 965 260 953 q 275 997 260 978 q 303 1017 290 1017 q 323 1013 317 1017 q 338 1001 329 1010 q 355 984 347 993 q 377 959 363 975 q 403 931 392 943 q 426 906 414 918 q 444 886 438 893 q 460 870 451 879 q 472 856 468 861 q 481 846 476 851 q 487 837 485 840 q 492 829 489 833 q 494 813 494 822 q 485 796 494 804 q 467 788 476 788 q 443 797 457 788 q 403 827 429 806 q 365 858 376 849 q 338 878 353 867 q 315 895 322 889 q 296 910 307 901 q 280 924 285 918 q 269 935 275 929 z "},"é":{"ha":596,"x_min":21,"x_max":646,"o":"m 567 1004 q 573 1010 567 1004 q 588 1020 579 1015 q 608 1025 596 1025 q 633 1005 619 1025 q 646 972 646 985 q 644 954 646 960 q 638 942 643 949 q 628 930 633 935 q 613 917 624 925 q 594 903 603 908 q 550 867 567 879 q 522 844 533 854 q 503 830 510 835 q 488 818 497 825 q 475 808 479 811 q 465 800 471 804 q 455 794 458 796 q 447 792 451 793 q 431 788 439 788 q 414 794 422 788 q 406 812 406 801 q 408 829 406 822 q 420 847 411 836 q 436 867 429 858 q 483 915 460 892 q 522 956 506 938 q 547 983 538 974 q 567 1004 556 993 m 71 444 q 96 498 71 444 q 201 624 121 551 q 360 697 282 697 q 502 624 439 697 q 565 478 565 551 q 492 363 565 406 q 322 321 418 321 q 121 347 226 321 q 99 221 99 276 q 138 134 99 165 q 240 103 176 103 q 376 129 304 103 q 458 156 449 156 q 483 133 483 156 q 401 65 483 106 q 251 24 319 24 q 88 84 156 24 q 21 241 21 144 q 71 444 21 338 m 144 406 q 305 386 225 386 q 435 413 385 386 q 486 484 486 440 q 449 574 486 528 q 371 619 411 619 q 247 558 308 619 q 144 406 185 497 z "},"ê":{"ha":596,"x_min":21,"x_max":628,"o":"m 535 944 q 628 809 628 833 q 601 785 628 785 q 554 804 575 785 q 497 875 533 824 q 454 936 461 926 q 369 880 415 915 q 291 822 322 844 q 244 799 260 799 q 217 807 228 799 q 206 836 206 815 q 226 878 206 857 q 281 919 247 900 q 338 953 315 939 q 374 975 360 967 q 403 992 388 983 q 431 1004 419 1000 q 450 1008 443 1008 q 463 1007 457 1008 q 473 1004 468 1006 q 483 999 478 1003 q 492 992 489 994 q 502 983 496 990 q 511 972 508 976 q 535 944 531 949 m 71 444 q 96 498 71 444 q 201 624 121 551 q 360 697 282 697 q 502 624 439 697 q 565 478 565 551 q 492 363 565 406 q 322 321 418 321 q 121 347 226 321 q 99 221 99 276 q 138 134 99 165 q 240 103 176 103 q 376 129 304 103 q 458 156 449 156 q 483 133 483 156 q 401 65 483 106 q 251 24 319 24 q 88 84 156 24 q 21 241 21 144 q 71 444 21 338 m 144 406 q 305 386 225 386 q 435 413 385 386 q 486 484 486 440 q 449 574 486 528 q 371 619 411 619 q 247 558 308 619 q 144 406 185 497 z "},"ë":{"ha":596,"x_min":21,"x_max":588,"o":"m 471 903 q 471 914 471 903 q 486 944 471 925 q 520 963 501 963 q 563 916 539 963 q 588 850 588 869 q 565 815 588 815 q 504 848 538 815 q 471 903 471 881 m 71 444 q 96 498 71 444 q 201 624 121 551 q 360 697 282 697 q 502 624 439 697 q 565 478 565 551 q 492 363 565 406 q 322 321 418 321 q 121 347 226 321 q 99 221 99 276 q 138 134 99 165 q 240 103 176 103 q 376 129 304 103 q 458 156 449 156 q 483 133 483 156 q 401 65 483 106 q 251 24 319 24 q 88 84 156 24 q 21 241 21 144 q 71 444 21 338 m 144 406 q 305 386 225 386 q 435 413 385 386 q 486 484 486 440 q 449 574 486 528 q 371 619 411 619 q 247 558 308 619 q 144 406 185 497 m 376 815 q 315 848 349 815 q 282 903 282 881 q 297 944 282 925 q 331 963 313 963 q 374 916 350 963 q 399 850 399 869 q 376 815 399 815 z "},"ì":{"ha":314,"x_min":43,"x_max":336,"o":"m 111 935 q 108 939 111 935 q 103 947 106 942 q 101 965 101 953 q 117 997 101 978 q 145 1017 132 1017 q 165 1013 158 1017 q 180 1001 171 1010 q 197 984 189 993 q 219 959 204 975 q 244 931 233 943 q 267 906 256 918 q 286 886 279 893 q 301 870 293 879 q 314 856 310 861 q 322 846 318 851 q 328 837 326 840 q 333 829 331 833 q 336 813 336 822 q 327 796 336 804 q 308 788 318 788 q 285 797 299 788 q 244 827 271 806 q 206 858 218 849 q 179 878 194 867 q 156 895 164 889 q 138 910 149 901 q 122 924 126 918 q 111 935 117 929 m 154 495 q 167 552 154 495 q 195 653 181 608 q 226 697 210 697 q 257 678 242 697 q 272 642 272 660 q 131 101 272 549 q 76 24 104 24 q 53 37 63 24 q 43 65 43 50 q 61 145 43 81 q 103 296 79 210 q 154 495 128 382 z "},"í":{"ha":314,"x_min":43,"x_max":486,"o":"m 154 495 q 167 552 154 495 q 195 653 181 608 q 226 697 210 697 q 257 678 242 697 q 272 642 272 660 q 131 101 272 549 q 76 24 104 24 q 53 37 63 24 q 43 65 43 50 q 61 145 43 81 q 103 296 79 210 q 154 495 128 382 m 271 788 q 267 788 271 788 q 254 794 263 788 q 246 812 246 801 q 249 829 246 822 q 260 847 251 836 q 278 867 269 858 q 323 915 300 892 q 362 956 346 938 q 387 983 378 974 q 408 1004 396 993 q 444 1025 429 1025 q 473 1005 460 1025 q 486 972 486 985 q 485 954 486 960 q 478 942 483 949 q 469 930 474 935 q 453 917 464 925 q 436 903 443 908 q 390 867 407 879 q 362 844 374 854 q 344 830 350 835 q 328 818 338 825 q 315 808 319 811 q 305 800 311 804 q 295 794 299 796 q 286 792 292 793 q 271 788 279 788 z "},"î":{"ha":314,"x_min":43,"x_max":468,"o":"m 154 495 q 167 552 154 495 q 195 653 181 608 q 226 697 210 697 q 257 678 242 697 q 272 642 272 660 q 131 101 272 549 q 76 24 104 24 q 53 37 63 24 q 43 65 43 50 q 61 145 43 81 q 103 296 79 210 q 154 495 128 382 m 272 1004 q 277 1006 272 1004 q 290 1008 283 1008 q 303 1007 297 1008 q 313 1004 308 1006 q 324 999 318 1003 q 333 992 329 994 q 342 983 336 990 q 351 972 349 976 q 375 944 371 949 q 468 809 468 833 q 442 785 468 785 q 394 804 415 785 q 338 875 374 824 q 294 936 301 926 q 209 880 256 915 q 131 822 163 844 q 84 799 100 799 q 57 807 68 799 q 46 836 46 815 q 67 878 46 857 q 122 919 88 900 q 178 953 156 939 q 214 975 200 967 q 244 992 228 983 q 272 1004 260 1000 z "},"ï":{"ha":314,"x_min":43,"x_max":428,"o":"m 154 495 q 167 552 154 495 q 195 653 181 608 q 226 697 210 697 q 257 678 242 697 q 272 642 272 660 q 131 101 272 549 q 76 24 104 24 q 53 37 63 24 q 43 65 43 50 q 61 145 43 81 q 103 296 79 210 q 154 495 128 382 m 311 903 q 311 914 311 903 q 326 944 311 925 q 360 963 342 963 q 403 916 379 963 q 428 850 428 869 q 406 815 428 815 q 344 848 378 815 q 311 903 311 881 m 122 903 q 122 914 122 903 q 138 944 122 925 q 172 963 153 963 q 215 916 190 963 q 239 850 239 869 q 217 815 239 815 q 156 848 189 815 q 122 903 122 881 z "},"ð":{"ha":628,"x_min":61,"x_max":650,"o":"m 419 819 q 321 901 365 901 q 287 890 308 901 q 251 878 265 878 q 231 903 231 878 q 259 953 231 929 q 318 978 288 978 q 496 851 419 978 q 628 899 607 899 q 650 881 650 899 q 522 797 650 856 q 572 551 572 679 q 521 301 572 422 q 385 101 469 179 q 225 24 301 24 q 105 81 149 24 q 61 243 61 139 q 151 527 61 404 q 375 650 242 650 q 486 593 435 650 q 447 763 478 690 q 299 713 328 713 q 271 732 271 713 q 304 769 271 751 q 419 819 338 788 m 217 99 q 392 238 308 99 q 486 517 476 378 q 386 581 433 581 q 220 478 293 581 q 147 214 147 375 q 167 133 147 168 q 217 99 188 99 z "},"ñ":{"ha":724,"x_min":36,"x_max":664,"o":"m 536 697 q 616 644 572 697 q 660 532 660 590 q 615 306 660 444 q 535 96 569 168 q 472 24 501 24 q 450 47 450 24 q 462 108 450 71 q 497 208 474 144 q 579 526 579 426 q 560 581 579 558 q 528 604 542 604 q 504 599 515 604 q 480 583 493 594 q 455 560 467 572 q 426 526 443 549 q 396 487 408 504 q 362 438 383 469 q 326 386 340 407 q 243 258 271 299 q 175 151 215 217 q 86 24 96 24 q 53 44 71 24 q 36 78 36 64 q 47 128 36 92 q 106 332 93 275 q 147 633 147 510 q 172 699 147 699 q 211 673 192 699 q 231 604 231 647 q 201 429 231 561 q 135 199 171 297 q 385 586 296 475 q 536 697 474 697 m 274 792 q 243 821 243 792 q 294 915 243 865 q 394 965 344 965 q 478 914 447 965 q 538 860 510 863 q 571 875 556 861 q 594 906 586 889 q 640 947 617 947 q 664 909 664 947 q 626 828 664 871 q 535 786 588 786 q 390 896 468 786 q 339 856 361 882 q 302 810 317 829 q 274 792 288 792 z "},"ò":{"ha":628,"x_min":63,"x_max":569,"o":"m 274 935 q 271 939 274 935 q 266 947 268 942 q 264 965 264 953 q 279 997 264 978 q 308 1017 294 1017 q 327 1013 321 1017 q 342 1001 333 1010 q 359 984 351 993 q 381 959 367 975 q 407 931 396 943 q 430 906 418 918 q 449 886 442 893 q 464 870 456 879 q 476 856 472 861 q 485 846 481 851 q 491 837 489 840 q 494 829 493 833 q 499 813 499 822 q 490 796 499 804 q 471 788 481 788 q 447 797 461 788 q 407 827 433 806 q 369 858 381 849 q 342 878 357 867 q 319 895 326 889 q 300 910 311 901 q 284 924 289 918 q 274 935 279 929 m 358 167 q 390 200 358 167 q 455 317 422 233 q 488 464 488 400 q 466 573 488 528 q 408 635 444 618 q 219 486 293 613 q 146 222 146 360 q 217 93 146 118 q 358 167 294 101 m 108 452 q 131 505 108 452 q 234 627 154 557 q 395 697 314 697 q 523 628 476 697 q 569 468 569 560 q 463 164 569 304 q 215 24 356 24 q 104 86 146 24 q 63 248 63 149 q 108 452 63 347 z "},"ó":{"ha":628,"x_min":63,"x_max":650,"o":"m 358 167 q 390 200 358 167 q 455 317 422 233 q 488 464 488 400 q 466 573 488 528 q 408 635 444 618 q 219 486 293 613 q 146 222 146 360 q 217 93 146 118 q 358 167 294 101 m 108 452 q 131 505 108 452 q 234 627 154 557 q 395 697 314 697 q 523 628 476 697 q 569 468 569 560 q 463 164 569 304 q 215 24 356 24 q 104 86 146 24 q 63 248 63 149 q 108 452 63 347 m 435 788 q 431 788 435 788 q 418 794 426 788 q 410 812 410 801 q 413 829 410 822 q 424 847 415 836 q 442 867 433 858 q 487 915 464 892 q 526 956 510 938 q 551 983 542 974 q 572 1004 560 993 q 608 1025 593 1025 q 637 1005 624 1025 q 650 972 650 985 q 649 954 650 960 q 642 942 647 949 q 633 930 638 935 q 617 917 628 925 q 600 903 607 908 q 554 867 571 879 q 526 844 538 854 q 508 830 514 835 q 492 818 501 825 q 479 808 483 811 q 469 800 475 804 q 459 794 463 796 q 450 792 456 793 q 435 788 443 788 z "},"ô":{"ha":628,"x_min":63,"x_max":632,"o":"m 358 167 q 390 200 358 167 q 455 317 422 233 q 488 464 488 400 q 466 573 488 528 q 408 635 444 618 q 219 486 293 613 q 146 222 146 360 q 217 93 146 118 q 358 167 294 101 m 108 452 q 131 505 108 452 q 234 627 154 557 q 395 697 314 697 q 523 628 476 697 q 569 468 569 560 q 463 164 569 304 q 215 24 356 24 q 104 86 146 24 q 63 248 63 149 q 108 452 63 347 m 435 1004 q 441 1006 435 1004 q 454 1008 447 1008 q 467 1007 461 1008 q 477 1004 472 1006 q 488 999 482 1003 q 497 992 493 994 q 506 983 500 990 q 515 972 513 976 q 539 944 535 949 q 632 809 632 833 q 606 785 632 785 q 558 804 579 785 q 501 875 538 824 q 458 936 465 926 q 373 880 419 915 q 295 822 326 844 q 248 799 264 799 q 221 807 232 799 q 210 836 210 815 q 231 878 210 857 q 285 919 251 900 q 342 953 319 939 q 378 975 364 967 q 408 992 392 983 q 435 1004 424 1000 z "},"õ":{"ha":628,"x_min":63,"x_max":664,"o":"m 243 821 q 294 915 243 865 q 394 965 344 965 q 478 914 447 965 q 538 860 510 863 q 571 875 556 861 q 594 906 586 889 q 640 947 617 947 q 664 909 664 947 q 626 828 664 871 q 535 786 588 786 q 390 896 468 786 q 339 856 361 882 q 302 810 317 829 q 274 792 288 792 q 243 821 243 792 m 358 167 q 390 200 358 167 q 455 317 422 233 q 488 464 488 400 q 466 573 488 528 q 408 635 444 618 q 219 486 293 613 q 146 222 146 360 q 217 93 146 118 q 358 167 294 101 m 108 452 q 131 505 108 452 q 234 627 154 557 q 395 697 314 697 q 523 628 476 697 q 569 468 569 560 q 463 164 569 304 q 215 24 356 24 q 104 86 146 24 q 63 248 63 149 q 108 452 63 347 z "},"ö":{"ha":628,"x_min":63,"x_max":592,"o":"m 358 167 q 390 200 358 167 q 455 317 422 233 q 488 464 488 400 q 466 573 488 528 q 408 635 444 618 q 219 486 293 613 q 146 222 146 360 q 217 93 146 118 q 358 167 294 101 m 108 452 q 131 505 108 452 q 234 627 154 557 q 395 697 314 697 q 523 628 476 697 q 569 468 569 560 q 463 164 569 304 q 215 24 356 24 q 104 86 146 24 q 63 248 63 149 q 108 452 63 347 m 475 903 q 475 914 475 903 q 490 944 475 925 q 524 963 506 963 q 567 916 543 963 q 592 850 592 869 q 569 815 592 815 q 508 848 542 815 q 475 903 475 881 m 286 903 q 286 914 286 903 q 301 944 286 925 q 335 963 317 963 q 378 916 354 963 q 403 850 403 869 q 381 815 403 815 q 319 848 353 815 q 286 903 286 881 z "},"÷":{"ha":833,"x_min":71,"x_max":801,"o":"m 503 622 q 433 661 472 622 q 394 726 394 700 q 413 776 394 751 q 452 800 432 800 q 501 738 472 800 q 531 643 531 675 q 521 630 531 638 q 503 622 511 622 m 397 76 q 328 115 367 76 q 289 180 289 154 q 308 230 289 206 q 347 254 326 254 q 396 192 367 254 q 425 97 425 129 q 415 84 425 92 q 397 76 406 76 m 801 486 q 597 425 801 451 q 146 399 393 399 q 94 419 118 399 q 71 464 71 440 q 106 488 71 488 q 297 485 203 485 q 540 498 392 485 q 745 511 689 511 q 801 486 801 511 z "},"ø":{"ha":638,"x_min":36,"x_max":631,"o":"m 581 468 q 531 261 581 364 q 397 91 482 158 q 219 24 313 24 q 119 71 163 24 q 64 24 81 24 q 36 50 36 24 q 83 129 36 64 q 63 243 63 185 q 110 451 63 346 q 240 627 157 557 q 413 697 322 697 q 517 650 474 697 q 610 700 571 700 q 631 681 631 700 q 582 613 631 668 l 558 585 q 581 468 581 529 m 142 219 l 142 203 q 367 472 288 374 q 467 594 446 571 q 415 635 443 625 q 221 487 300 618 q 142 219 142 356 m 501 478 q 497 517 501 497 q 167 128 401 406 q 218 90 186 100 q 418 228 335 99 q 501 478 501 358 z "},"ù":{"ha":665,"x_min":26,"x_max":619,"o":"m 546 675 q 567 697 546 697 q 601 672 583 697 q 619 618 619 646 q 468 82 619 610 q 429 24 451 24 q 399 69 399 24 q 444 260 399 115 q 315 87 388 150 q 178 24 242 24 q 70 73 114 24 q 26 181 26 122 q 65 392 26 267 q 151 608 103 518 q 226 697 199 697 q 253 681 242 697 q 265 649 265 665 q 227 557 265 633 q 150 372 189 481 q 111 174 111 264 q 131 120 111 142 q 181 99 151 99 q 331 206 250 99 q 467 439 413 314 q 544 667 521 561 q 546 675 546 672 m 274 935 q 271 939 274 935 q 266 947 268 942 q 264 965 264 953 q 279 997 264 978 q 308 1017 294 1017 q 327 1013 321 1017 q 342 1001 333 1010 q 359 984 351 993 q 381 959 367 975 q 407 931 396 943 q 430 906 418 918 q 449 886 442 893 q 464 870 456 879 q 476 856 472 861 q 485 846 481 851 q 491 837 489 840 q 494 829 493 833 q 499 813 499 822 q 490 796 499 804 q 471 788 481 788 q 447 797 461 788 q 407 827 433 806 q 369 858 381 849 q 342 878 357 867 q 319 895 326 889 q 300 910 311 901 q 284 924 289 918 q 274 935 279 929 z "},"ú":{"ha":665,"x_min":26,"x_max":650,"o":"m 572 1004 q 577 1010 572 1004 q 592 1020 583 1015 q 612 1025 600 1025 q 637 1005 624 1025 q 650 972 650 985 q 649 954 650 960 q 642 942 647 949 q 633 930 638 935 q 617 917 628 925 q 600 903 607 908 q 554 867 571 879 q 526 844 538 854 q 508 830 514 835 q 492 818 501 825 q 479 808 483 811 q 469 800 475 804 q 459 794 463 796 q 450 792 456 793 q 435 788 443 788 q 418 794 426 788 q 410 812 410 801 q 413 829 410 822 q 424 847 415 836 q 442 867 433 858 q 487 915 464 892 q 526 956 510 938 q 551 983 542 974 q 572 1004 560 993 m 546 675 q 567 697 546 697 q 601 672 583 697 q 619 618 619 646 q 468 82 619 610 q 429 24 451 24 q 399 69 399 24 q 444 260 399 115 q 315 87 388 150 q 178 24 242 24 q 70 73 114 24 q 26 181 26 122 q 65 392 26 267 q 151 608 103 518 q 226 697 199 697 q 253 681 242 697 q 265 649 265 665 q 227 557 265 633 q 150 372 189 481 q 111 174 111 264 q 131 120 111 142 q 181 99 151 99 q 331 206 250 99 q 467 439 413 314 q 544 667 521 561 q 546 675 546 672 z "},"û":{"ha":665,"x_min":26,"x_max":632,"o":"m 539 944 q 632 809 632 833 q 606 785 632 785 q 558 804 579 785 q 501 875 538 824 q 458 936 465 926 q 373 880 419 915 q 295 822 326 844 q 248 799 264 799 q 221 807 232 799 q 210 836 210 815 q 231 878 210 857 q 285 919 251 900 q 342 953 319 939 q 378 975 364 967 q 408 992 392 983 q 435 1004 424 1000 q 454 1008 447 1008 q 467 1007 461 1008 q 477 1004 472 1006 q 488 999 482 1003 q 497 992 493 994 q 506 983 500 990 q 515 972 513 976 q 539 944 535 949 m 546 675 q 567 697 546 697 q 601 672 583 697 q 619 618 619 646 q 468 82 619 610 q 429 24 451 24 q 399 69 399 24 q 444 260 399 115 q 315 87 388 150 q 178 24 242 24 q 70 73 114 24 q 26 181 26 122 q 65 392 26 267 q 151 608 103 518 q 226 697 199 697 q 253 681 242 697 q 265 649 265 665 q 227 557 265 633 q 150 372 189 481 q 111 174 111 264 q 131 120 111 142 q 181 99 151 99 q 331 206 250 99 q 467 439 413 314 q 544 667 521 561 q 546 675 546 672 z "},"ü":{"ha":665,"x_min":26,"x_max":619,"o":"m 546 675 q 567 697 546 697 q 601 672 583 697 q 619 618 619 646 q 468 82 619 610 q 429 24 451 24 q 399 69 399 24 q 444 260 399 115 q 315 87 388 150 q 178 24 242 24 q 70 73 114 24 q 26 181 26 122 q 65 392 26 267 q 151 608 103 518 q 226 697 199 697 q 253 681 242 697 q 265 649 265 665 q 227 557 265 633 q 150 372 189 481 q 111 174 111 264 q 131 120 111 142 q 181 99 151 99 q 331 206 250 99 q 467 439 413 314 q 544 667 521 561 q 546 675 546 672 m 381 815 q 319 848 353 815 q 286 903 286 881 q 301 944 286 925 q 335 963 317 963 q 378 916 354 963 q 403 850 403 869 q 381 815 403 815 m 569 815 q 508 848 542 815 q 475 903 475 881 q 490 944 475 925 q 524 963 506 963 q 567 916 543 963 q 592 850 592 869 q 569 815 592 815 z "},"ý":{"ha":614,"x_min":-28,"x_max":682,"o":"m 603 1004 q 609 1010 603 1004 q 624 1020 615 1015 q 644 1025 632 1025 q 669 1005 656 1025 q 682 972 682 985 q 681 954 682 960 q 674 942 679 949 q 665 930 669 935 q 649 917 660 925 q 631 903 639 908 q 586 867 603 879 q 558 844 569 854 q 540 830 546 835 q 524 818 533 825 q 511 808 515 811 q 501 800 507 804 q 491 794 494 796 q 483 792 488 793 q 467 788 475 788 q 450 794 458 788 q 442 812 442 801 q 444 829 442 822 q 456 847 447 836 q 472 867 465 858 q 519 915 496 892 q 558 956 542 938 q 583 983 574 974 q 603 1004 592 993 m 576 697 q 613 673 594 697 q 631 628 631 649 q 618 569 631 608 q 576 444 606 529 q 521 289 546 358 q 445 80 496 219 q 364 -149 394 -60 q 182 -332 299 -332 q 42 -287 111 -332 q -28 -190 -28 -242 q -17 -162 -28 -178 q 3 -147 -6 -147 q 36 -176 11 -147 q 179 -265 110 -265 q 230 -242 206 -265 q 281 -157 254 -218 q 397 163 319 -71 q 193 24 303 24 q 86 73 129 24 q 43 196 43 122 q 81 394 43 269 q 167 608 119 519 q 242 697 214 697 q 269 681 256 697 q 282 648 282 665 q 244 554 282 631 q 167 370 206 478 q 128 174 128 263 q 148 120 128 142 q 197 99 168 99 q 305 156 249 99 q 408 303 361 213 q 551 656 493 469 q 565 695 558 693 q 576 697 571 697 z "},"þ":{"ha":731,"x_min":1,"x_max":681,"o":"m 285 643 q 456 692 376 692 q 608 613 535 692 q 681 445 681 535 q 615 281 681 356 q 458 167 549 206 q 283 129 368 129 q 224 141 256 129 q 178 174 193 153 q 48 -278 61 -278 q 18 -258 35 -278 q 1 -212 1 -239 q 61 57 1 -185 q 236 949 236 776 q 241 981 236 972 q 263 990 246 990 q 299 960 279 990 q 318 881 318 931 q 285 643 318 831 m 267 208 q 492 281 385 208 q 599 438 599 353 q 555 556 599 507 q 443 604 511 604 q 265 542 375 604 q 231 385 249 457 q 193 235 213 314 q 267 208 246 208 z "},"ÿ":{"ha":614,"x_min":-28,"x_max":631,"o":"m 576 697 q 613 673 594 697 q 631 628 631 649 q 618 569 631 608 q 576 444 606 529 q 521 289 546 358 q 445 80 496 219 q 364 -149 394 -60 q 182 -332 299 -332 q 42 -287 111 -332 q -28 -190 -28 -242 q -17 -162 -28 -178 q 3 -147 -6 -147 q 36 -176 11 -147 q 179 -265 110 -265 q 230 -242 206 -265 q 281 -157 254 -218 q 397 163 319 -71 q 193 24 303 24 q 86 73 129 24 q 43 196 43 122 q 81 394 43 269 q 167 608 119 519 q 242 697 214 697 q 269 681 256 697 q 282 648 282 665 q 244 554 282 631 q 167 370 206 478 q 128 174 128 263 q 148 120 128 142 q 197 99 168 99 q 305 156 249 99 q 408 303 361 213 q 551 656 493 469 q 565 695 558 693 q 576 697 571 697 m 413 814 q 351 847 385 814 q 318 901 318 879 q 333 942 318 924 q 367 961 349 961 q 410 915 386 961 q 435 849 435 868 q 413 814 435 814 m 601 814 q 540 847 574 814 q 507 901 507 879 q 522 942 507 924 q 556 961 538 961 q 599 915 575 961 q 624 849 624 868 q 601 814 624 814 z "},"Ā":{"ha":828,"x_min":65,"x_max":768,"o":"m 510 1003 q 581 865 549 1003 q 636 529 614 728 q 734 542 700 542 q 768 513 768 542 q 643 458 768 494 q 661 153 661 282 q 628 24 661 24 q 582 133 588 24 q 561 436 574 296 q 260 356 332 375 q 128 44 142 65 q 110 24 114 24 q 79 44 93 24 q 65 90 65 64 q 164 329 65 100 q 122 322 132 322 q 67 357 67 322 q 203 421 67 379 q 403 886 364 807 q 459 984 442 965 q 510 1003 476 1003 m 299 450 q 554 513 454 492 q 492 896 529 740 q 299 450 390 674 m 473 1112 q 452 1109 473 1112 q 408 1105 431 1107 q 365 1103 385 1103 q 321 1122 344 1103 q 297 1158 297 1142 q 473 1188 297 1188 q 708 1183 649 1188 q 768 1160 768 1179 q 728 1136 768 1143 q 602 1123 689 1129 q 473 1112 515 1117 z "},"ā":{"ha":621,"x_min":0,"x_max":722,"o":"m 251 863 q 427 892 251 892 q 663 888 603 892 q 722 864 722 883 q 683 840 722 847 q 556 827 643 833 q 428 817 469 821 q 324 807 349 807 q 275 826 299 807 q 251 863 251 846 m 62 391 q 93 452 62 391 q 217 606 124 514 q 382 697 310 697 q 494 638 454 697 q 533 530 533 578 q 503 440 533 482 q 515 404 515 426 q 501 236 515 315 q 482 110 486 157 q 473 43 478 63 q 456 24 468 24 q 425 69 432 24 q 418 208 418 114 q 309 78 375 132 q 180 24 243 24 q 58 72 117 24 q 0 179 0 121 q 62 391 0 268 m 461 457 q 460 503 460 467 q 444 578 460 540 q 396 615 428 615 q 269 535 343 615 q 140 351 194 456 q 86 178 86 246 q 115 126 86 147 q 175 106 143 106 q 322 199 247 106 q 436 428 397 292 q 461 457 440 451 z "},"Ă":{"ha":828,"x_min":65,"x_max":768,"o":"m 510 1003 q 581 865 549 1003 q 636 529 614 728 q 734 542 700 542 q 768 513 768 542 q 643 458 768 494 q 661 153 661 282 q 628 24 661 24 q 582 133 588 24 q 561 436 574 296 q 260 356 332 375 q 128 44 142 65 q 110 24 114 24 q 79 44 93 24 q 65 90 65 64 q 164 329 65 100 q 122 322 132 322 q 67 357 67 322 q 203 421 67 379 q 403 886 364 807 q 459 984 442 965 q 510 1003 476 1003 m 299 450 q 554 513 454 492 q 492 896 529 740 q 299 450 390 674 m 765 1217 q 701 1137 765 1179 q 576 1094 636 1094 q 462 1138 517 1094 q 407 1226 407 1182 q 421 1268 407 1251 q 449 1285 435 1285 q 474 1266 463 1285 q 494 1225 485 1247 q 528 1184 504 1203 q 589 1165 553 1165 q 654 1185 625 1165 q 703 1224 683 1204 q 739 1243 724 1243 q 765 1217 765 1243 z "},"ă":{"ha":621,"x_min":0,"x_max":719,"o":"m 693 947 q 719 921 719 947 q 655 841 719 883 q 531 799 590 799 q 416 842 471 799 q 361 931 361 886 q 375 972 361 956 q 403 989 389 989 q 428 970 417 989 q 449 929 439 951 q 483 888 458 907 q 543 869 507 869 q 608 889 579 869 q 658 928 638 908 q 693 947 678 947 m 62 391 q 93 452 62 391 q 217 606 124 514 q 382 697 310 697 q 494 638 454 697 q 533 530 533 578 q 503 440 533 482 q 515 404 515 426 q 501 236 515 315 q 482 110 486 157 q 473 43 478 63 q 456 24 468 24 q 425 69 432 24 q 418 208 418 114 q 309 78 375 132 q 180 24 243 24 q 58 72 117 24 q 0 179 0 121 q 62 391 0 268 m 461 457 q 460 503 460 467 q 444 578 460 540 q 396 615 428 615 q 269 535 343 615 q 140 351 194 456 q 86 178 86 246 q 115 126 86 147 q 175 106 143 106 q 322 199 247 106 q 436 428 397 292 q 461 457 440 451 z "},"Ą":{"ha":828,"x_min":65,"x_max":768,"o":"m 510 1003 q 581 865 549 1003 q 636 529 614 728 q 734 542 700 542 q 768 513 768 542 q 643 458 768 494 q 661 173 661 282 q 643 33 661 64 q 647 13 647 28 q 626 -26 647 -3 q 578 -67 604 -49 q 531 -111 553 -85 q 510 -162 510 -137 q 569 -194 510 -194 q 617 -183 592 -194 q 650 -172 642 -172 q 679 -199 679 -172 q 635 -245 679 -226 q 547 -264 590 -264 q 467 -237 503 -264 q 432 -164 432 -210 q 491 -47 432 -118 q 600 40 550 25 q 582 133 586 67 q 561 436 574 296 q 260 356 332 375 q 128 44 142 65 q 110 24 114 24 q 79 44 93 24 q 65 90 65 64 q 164 329 65 100 q 122 322 132 322 q 67 357 67 322 q 203 421 67 379 q 403 886 364 807 q 459 984 442 965 q 510 1003 476 1003 m 299 450 q 554 513 454 492 q 492 896 529 740 q 299 450 390 674 z "},"ą":{"ha":621,"x_min":0,"x_max":533,"o":"m 365 -75 q 349 -90 365 -75 q 333 -137 333 -106 q 393 -169 333 -169 q 439 -158 414 -169 q 474 -147 464 -147 q 503 -174 503 -147 q 458 -220 503 -201 q 370 -239 414 -239 q 291 -212 326 -239 q 256 -139 256 -185 q 316 -20 256 -93 q 425 65 376 53 q 418 208 418 107 q 309 78 375 132 q 180 24 243 24 q 58 72 117 24 q 0 179 0 121 q 62 391 0 268 q 217 606 124 514 q 382 697 310 697 q 494 638 454 697 q 533 530 533 578 q 503 440 533 482 q 515 404 515 426 q 492 186 515 315 q 483 125 488 161 q 469 35 476 49 q 431 -16 465 13 q 365 -75 397 -44 m 175 106 q 322 199 247 106 q 436 428 397 292 q 461 457 440 451 q 460 503 460 467 q 444 578 460 540 q 396 615 428 615 q 269 535 343 615 q 140 351 194 456 q 86 178 86 246 q 115 126 86 147 q 175 106 143 106 z "},"Ć":{"ha":993,"x_min":113,"x_max":951,"o":"m 736 1083 q 732 1083 736 1083 q 719 1090 728 1083 q 711 1108 711 1097 q 714 1125 711 1118 q 726 1143 717 1132 q 742 1163 735 1154 q 788 1210 765 1188 q 827 1251 811 1233 q 852 1279 843 1269 q 872 1300 861 1289 q 910 1321 894 1321 q 938 1301 925 1321 q 951 1268 951 1281 q 950 1250 951 1256 q 944 1238 949 1244 q 934 1226 939 1231 q 919 1213 929 1221 q 900 1197 908 1204 q 856 1163 872 1175 q 827 1140 839 1150 q 809 1126 815 1131 q 794 1114 803 1121 q 781 1103 785 1107 q 770 1096 776 1100 q 760 1090 764 1092 q 753 1086 757 1089 q 736 1083 744 1083 m 676 975 q 744 942 711 975 q 778 887 778 908 q 770 865 778 865 q 732 878 763 865 q 674 890 701 890 q 538 834 619 890 q 383 693 457 778 q 255 497 308 608 q 201 297 201 385 q 255 167 201 210 q 386 124 308 124 q 540 155 464 124 q 663 217 615 186 q 719 247 710 247 q 735 241 729 247 q 740 228 740 235 q 682 158 740 204 q 535 74 624 113 q 376 35 446 35 q 193 108 274 35 q 113 283 113 182 q 165 505 113 383 q 297 730 218 626 q 480 904 376 833 q 676 975 583 975 z "},"ć":{"ha":586,"x_min":49,"x_max":654,"o":"m 252 24 q 214 24 252 24 q 112 80 175 24 q 49 226 49 136 q 106 427 49 315 q 252 618 163 539 q 424 697 342 697 q 523 653 485 697 q 561 582 561 610 q 544 554 561 554 q 492 584 528 554 q 429 614 457 614 q 303 546 374 614 q 183 383 232 478 q 133 230 133 289 q 166 138 133 171 q 258 106 199 106 q 368 122 317 106 q 449 155 419 139 q 493 171 479 171 q 513 149 513 171 q 421 72 513 119 q 252 24 329 24 m 439 788 q 435 788 439 788 q 422 794 431 788 q 414 812 414 801 q 417 829 414 822 q 428 847 419 836 q 444 867 438 858 q 491 915 468 892 q 530 956 514 938 q 555 983 546 974 q 575 1004 564 993 q 613 1025 597 1025 q 641 1005 628 1025 q 654 972 654 985 q 653 954 654 960 q 647 942 651 949 q 637 930 642 935 q 622 917 632 925 q 603 903 611 908 q 558 867 575 879 q 530 844 542 854 q 512 830 518 835 q 497 818 506 825 q 483 808 488 811 q 473 800 479 804 q 463 794 467 796 q 456 792 460 793 q 439 788 447 788 z "},"Č":{"ha":1008,"x_min":113,"x_max":968,"o":"m 725 1146 q 856 1256 800 1219 q 940 1293 911 1293 q 968 1265 968 1293 q 951 1231 968 1246 q 897 1194 935 1217 q 841 1158 860 1172 q 794 1119 822 1144 q 723 1069 739 1069 q 656 1111 707 1069 q 559 1210 606 1153 q 513 1303 513 1268 q 522 1330 513 1319 q 546 1340 532 1340 q 576 1322 560 1340 q 606 1278 592 1304 q 653 1215 621 1253 q 725 1146 685 1176 m 676 975 q 744 942 711 975 q 778 887 778 908 q 770 865 778 865 q 732 878 763 865 q 674 890 701 890 q 538 834 619 890 q 383 693 457 778 q 255 497 308 608 q 201 297 201 385 q 255 167 201 210 q 386 124 308 124 q 540 155 464 124 q 663 217 615 186 q 719 247 710 247 q 735 241 729 247 q 740 228 740 235 q 682 158 740 204 q 535 74 624 113 q 376 35 446 35 q 193 108 274 35 q 113 283 113 182 q 165 505 113 383 q 297 730 218 626 q 480 904 376 833 q 676 975 583 975 z "},"č":{"ha":586,"x_min":49,"x_max":671,"o":"m 252 24 q 214 24 252 24 q 112 80 175 24 q 49 226 49 136 q 106 427 49 315 q 252 618 163 539 q 424 697 342 697 q 523 653 485 697 q 561 582 561 610 q 544 554 561 554 q 492 584 528 554 q 429 614 457 614 q 303 546 374 614 q 183 383 232 478 q 133 230 133 289 q 166 138 133 171 q 258 106 199 106 q 368 122 317 106 q 449 155 419 139 q 493 171 479 171 q 513 149 513 171 q 421 72 513 119 q 252 24 329 24 m 428 850 q 558 960 503 924 q 642 997 614 997 q 671 969 671 997 q 654 935 671 950 q 600 899 638 921 q 544 863 563 876 q 497 824 525 849 q 426 774 442 774 q 359 815 410 774 q 262 915 308 857 q 215 1007 215 972 q 225 1034 215 1024 q 249 1044 235 1044 q 278 1026 263 1044 q 309 983 294 1008 q 356 919 324 957 q 428 850 388 881 z "},"Ď":{"ha":879,"x_min":132,"x_max":886,"o":"m 643 1076 q 774 1187 718 1150 q 858 1224 829 1224 q 886 1196 886 1224 q 869 1162 886 1176 q 815 1125 853 1147 q 759 1089 778 1103 q 713 1050 740 1075 q 641 1000 657 1000 q 574 1042 625 1000 q 477 1141 524 1083 q 431 1233 431 1199 q 440 1260 431 1250 q 464 1271 450 1271 q 494 1253 478 1271 q 524 1209 510 1235 q 571 1145 539 1183 q 643 1076 603 1107 m 240 982 q 498 916 361 982 q 733 734 635 850 q 831 494 831 618 q 718 293 831 407 q 457 100 606 179 q 208 21 308 21 q 156 57 181 21 q 132 140 132 93 q 213 483 132 188 q 293 860 293 778 q 294 892 293 885 q 233 921 254 903 q 213 957 213 939 q 240 982 213 982 m 742 497 q 624 724 742 608 q 354 879 507 839 q 372 818 372 850 q 370 769 372 786 q 363 726 368 751 q 351 677 357 700 q 335 614 346 654 q 315 542 324 574 q 291 454 307 511 q 264 356 275 397 q 215 107 231 243 q 388 157 292 110 q 560 267 485 204 q 689 394 636 329 q 742 497 742 458 z "},"ď":{"ha":982,"x_min":65,"x_max":982,"o":"m 840 1021 q 856 1053 840 1040 q 899 1065 871 1065 q 954 1040 926 1065 q 982 975 982 1015 q 915 850 982 904 q 807 796 849 796 q 786 810 786 796 q 844 870 786 824 q 904 951 901 917 q 892 980 903 969 q 869 992 882 990 q 840 1021 840 997 m 660 1044 q 664 1077 660 1068 q 685 1086 668 1086 q 722 1056 701 1086 q 742 988 742 1026 q 710 776 742 949 q 605 314 679 604 q 508 24 531 24 q 478 41 493 24 q 463 81 463 58 q 483 190 463 104 q 219 24 346 24 q 110 74 156 24 q 65 187 65 125 q 97 336 65 249 q 177 504 128 424 q 297 641 226 585 q 439 697 368 697 q 578 556 546 697 q 660 1044 647 850 m 444 615 q 311 542 382 615 q 194 366 240 469 q 149 175 149 263 q 175 121 149 143 q 232 99 201 99 q 394 186 296 99 q 540 407 506 286 q 515 556 540 496 q 444 615 490 615 z "},"Đ":{"ha":838,"x_min":4,"x_max":838,"o":"m 300 860 q 301 892 300 885 q 240 921 261 903 q 219 957 219 939 q 247 982 219 982 q 505 916 368 982 q 740 734 642 850 q 838 494 838 618 q 725 293 838 407 q 464 100 613 179 q 215 21 315 21 q 163 57 188 21 q 139 137 139 93 q 190 376 139 181 q 61 363 67 363 q 4 396 4 363 q 47 428 4 418 q 211 451 108 443 q 300 860 300 775 m 289 388 l 279 386 l 271 356 q 222 107 238 243 q 395 157 299 110 q 567 267 492 204 q 696 394 643 329 q 749 497 749 458 q 631 724 749 608 q 361 879 514 839 q 379 799 379 850 q 300 461 379 749 q 383 468 358 468 q 431 457 407 468 q 456 428 456 446 q 417 405 456 413 q 334 392 378 397 q 289 388 290 388 z "},"đ":{"ha":706,"x_min":65,"x_max":950,"o":"m 508 24 q 478 41 493 24 q 463 78 463 58 q 482 186 463 99 q 353 69 422 115 q 219 24 283 24 q 110 74 156 24 q 65 187 65 125 q 97 336 65 249 q 177 504 128 424 q 297 641 226 585 q 439 697 368 697 q 578 556 546 697 q 633 825 613 700 q 550 818 574 818 q 503 838 526 818 q 479 874 479 857 q 646 903 479 903 q 658 1035 657 1001 q 664 1077 660 1068 q 685 1086 668 1086 q 722 1056 701 1086 q 742 997 742 1026 q 732 903 742 967 q 902 897 854 903 q 950 875 950 892 q 911 851 950 858 q 721 833 886 847 q 624 389 681 607 q 508 24 531 24 m 444 615 q 311 542 382 615 q 194 366 240 469 q 149 175 149 263 q 175 121 149 143 q 232 99 201 99 q 394 186 296 99 q 540 407 506 286 q 515 556 540 496 q 444 615 490 615 z "},"Ē":{"ha":839,"x_min":115,"x_max":850,"o":"m 300 929 q 594 974 338 974 q 850 947 850 974 q 801 920 850 928 q 679 907 751 913 q 574 899 589 900 q 531 897 560 899 q 441 886 503 894 q 372 876 379 878 l 372 863 q 310 544 372 768 l 353 543 q 503 550 425 543 q 628 557 582 557 q 675 544 675 557 q 303 472 675 472 q 289 474 293 472 q 201 144 201 199 q 215 112 201 124 q 247 100 228 100 q 615 156 424 100 q 690 174 681 174 q 707 149 707 174 q 553 64 707 111 q 271 17 400 17 q 161 49 207 17 q 115 126 115 82 q 159 330 115 190 q 247 626 203 469 q 290 890 290 783 q 295 923 290 918 q 300 929 300 928 m 545 1112 q 524 1109 545 1112 q 480 1105 503 1107 q 437 1103 457 1103 q 393 1122 417 1103 q 369 1158 369 1142 q 545 1188 369 1188 q 781 1183 721 1188 q 840 1160 840 1179 q 801 1136 840 1143 q 674 1123 761 1129 q 545 1112 588 1117 z "},"ē":{"ha":596,"x_min":21,"x_max":656,"o":"m 185 863 q 360 892 185 892 q 596 888 536 892 q 656 864 656 883 q 616 840 656 847 q 490 827 576 833 q 361 817 403 821 q 257 807 282 807 q 208 826 232 807 q 185 863 185 846 m 71 444 q 96 498 71 444 q 201 624 121 551 q 360 697 282 697 q 502 624 439 697 q 565 478 565 551 q 492 363 565 406 q 322 321 418 321 q 121 347 226 321 q 99 221 99 276 q 138 134 99 165 q 240 103 176 103 q 376 129 304 103 q 458 156 449 156 q 483 133 483 156 q 401 65 483 106 q 251 24 319 24 q 88 84 156 24 q 21 241 21 144 q 71 444 21 338 m 144 406 q 305 386 225 386 q 435 413 385 386 q 486 484 486 440 q 449 574 486 528 q 371 619 411 619 q 247 558 308 619 q 144 406 185 497 z "},"Ė":{"ha":839,"x_min":115,"x_max":850,"o":"m 300 929 q 594 974 338 974 q 850 947 850 974 q 801 920 850 928 q 679 907 751 913 q 574 899 589 900 q 531 897 560 899 q 441 886 503 894 q 372 876 379 878 l 372 863 q 310 544 372 768 l 353 543 q 503 550 425 543 q 628 557 582 557 q 675 544 675 557 q 303 472 675 472 q 289 474 293 472 q 201 144 201 199 q 215 112 201 124 q 247 100 228 100 q 615 156 424 100 q 690 174 681 174 q 707 149 707 174 q 553 64 707 111 q 271 17 400 17 q 161 49 207 17 q 115 126 115 82 q 159 330 115 190 q 247 626 203 469 q 290 890 290 783 q 295 923 290 918 q 300 929 300 928 m 650 1097 q 588 1130 624 1097 q 551 1187 551 1163 q 569 1235 551 1211 q 607 1258 588 1258 q 651 1203 626 1258 q 675 1117 675 1147 q 667 1104 675 1111 q 650 1097 658 1097 z "},"ė":{"ha":596,"x_min":21,"x_max":565,"o":"m 565 478 q 565 442 565 478 q 492 363 565 406 q 322 321 418 321 q 121 347 226 321 q 99 221 99 276 q 138 134 99 165 q 240 103 176 103 q 376 129 304 103 q 458 156 449 156 q 483 133 483 156 q 401 65 483 106 q 251 24 319 24 q 88 84 156 24 q 21 241 21 144 q 71 444 21 338 q 201 624 121 551 q 360 697 282 697 q 502 624 439 697 q 565 478 565 551 m 371 619 q 247 558 308 619 q 144 406 185 497 q 305 386 225 386 q 435 413 385 386 q 486 484 486 440 q 449 574 486 528 q 371 619 411 619 m 465 801 q 403 834 439 801 q 367 891 367 867 q 385 939 367 915 q 422 963 403 963 q 466 907 442 963 q 490 821 490 851 q 482 808 490 815 q 465 801 474 801 z "},"Ę":{"ha":839,"x_min":115,"x_max":850,"o":"m 688 174 l 693 174 q 718 147 718 171 q 684 94 718 124 q 615 33 650 65 q 581 -32 581 0 q 640 -64 581 -64 q 686 -53 661 -64 q 721 -42 711 -42 q 750 -69 750 -42 q 706 -115 750 -96 q 617 -133 661 -133 q 538 -106 574 -133 q 503 -38 503 -79 q 544 61 503 3 q 271 17 394 17 q 161 49 207 17 q 115 126 115 82 q 159 330 115 190 q 247 626 203 469 q 290 890 290 783 q 295 923 290 918 q 300 929 300 928 q 594 974 338 974 q 850 947 850 974 q 801 920 850 928 q 679 907 751 913 q 574 899 589 900 q 531 897 560 899 q 441 886 503 894 q 372 876 379 878 l 372 863 q 310 544 372 768 l 353 543 q 503 550 425 543 q 628 557 582 557 q 675 544 675 557 q 303 472 675 472 q 289 474 293 472 q 201 144 201 199 q 215 112 201 124 q 247 100 228 100 q 506 129 381 100 q 658 167 635 160 q 688 174 681 174 z "},"ę":{"ha":596,"x_min":21,"x_max":565,"o":"m 458 156 l 461 156 q 492 131 492 156 q 422 46 492 94 q 376 1 397 28 q 354 -50 354 -25 q 414 -82 354 -82 q 461 -71 436 -82 q 494 -60 486 -60 q 524 -87 524 -60 q 479 -133 524 -114 q 391 -151 435 -151 q 312 -124 347 -151 q 276 -60 276 -97 q 310 31 276 -22 q 251 24 278 24 q 88 84 156 24 q 21 241 21 144 q 71 444 21 338 q 201 624 121 551 q 360 697 282 697 q 502 624 439 697 q 565 478 565 551 q 492 363 565 406 q 322 321 418 321 q 121 347 226 321 q 99 221 99 276 q 138 134 99 165 q 240 103 176 103 q 376 129 304 103 q 458 156 449 156 m 371 619 q 247 558 308 619 q 144 406 185 497 q 305 386 225 386 q 435 413 385 386 q 486 484 486 440 q 449 574 486 528 q 371 619 411 619 z "},"Ě":{"ha":839,"x_min":115,"x_max":850,"o":"m 300 929 q 594 974 338 974 q 850 947 850 974 q 801 920 850 928 q 679 907 751 913 q 574 899 589 900 q 531 897 560 899 q 441 886 503 894 q 372 876 379 878 l 372 863 q 310 544 372 768 l 353 543 q 503 550 425 543 q 628 557 582 557 q 675 544 675 557 q 303 472 675 472 q 289 474 293 472 q 201 144 201 199 q 215 112 201 124 q 247 100 228 100 q 615 156 424 100 q 690 174 681 174 q 707 149 707 174 q 553 64 707 111 q 271 17 400 17 q 161 49 207 17 q 115 126 115 82 q 159 330 115 190 q 247 626 203 469 q 290 890 290 783 q 295 923 290 918 q 300 929 300 928 m 674 1119 q 660 1107 674 1119 q 629 1082 646 1094 q 599 1069 613 1069 q 535 1111 586 1069 q 438 1210 485 1153 q 392 1303 392 1268 q 401 1330 392 1319 q 425 1340 411 1340 q 455 1322 439 1340 q 485 1278 471 1304 q 532 1215 500 1253 q 604 1146 564 1176 q 735 1256 679 1219 q 819 1293 790 1293 q 847 1265 847 1293 q 831 1231 847 1246 q 776 1194 814 1217 q 720 1158 739 1172 q 674 1119 701 1144 z "},"ě":{"ha":596,"x_min":21,"x_max":663,"o":"m 419 850 q 550 960 494 924 q 634 997 606 997 q 663 969 663 997 q 646 935 663 950 q 592 899 629 921 q 535 863 554 876 q 489 824 517 849 q 417 774 433 774 q 351 815 401 774 q 253 915 300 857 q 207 1007 207 972 q 217 1034 207 1024 q 240 1044 226 1044 q 270 1026 254 1044 q 301 983 286 1008 q 347 919 315 957 q 419 850 379 881 m 71 444 q 96 498 71 444 q 201 624 121 551 q 360 697 282 697 q 502 624 439 697 q 565 478 565 551 q 492 363 565 406 q 322 321 418 321 q 121 347 226 321 q 99 221 99 276 q 138 134 99 165 q 240 103 176 103 q 376 129 304 103 q 458 156 449 156 q 483 133 483 156 q 401 65 483 106 q 251 24 319 24 q 88 84 156 24 q 21 241 21 144 q 71 444 21 338 m 144 406 q 305 386 225 386 q 435 413 385 386 q 486 484 486 440 q 449 574 486 528 q 371 619 411 619 q 247 558 308 619 q 144 406 185 497 z "},"Ğ":{"ha":858,"x_min":82,"x_max":935,"o":"m 908 1243 q 935 1217 935 1243 q 870 1137 935 1179 q 746 1094 806 1094 q 631 1138 686 1094 q 576 1226 576 1182 q 590 1268 576 1251 q 618 1285 604 1285 q 643 1266 632 1285 q 664 1225 654 1247 q 698 1184 674 1203 q 758 1165 722 1165 q 824 1185 794 1165 q 873 1224 853 1204 q 908 1243 893 1243 m 644 978 q 716 941 682 978 q 750 882 750 904 q 736 860 750 860 q 703 873 731 860 q 647 886 675 886 q 451 790 564 886 q 256 549 339 694 q 174 278 174 403 q 217 160 174 208 q 319 111 260 111 q 465 191 379 111 q 643 411 551 271 q 510 379 547 379 q 451 396 474 379 q 429 426 429 413 q 640 465 429 465 q 699 434 672 465 q 726 374 726 403 q 654 91 726 311 q 553 -129 582 -129 q 524 -89 524 -129 q 574 90 524 -53 q 646 308 624 233 q 485 99 576 176 q 311 22 393 22 q 156 101 229 22 q 82 271 82 179 q 170 572 82 406 q 393 858 258 739 q 644 978 528 978 z "},"ğ":{"ha":654,"x_min":-15,"x_max":711,"o":"m 685 947 q 711 921 711 947 q 647 841 711 883 q 522 799 582 799 q 408 842 463 799 q 353 931 353 886 q 367 972 353 956 q 394 989 381 989 q 419 970 408 989 q 440 929 431 951 q 474 888 450 907 q 535 869 499 869 q 600 889 571 869 q 649 928 629 908 q 685 947 669 947 m 586 401 q 526 258 586 342 q 414 -78 479 153 q 371 -207 396 -144 q 217 -333 321 -333 q 49 -284 114 -333 q -15 -181 -15 -235 q -7 -153 -15 -168 q 13 -137 1 -137 q 41 -158 24 -137 q 74 -201 58 -178 q 126 -245 90 -225 q 199 -265 163 -265 q 255 -250 235 -265 q 289 -212 275 -235 q 317 -148 303 -189 q 342 -71 332 -107 q 396 121 376 58 q 196 24 278 24 q 84 73 132 24 q 36 183 36 122 q 94 394 36 274 q 244 606 153 515 q 415 697 336 697 q 533 622 493 697 q 572 464 572 547 l 572 450 q 586 401 586 432 m 192 106 q 372 193 276 106 q 518 417 467 281 q 501 469 508 433 q 456 604 485 581 q 424 615 443 615 q 290 535 364 615 q 167 351 217 454 q 117 178 117 247 q 139 126 117 146 q 192 106 161 106 z "},"Ģ":{"ha":858,"x_min":82,"x_max":750,"o":"m 644 978 q 716 941 682 978 q 750 882 750 904 q 736 860 750 860 q 703 873 731 860 q 647 886 675 886 q 451 790 564 886 q 256 549 339 694 q 174 278 174 403 q 217 160 174 208 q 319 111 260 111 q 465 191 379 111 q 643 411 551 271 q 510 379 547 379 q 451 396 474 379 q 429 426 429 413 q 640 465 429 465 q 699 434 672 465 q 726 374 726 403 q 654 91 726 311 q 553 -129 582 -129 q 524 -89 524 -129 q 574 90 524 -53 q 646 308 624 233 q 485 99 576 176 q 311 22 393 22 q 156 101 229 22 q 82 271 82 179 q 170 572 82 406 q 393 858 258 739 q 644 978 528 978 m 211 -100 q 226 -68 211 -81 q 269 -56 242 -56 q 325 -81 297 -56 q 353 -146 353 -106 q 286 -271 353 -217 q 178 -325 219 -325 q 157 -311 157 -325 q 215 -251 157 -297 q 275 -169 272 -204 q 263 -141 274 -151 q 242 -128 253 -131 q 211 -100 211 -124 z "},"ģ":{"ha":654,"x_min":-15,"x_max":589,"o":"m 571 450 q 586 392 586 432 q 536 278 586 353 q 417 -67 474 147 q 372 -201 399 -136 q 217 -333 321 -333 q 49 -284 114 -333 q -15 -181 -15 -235 q -7 -153 -15 -168 q 13 -137 1 -137 q 41 -158 24 -137 q 74 -201 58 -178 q 126 -245 90 -225 q 201 -265 163 -265 q 262 -247 239 -265 q 303 -185 285 -228 q 333 -103 321 -142 q 364 8 344 -65 q 397 126 383 82 q 203 24 275 24 q 84 73 132 24 q 36 183 36 122 q 94 394 36 274 q 244 606 153 515 q 418 697 336 697 q 506 658 469 697 q 572 469 572 586 q 571 450 572 456 m 192 106 q 372 192 278 106 q 518 417 467 279 q 501 469 508 433 q 456 604 485 581 q 424 615 443 615 q 290 535 364 615 q 167 351 217 454 q 117 178 117 247 q 139 126 117 146 q 192 106 161 106 m 535 818 q 519 786 535 799 q 476 774 504 774 q 421 799 449 774 q 393 864 393 824 q 460 989 393 935 q 568 1043 526 1043 q 589 1029 589 1043 q 531 969 589 1015 q 471 888 474 922 q 483 859 472 869 q 506 847 493 849 q 535 818 535 842 z "},"Ī":{"ha":432,"x_min":107,"x_max":604,"o":"m 604 1160 q 565 1136 604 1143 q 438 1123 525 1129 q 308 1111 351 1117 q 206 1103 231 1103 q 157 1122 181 1103 q 133 1158 133 1142 q 309 1188 133 1188 q 544 1183 485 1188 q 604 1160 604 1179 m 154 31 q 124 51 140 31 q 107 100 107 71 q 198 489 107 129 q 289 938 289 849 q 292 970 289 963 q 313 978 296 978 q 349 947 329 978 q 369 882 369 917 q 267 411 369 789 q 239 306 256 372 q 211 200 222 240 q 188 117 200 160 q 154 31 163 31 z "},"ī":{"ha":314,"x_min":26,"x_max":497,"o":"m 497 864 q 458 840 497 847 q 331 827 418 833 q 203 817 244 821 q 99 807 124 807 q 50 826 74 807 q 26 863 26 846 q 202 892 26 892 q 438 888 378 892 q 497 864 497 883 m 154 495 q 167 552 154 495 q 195 653 181 608 q 226 697 210 697 q 257 678 242 697 q 272 642 272 660 q 131 101 272 549 q 76 24 104 24 q 53 37 63 24 q 43 65 43 50 q 61 145 43 81 q 103 296 79 210 q 154 495 128 382 z "},"Į":{"ha":432,"x_min":-49,"x_max":369,"o":"m 29 -122 q 89 -154 29 -154 q 136 -143 111 -154 q 169 -132 161 -132 q 199 -159 199 -132 q 154 -205 199 -186 q 66 -224 110 -224 q -13 -197 22 -224 q -49 -125 -49 -169 q 6 -13 -49 -81 q 110 76 60 54 q 107 92 107 88 q 198 489 107 129 q 289 938 289 849 q 292 970 289 963 q 313 978 296 978 q 349 947 329 978 q 369 882 369 917 q 273 431 369 789 q 168 50 176 72 q 137 6 160 28 q 90 -32 114 -15 q 48 -74 67 -49 q 29 -122 29 -99 z "},"į":{"ha":314,"x_min":-110,"x_max":272,"o":"m 108 -128 q 138 -155 138 -128 q 93 -201 138 -182 q 5 -219 49 -219 q -74 -192 -39 -219 q -110 -122 -110 -165 q -58 -11 -110 -78 q 44 79 -7 56 q 88 241 49 106 q 153 492 126 376 q 195 653 181 608 q 226 697 210 697 q 257 678 242 697 q 272 642 272 660 q 131 101 272 549 q 96 35 115 54 q 51 -9 85 18 q -8 -63 17 -36 q -32 -118 -32 -90 q 28 -150 -32 -150 q 74 -139 49 -150 q 108 -128 100 -128 z "},"İ":{"ha":432,"x_min":107,"x_max":439,"o":"m 414 1097 q 351 1130 388 1097 q 315 1187 315 1163 q 333 1235 315 1211 q 371 1258 351 1258 q 415 1203 390 1258 q 439 1117 439 1147 q 431 1104 439 1111 q 414 1097 422 1097 m 154 31 q 124 51 140 31 q 107 100 107 71 q 198 489 107 129 q 289 938 289 849 q 292 970 289 963 q 313 978 296 978 q 349 947 329 978 q 369 882 369 917 q 267 411 369 789 q 239 306 256 372 q 211 200 222 240 q 188 117 200 160 q 154 31 163 31 z "},"ı":{"ha":361,"x_min":44,"x_max":274,"o":"m 156 495 q 169 552 156 495 q 197 653 182 608 q 227 697 211 697 q 258 678 243 697 q 274 642 274 660 q 132 101 274 549 q 78 24 106 24 q 54 37 64 24 q 44 65 44 50 q 63 145 44 81 q 105 296 81 210 q 156 495 129 382 z "},"Ķ":{"ha":836,"x_min":94,"x_max":819,"o":"m 760 975 q 803 965 786 975 q 819 940 819 954 q 756 869 819 925 q 371 469 507 647 q 400 336 371 408 q 484 221 429 264 q 606 147 539 178 q 710 94 672 115 q 747 50 747 72 q 703 32 747 32 q 598 56 660 32 q 473 124 536 81 q 362 243 410 168 q 303 407 314 318 q 167 99 240 325 q 138 32 146 32 q 109 53 124 32 q 94 105 94 74 q 190 492 94 136 q 285 938 285 849 q 288 970 285 963 q 308 978 292 978 q 340 947 324 978 q 357 882 357 917 q 263 450 357 789 q 556 803 388 631 q 760 975 724 975 m 278 -100 q 293 -68 278 -81 q 336 -56 308 -56 q 392 -81 364 -56 q 419 -146 419 -106 q 353 -271 419 -217 q 244 -325 286 -325 q 224 -311 224 -325 q 281 -251 224 -297 q 342 -169 339 -204 q 330 -141 340 -151 q 308 -128 319 -131 q 278 -100 278 -124 z "},"ķ":{"ha":688,"x_min":72,"x_max":650,"o":"m 525 513 q 501 488 525 513 q 439 397 478 464 q 400 275 400 329 q 431 180 400 221 q 498 118 461 139 q 565 78 535 97 q 596 47 596 60 q 557 24 596 24 q 412 94 493 24 q 331 251 331 165 l 331 267 q 172 68 211 113 q 115 24 132 24 q 85 47 99 24 q 72 92 72 69 q 117 272 72 114 q 206 650 161 429 q 250 1049 250 871 q 256 1078 250 1071 q 278 1086 261 1086 q 312 1056 294 1086 q 329 993 329 1026 q 157 149 329 688 q 526 636 393 494 q 602 697 585 697 q 635 681 619 697 q 650 653 650 665 q 611 601 650 642 q 525 513 572 561 m 229 -90 q 244 -58 229 -71 q 288 -46 260 -46 q 343 -71 315 -46 q 371 -136 371 -96 q 303 -261 371 -207 q 196 -315 236 -315 q 175 -301 175 -315 q 233 -241 175 -287 q 293 -160 290 -194 q 281 -131 292 -142 q 258 -119 271 -121 q 229 -90 229 -114 z "},"Ĺ":{"ha":758,"x_min":101,"x_max":686,"o":"m 429 1083 q 425 1083 429 1083 q 413 1090 421 1083 q 404 1108 404 1097 q 407 1125 404 1118 q 419 1143 410 1132 q 436 1163 428 1154 q 481 1210 458 1188 q 520 1251 504 1233 q 545 1279 536 1269 q 567 1300 554 1289 q 603 1321 588 1321 q 631 1301 618 1321 q 644 1268 644 1281 q 643 1250 644 1256 q 637 1238 642 1244 q 627 1226 632 1231 q 612 1213 622 1221 q 594 1197 601 1204 q 549 1163 565 1175 q 520 1140 532 1150 q 502 1126 508 1131 q 487 1114 496 1121 q 474 1103 478 1107 q 463 1096 469 1100 q 453 1090 457 1092 q 444 1086 450 1089 q 429 1083 438 1083 m 285 940 q 289 972 285 964 q 309 981 293 981 q 345 951 325 981 q 365 889 365 922 q 277 492 365 794 q 189 161 189 190 q 202 119 189 132 q 235 107 215 107 q 597 164 407 107 q 670 182 660 182 q 683 180 681 182 q 686 168 686 178 q 538 76 686 126 q 258 25 389 25 q 148 58 194 25 q 101 140 101 90 q 193 518 101 190 q 285 940 285 846 z "},"ĺ":{"ha":325,"x_min":39,"x_max":521,"o":"m 286 1000 q 147 189 286 703 q 83 24 103 24 q 54 44 69 24 q 39 79 39 64 q 81 259 39 94 q 164 652 122 424 q 206 1051 206 881 q 208 1079 206 1072 q 224 1086 211 1086 q 262 1058 238 1086 q 286 1000 286 1029 m 306 1131 q 301 1131 306 1131 q 289 1138 297 1131 q 281 1155 281 1144 q 283 1172 281 1165 q 295 1190 286 1179 q 311 1210 304 1201 q 358 1258 335 1235 q 397 1299 381 1281 q 422 1326 413 1317 q 442 1347 431 1336 q 479 1368 464 1368 q 508 1348 494 1368 q 521 1315 521 1328 q 519 1297 521 1303 q 513 1285 518 1292 q 503 1273 508 1278 q 488 1260 499 1268 q 469 1244 478 1251 q 425 1210 442 1222 q 397 1188 408 1197 q 378 1173 385 1178 q 363 1161 372 1168 q 350 1151 354 1154 q 340 1143 346 1147 q 330 1138 333 1139 q 322 1133 326 1136 q 306 1131 314 1131 z "},"Ļ":{"ha":758,"x_min":101,"x_max":686,"o":"m 285 940 q 289 972 285 964 q 309 981 293 981 q 345 951 325 981 q 365 889 365 922 q 277 492 365 794 q 189 161 189 190 q 202 119 189 132 q 235 107 215 107 q 597 164 407 107 q 670 182 660 182 q 683 180 681 182 q 686 168 686 178 q 538 76 686 126 q 258 25 389 25 q 148 58 194 25 q 101 140 101 90 q 193 518 101 190 q 285 940 285 846 m 213 -325 q 192 -311 192 -325 q 249 -251 192 -297 q 310 -169 307 -204 q 298 -141 308 -151 q 275 -128 288 -131 q 246 -100 246 -124 q 261 -68 246 -81 q 304 -56 276 -56 q 360 -81 332 -56 q 388 -146 388 -106 q 321 -271 388 -217 q 213 -325 254 -325 z "},"ļ":{"ha":325,"x_min":-51,"x_max":286,"o":"m 286 1000 q 147 189 286 703 q 83 24 103 24 q 54 44 69 24 q 39 79 39 64 q 81 259 39 94 q 164 652 122 424 q 206 1051 206 881 q 208 1079 206 1072 q 224 1086 211 1086 q 262 1058 238 1086 q 286 1000 286 1029 m 146 -185 q 78 -310 146 -256 q -29 -364 11 -364 q -51 -350 -51 -364 q -23 -314 -51 -336 q 35 -263 6 -292 q 68 -208 65 -235 q 55 -180 65 -190 q 33 -167 44 -169 q 4 -139 4 -162 q 19 -107 4 -119 q 62 -94 35 -94 q 117 -119 89 -94 q 146 -185 146 -144 z "},"Ľ":{"ha":758,"x_min":101,"x_max":686,"o":"m 285 940 q 289 972 285 964 q 309 981 293 981 q 345 951 325 981 q 365 889 365 922 q 277 492 365 794 q 189 161 189 190 q 202 119 189 132 q 235 107 215 107 q 597 164 407 107 q 670 182 660 182 q 683 180 681 182 q 686 168 686 178 q 538 76 686 126 q 258 25 389 25 q 148 58 194 25 q 101 140 101 90 q 193 518 101 190 q 285 940 285 846 m 476 703 q 456 717 456 703 q 513 777 456 731 q 574 858 571 824 q 562 887 572 876 q 539 900 551 897 q 510 928 510 904 q 525 960 510 947 q 568 972 540 972 q 624 947 596 972 q 651 882 651 922 q 585 757 651 811 q 476 703 518 703 z "},"ľ":{"ha":582,"x_min":39,"x_max":542,"o":"m 286 1000 q 147 189 286 703 q 83 24 103 24 q 54 44 69 24 q 39 79 39 64 q 81 259 39 94 q 164 652 122 424 q 206 1051 206 881 q 208 1079 206 1072 q 224 1086 211 1086 q 262 1058 238 1086 q 286 1000 286 1029 m 542 975 q 475 850 542 904 q 367 796 408 796 q 346 810 346 796 q 403 870 346 824 q 464 951 461 917 q 452 980 463 969 q 431 992 442 990 q 400 1021 400 997 q 415 1053 400 1040 q 458 1065 431 1065 q 514 1040 486 1065 q 542 975 542 1015 z "},"Ł":{"ha":689,"x_min":32,"x_max":686,"o":"m 283 514 q 231 335 274 481 q 189 161 189 190 q 202 119 189 132 q 235 107 215 107 q 597 164 407 107 q 670 182 660 182 q 683 180 681 182 q 686 168 686 178 q 538 76 686 126 q 258 25 389 25 q 148 58 194 25 q 101 142 101 90 q 181 474 101 194 q 97 449 115 449 q 56 460 79 449 q 32 488 32 472 q 207 567 32 513 q 285 940 285 854 q 289 972 285 964 q 309 981 293 981 q 345 951 325 981 q 365 875 365 922 q 306 596 365 828 q 463 633 435 633 q 492 615 492 633 q 454 582 492 600 q 283 514 404 558 z "},"ł":{"ha":488,"x_min":54,"x_max":514,"o":"m 168 24 q 139 44 154 24 q 124 79 124 64 q 138 151 124 94 q 221 506 194 385 q 120 474 139 474 q 78 485 101 474 q 54 513 54 497 q 239 594 54 536 q 290 1051 290 861 q 293 1079 290 1072 q 309 1086 296 1086 q 347 1058 322 1086 q 371 1000 371 1029 q 331 622 371 839 q 488 658 461 658 q 514 640 514 658 q 476 607 514 625 q 321 544 439 589 l 317 543 q 233 193 279 363 q 168 24 188 24 z "},"Ń":{"ha":975,"x_min":89,"x_max":911,"o":"m 606 1083 q 601 1083 606 1083 q 589 1090 597 1083 q 581 1108 581 1097 q 583 1125 581 1118 q 595 1143 586 1132 q 611 1163 604 1154 q 658 1210 635 1188 q 697 1251 681 1233 q 722 1279 713 1269 q 742 1300 731 1289 q 779 1321 764 1321 q 808 1301 794 1321 q 821 1268 821 1281 q 819 1250 821 1256 q 813 1238 818 1244 q 803 1226 808 1231 q 788 1213 799 1221 q 769 1197 778 1204 q 725 1163 742 1175 q 697 1140 708 1150 q 678 1126 685 1131 q 663 1114 672 1121 q 650 1103 654 1107 q 640 1096 646 1100 q 630 1090 633 1092 q 622 1086 626 1089 q 606 1083 614 1083 m 854 983 q 891 957 871 983 q 911 906 911 931 q 878 571 911 776 q 790 196 846 365 q 681 26 735 26 q 617 81 644 26 q 477 404 589 136 q 335 758 365 672 q 219 319 275 535 q 153 65 164 103 q 133 26 142 26 q 106 47 122 26 q 89 100 89 68 q 185 494 89 132 q 281 943 281 856 q 284 976 281 968 q 300 983 288 983 q 334 959 313 983 q 365 893 356 935 q 491 568 375 851 q 682 122 607 285 q 776 463 742 274 q 817 743 811 651 q 822 909 822 835 q 854 983 822 983 z "},"ń":{"ha":724,"x_min":36,"x_max":660,"o":"m 536 697 q 616 644 572 697 q 660 532 660 590 q 615 306 660 444 q 535 96 569 168 q 472 24 501 24 q 450 47 450 24 q 462 108 450 71 q 497 208 474 144 q 579 526 579 426 q 560 581 579 558 q 528 604 542 604 q 504 599 515 604 q 480 583 493 594 q 455 560 467 572 q 426 526 443 549 q 396 487 408 504 q 362 438 383 469 q 326 386 340 407 q 243 258 271 299 q 175 151 215 217 q 86 24 96 24 q 53 44 71 24 q 36 78 36 64 q 47 128 36 92 q 106 332 93 275 q 147 633 147 510 q 172 699 147 699 q 211 673 192 699 q 231 604 231 647 q 201 429 231 561 q 135 199 171 297 q 385 586 296 475 q 536 697 474 697 m 451 791 q 448 790 451 791 q 443 788 446 789 q 433 788 440 788 q 418 794 426 788 q 410 812 410 801 q 413 829 410 822 q 424 847 415 836 q 442 867 433 858 q 487 915 464 892 q 526 956 510 938 q 551 983 542 974 q 572 1004 560 993 q 608 1025 593 1025 q 637 1005 624 1025 q 650 972 650 985 q 649 954 650 960 q 642 942 647 949 q 633 930 638 935 q 617 917 628 925 q 600 903 607 908 q 554 867 571 879 q 526 844 538 854 q 508 830 514 835 q 492 818 501 825 q 479 808 483 811 q 469 800 475 804 q 459 794 463 796 q 451 791 456 793 z "},"Ņ":{"ha":975,"x_min":89,"x_max":911,"o":"m 854 983 q 891 957 871 983 q 911 906 911 931 q 878 571 911 776 q 790 196 846 365 q 681 26 735 26 q 617 81 644 26 q 477 404 589 136 q 335 758 365 672 q 219 319 275 535 q 153 65 164 103 q 133 26 142 26 q 106 47 122 26 q 89 100 89 68 q 185 494 89 132 q 281 943 281 856 q 284 976 281 968 q 300 983 288 983 q 334 959 313 983 q 365 893 356 935 q 491 568 375 851 q 682 122 607 285 q 776 463 742 274 q 817 743 811 651 q 822 909 822 835 q 854 983 822 983 m 282 -325 q 261 -311 261 -325 q 319 -251 261 -297 q 379 -169 376 -204 q 367 -141 378 -151 q 344 -128 357 -131 q 315 -100 315 -124 q 331 -68 315 -81 q 374 -56 346 -56 q 429 -81 401 -56 q 457 -146 457 -106 q 390 -271 457 -217 q 282 -325 324 -325 z "},"ņ":{"ha":724,"x_min":36,"x_max":660,"o":"m 536 697 q 616 644 572 697 q 660 532 660 590 q 615 306 660 444 q 535 96 569 168 q 472 24 501 24 q 450 47 450 24 q 462 108 450 71 q 497 208 474 144 q 579 526 579 426 q 560 581 579 558 q 528 604 542 604 q 504 599 515 604 q 480 583 493 594 q 455 560 467 572 q 426 526 443 549 q 396 487 408 504 q 362 438 383 469 q 326 386 340 407 q 243 258 271 299 q 175 151 215 217 q 86 24 96 24 q 53 44 71 24 q 36 78 36 64 q 47 128 36 92 q 106 332 93 275 q 147 633 147 510 q 172 699 147 699 q 211 673 192 699 q 231 604 231 647 q 201 429 231 561 q 135 199 171 297 q 385 586 296 475 q 536 697 474 697 m 206 -90 q 221 -58 206 -71 q 264 -46 236 -46 q 319 -71 292 -46 q 347 -136 347 -96 q 281 -261 347 -207 q 172 -315 214 -315 q 151 -301 151 -315 q 209 -241 151 -287 q 269 -160 267 -194 q 258 -131 268 -142 q 236 -119 247 -121 q 206 -90 206 -114 z "},"Ň":{"ha":975,"x_min":89,"x_max":911,"o":"m 594 1146 q 725 1256 669 1219 q 809 1293 781 1293 q 838 1265 838 1293 q 821 1231 838 1246 q 767 1194 804 1217 q 710 1158 729 1172 q 664 1119 692 1144 q 592 1069 608 1069 q 526 1111 576 1069 q 428 1210 475 1153 q 382 1303 382 1268 q 392 1330 382 1319 q 415 1340 401 1340 q 445 1322 429 1340 q 476 1278 461 1304 q 522 1215 490 1253 q 594 1146 554 1176 m 854 983 q 891 957 871 983 q 911 906 911 931 q 878 571 911 776 q 790 196 846 365 q 681 26 735 26 q 617 81 644 26 q 477 404 589 136 q 335 758 365 672 q 219 319 275 535 q 153 65 164 103 q 133 26 142 26 q 106 47 122 26 q 89 100 89 68 q 185 494 89 132 q 281 943 281 856 q 284 976 281 968 q 300 983 288 983 q 334 959 313 983 q 365 893 356 935 q 491 568 375 851 q 682 122 607 285 q 776 463 742 274 q 817 743 811 651 q 822 909 822 835 q 854 983 822 983 z "},"ň":{"ha":724,"x_min":36,"x_max":667,"o":"m 536 697 q 616 644 572 697 q 660 532 660 590 q 615 306 660 444 q 535 96 569 168 q 472 24 501 24 q 450 47 450 24 q 462 108 450 71 q 497 208 474 144 q 579 526 579 426 q 560 581 579 558 q 528 604 542 604 q 504 599 515 604 q 480 583 493 594 q 455 560 467 572 q 426 526 443 549 q 396 487 408 504 q 362 438 383 469 q 326 386 340 407 q 243 258 271 299 q 175 151 215 217 q 86 24 96 24 q 53 44 71 24 q 36 78 36 64 q 47 128 36 92 q 106 332 93 275 q 147 633 147 510 q 172 699 147 699 q 211 673 192 699 q 231 604 231 647 q 201 429 231 561 q 135 199 171 297 q 385 586 296 475 q 536 697 474 697 m 493 824 q 479 811 493 824 q 449 786 465 799 q 419 774 432 774 q 355 815 406 774 q 258 915 304 857 q 211 1007 211 972 q 221 1034 211 1024 q 244 1044 231 1044 q 274 1026 258 1044 q 305 983 290 1008 q 351 919 319 957 q 424 850 383 881 q 554 960 499 924 q 638 997 610 997 q 667 969 667 997 q 650 935 667 950 q 596 899 633 921 q 540 863 558 876 q 493 824 521 849 z "},"Ō":{"ha":847,"x_min":92,"x_max":893,"o":"m 893 1160 q 853 1136 893 1143 q 727 1123 814 1129 q 597 1111 640 1117 q 494 1103 519 1103 q 446 1122 469 1103 q 422 1158 422 1142 q 598 1188 422 1188 q 833 1183 774 1188 q 893 1160 893 1179 m 487 192 q 535 236 487 192 q 652 407 583 281 q 721 644 721 533 q 671 828 721 756 q 568 900 621 900 q 449 845 515 900 q 322 707 383 790 q 218 512 261 624 q 175 306 175 400 q 218 158 175 211 q 315 104 261 104 q 487 192 390 104 m 303 26 q 154 112 217 26 q 92 286 92 197 q 167 617 92 451 q 352 883 243 782 q 563 983 461 983 q 738 882 664 983 q 811 652 811 781 q 737 377 811 524 q 542 128 663 231 q 303 26 421 26 z "},"ō":{"ha":628,"x_min":63,"x_max":660,"o":"m 358 167 q 390 200 358 167 q 455 317 422 233 q 488 464 488 400 q 466 573 488 528 q 408 635 444 618 q 219 486 293 613 q 146 222 146 360 q 217 93 146 118 q 358 167 294 101 m 108 452 q 131 505 108 452 q 234 627 154 557 q 395 697 314 697 q 523 628 476 697 q 569 468 569 560 q 463 164 569 304 q 215 24 356 24 q 104 86 146 24 q 63 248 63 149 q 108 452 63 347 m 660 864 q 620 840 660 847 q 494 827 581 833 q 364 817 407 821 q 261 807 286 807 q 213 826 236 807 q 189 863 189 846 q 365 892 189 892 q 600 888 540 892 q 660 864 660 883 z "},"Ő":{"ha":847,"x_min":92,"x_max":933,"o":"m 867 1346 q 869 1348 867 1346 q 874 1351 871 1350 q 890 1353 878 1353 q 918 1335 903 1353 q 933 1301 933 1317 q 928 1273 933 1285 q 916 1252 922 1261 q 893 1222 910 1243 q 867 1187 876 1200 q 843 1153 857 1174 q 822 1124 829 1133 q 806 1103 815 1115 q 767 1083 789 1083 q 744 1110 744 1083 q 756 1149 744 1129 q 776 1186 767 1169 q 792 1215 785 1203 q 806 1243 799 1228 q 819 1268 814 1258 q 831 1290 825 1278 q 842 1310 838 1303 q 851 1324 846 1317 q 859 1337 856 1332 q 867 1346 863 1342 m 669 1355 q 670 1357 669 1355 q 677 1360 672 1358 q 695 1361 682 1361 q 724 1344 708 1361 q 740 1308 740 1326 q 686 1199 740 1289 q 659 1153 664 1160 q 648 1135 654 1146 q 638 1118 642 1124 q 628 1106 633 1113 q 619 1095 622 1099 q 611 1089 615 1092 q 592 1082 601 1082 q 567 1113 567 1082 q 585 1170 567 1129 q 611 1230 604 1211 q 624 1263 618 1249 q 633 1286 629 1278 q 640 1306 636 1294 q 647 1323 644 1317 q 654 1336 650 1329 q 662 1347 658 1343 q 669 1355 665 1351 m 487 192 q 535 236 487 192 q 652 407 583 281 q 721 644 721 533 q 671 828 721 756 q 568 900 621 900 q 449 845 515 900 q 322 707 383 790 q 218 512 261 624 q 175 306 175 400 q 218 158 175 211 q 315 104 261 104 q 487 192 390 104 m 303 26 q 154 112 217 26 q 92 286 92 197 q 167 617 92 451 q 352 883 243 782 q 563 983 461 983 q 738 882 664 983 q 811 652 811 781 q 737 377 811 524 q 542 128 663 231 q 303 26 421 26 z "},"ő":{"ha":628,"x_min":63,"x_max":700,"o":"m 358 167 q 390 200 358 167 q 455 317 422 233 q 488 464 488 400 q 466 573 488 528 q 408 635 444 618 q 219 486 293 613 q 146 222 146 360 q 217 93 146 118 q 358 167 294 101 m 108 452 q 131 505 108 452 q 234 627 154 557 q 395 697 314 697 q 523 628 476 697 q 569 468 569 560 q 463 164 569 304 q 215 24 356 24 q 104 86 146 24 q 63 248 63 149 q 108 452 63 347 m 633 1050 q 635 1052 633 1050 q 641 1056 638 1054 q 657 1057 644 1057 q 685 1039 669 1057 q 700 1005 700 1021 q 694 977 700 989 q 683 956 689 965 q 660 926 676 947 q 633 891 643 904 q 610 858 624 878 q 589 828 596 838 q 572 808 582 819 q 533 788 556 788 q 511 814 511 788 q 522 853 511 833 q 542 890 533 874 q 558 919 551 907 q 573 947 565 932 q 586 972 581 963 q 598 994 592 982 q 608 1014 604 1007 q 617 1028 613 1021 q 626 1041 622 1036 q 633 1050 629 1046 m 435 1059 q 437 1061 435 1059 q 444 1064 439 1063 q 462 1065 449 1065 q 491 1048 475 1065 q 507 1012 507 1031 q 453 903 507 993 q 426 857 431 864 q 415 839 421 850 q 404 822 408 828 q 394 810 400 817 q 385 799 389 803 q 378 792 382 796 q 358 786 368 786 q 333 817 333 786 q 352 874 333 833 q 378 934 371 915 q 390 967 385 953 q 399 990 396 982 q 407 1010 403 999 q 414 1027 411 1021 q 421 1040 417 1033 q 428 1051 425 1047 q 435 1059 432 1056 z "},"Œ":{"ha":1299,"x_min":92,"x_max":1335,"o":"m 788 472 l 776 472 q 763 436 765 442 q 686 150 686 176 q 699 112 686 124 q 732 100 713 100 q 1100 156 908 100 q 1175 174 1165 174 q 1192 149 1192 174 q 1038 64 1192 111 q 756 17 885 17 q 646 49 692 17 q 600 126 600 82 q 607 192 600 150 q 303 26 456 26 q 154 112 217 26 q 92 286 92 197 q 167 617 92 451 q 352 883 243 782 q 558 983 461 983 q 682 940 626 983 q 772 825 738 897 q 775 890 775 869 q 779 918 775 911 q 783 926 783 925 q 788 933 783 928 q 803 943 793 939 q 1101 974 867 974 q 1335 947 1335 974 q 1285 920 1335 928 q 1164 907 1236 913 q 1059 899 1074 900 q 1016 897 1044 899 q 926 886 988 894 q 857 876 864 878 l 857 863 q 806 585 857 771 q 799 544 804 572 q 859 543 808 543 q 988 550 910 543 q 1113 557 1067 557 q 1160 544 1160 557 q 788 472 1160 472 m 315 104 q 487 192 390 104 q 652 407 583 281 q 721 644 721 533 q 671 828 721 756 q 568 900 621 900 q 449 845 515 900 q 322 707 383 790 q 218 512 261 624 q 175 306 175 400 q 218 158 175 211 q 315 104 261 104 z "},"œ":{"ha":1258,"x_min":63,"x_max":994,"o":"m 730 386 q 772 386 730 386 q 865 413 814 386 q 915 484 915 440 q 878 574 915 528 q 800 619 840 619 q 676 558 738 619 q 572 406 614 497 q 730 386 646 386 m 488 474 q 466 573 488 528 q 408 635 444 618 q 219 486 293 613 q 146 222 146 360 q 217 93 146 118 q 408 228 329 106 q 488 474 488 350 m 792 697 q 931 624 868 697 q 994 478 994 551 q 921 363 994 406 q 749 321 847 321 q 553 346 650 321 q 528 225 528 285 q 566 134 528 165 q 669 103 604 103 q 806 129 733 103 q 888 156 878 156 q 913 133 913 156 q 831 65 913 106 q 677 24 749 24 q 546 61 606 24 q 463 164 486 99 q 215 24 356 24 q 104 86 146 24 q 63 248 63 149 q 108 452 63 347 q 234 627 154 557 q 401 697 314 697 q 501 654 460 697 q 560 544 542 611 q 792 697 669 697 z "},"Ŕ":{"ha":799,"x_min":75,"x_max":778,"o":"m 699 1300 q 705 1306 699 1300 q 719 1316 711 1311 q 740 1321 728 1321 q 765 1301 751 1321 q 778 1268 778 1281 q 776 1250 778 1256 q 770 1238 775 1244 q 760 1226 765 1231 q 745 1213 756 1221 q 728 1197 735 1204 q 682 1163 699 1175 q 653 1140 665 1150 q 635 1126 642 1131 q 620 1114 629 1121 q 607 1103 611 1107 q 597 1096 603 1100 q 587 1090 590 1092 q 578 1086 583 1089 q 563 1083 571 1083 q 546 1090 554 1083 q 538 1108 538 1097 q 540 1125 538 1118 q 552 1143 543 1132 q 569 1163 561 1154 q 615 1210 592 1188 q 653 1251 638 1233 q 678 1279 669 1269 q 699 1300 688 1289 m 121 28 q 91 47 107 28 q 75 97 75 65 q 158 433 75 128 q 250 850 240 738 q 227 872 238 857 q 217 901 217 888 q 303 956 217 929 q 469 983 390 983 q 672 936 593 983 q 750 792 750 889 q 708 663 750 722 q 605 568 665 604 q 483 506 544 532 q 380 462 422 479 q 338 436 338 444 q 560 200 338 394 q 605 163 578 185 q 649 126 632 140 q 683 97 665 113 q 717 51 717 67 q 689 31 717 31 q 540 111 646 31 q 342 293 433 192 q 246 446 251 394 q 183 218 201 283 q 153 111 164 153 q 121 28 128 28 m 480 587 q 516 603 480 587 q 610 676 551 619 q 669 792 669 733 q 500 899 669 899 q 324 863 429 899 q 329 829 329 850 q 251 465 329 743 q 338 520 267 486 q 480 587 408 554 z "},"ŕ":{"ha":436,"x_min":50,"x_max":539,"o":"m 460 1004 q 466 1010 460 1004 q 481 1020 472 1015 q 501 1025 489 1025 q 526 1005 513 1025 q 539 972 539 985 q 538 954 539 960 q 531 942 536 949 q 522 930 526 935 q 506 917 517 925 q 489 903 496 908 q 443 867 460 879 q 415 844 426 854 q 397 830 403 835 q 381 818 390 825 q 368 808 372 811 q 358 800 364 804 q 348 794 351 796 q 339 792 344 793 q 324 788 332 788 q 307 794 315 788 q 299 812 299 801 q 301 829 299 822 q 313 847 304 836 q 331 867 322 858 q 376 915 353 892 q 415 956 399 938 q 440 983 431 974 q 460 1004 449 993 m 135 563 l 132 638 q 139 691 132 685 q 153 697 146 697 q 192 668 172 697 q 211 606 211 639 q 196 428 211 517 q 285 578 238 515 q 372 667 332 642 q 444 692 413 692 q 506 667 506 692 q 463 631 506 649 q 331 531 381 599 q 232 358 281 464 q 158 168 183 251 q 119 51 132 85 q 88 18 107 18 q 61 38 72 18 q 50 76 50 57 q 58 125 50 94 q 116 344 97 253 q 135 563 135 435 z "},"Ŗ":{"ha":799,"x_min":75,"x_max":750,"o":"m 121 28 q 91 47 107 28 q 75 97 75 65 q 158 433 75 128 q 250 850 240 738 q 227 872 238 857 q 217 901 217 888 q 303 956 217 929 q 469 983 390 983 q 672 936 593 983 q 750 792 750 889 q 708 663 750 722 q 605 568 665 604 q 483 506 544 532 q 380 462 422 479 q 338 436 338 444 q 560 200 338 394 q 605 163 578 185 q 649 126 632 140 q 683 97 665 113 q 717 51 717 67 q 689 31 717 31 q 540 111 646 31 q 342 293 433 192 q 246 446 251 394 q 183 218 201 283 q 153 111 164 153 q 121 28 128 28 m 480 587 q 516 603 480 587 q 610 676 551 619 q 669 792 669 733 q 500 899 669 899 q 324 863 429 899 q 329 829 329 850 q 251 465 329 743 q 338 520 267 486 q 480 587 408 554 m 285 -100 q 300 -68 285 -81 q 343 -56 315 -56 q 399 -81 371 -56 q 426 -146 426 -106 q 360 -271 426 -217 q 251 -325 293 -325 q 231 -311 231 -325 q 288 -251 231 -297 q 349 -169 346 -204 q 337 -141 347 -151 q 314 -128 326 -131 q 285 -100 285 -124 z "},"ŗ":{"ha":453,"x_min":-53,"x_max":525,"o":"m 154 563 l 151 638 q 158 691 151 685 q 172 697 165 697 q 211 668 192 697 q 231 606 231 639 q 215 428 231 517 q 304 578 257 515 q 392 667 351 642 q 464 692 432 692 q 525 667 525 692 q 482 631 525 649 q 350 531 400 599 q 251 358 300 464 q 177 168 203 251 q 139 51 151 85 q 107 18 126 18 q 81 38 92 18 q 69 76 69 57 q 78 125 69 94 q 135 344 117 253 q 154 563 154 435 m 3 -90 q 18 -58 3 -71 q 60 -46 33 -46 q 116 -71 88 -46 q 144 -136 144 -96 q 77 -261 144 -207 q -31 -315 10 -315 q -53 -301 -53 -315 q -24 -265 -53 -287 q 34 -215 4 -243 q 67 -160 64 -186 q 53 -131 64 -142 q 32 -119 43 -121 q 3 -90 3 -114 z "},"Ř":{"ha":799,"x_min":75,"x_max":794,"o":"m 551 1146 q 682 1256 626 1219 q 766 1293 738 1293 q 794 1265 794 1293 q 778 1231 794 1246 q 724 1194 761 1217 q 667 1158 686 1172 q 621 1119 649 1144 q 549 1069 565 1069 q 483 1111 533 1069 q 385 1210 432 1153 q 339 1303 339 1268 q 349 1330 339 1319 q 372 1340 358 1340 q 402 1322 386 1340 q 433 1278 418 1304 q 479 1215 447 1253 q 551 1146 511 1176 m 121 28 q 91 47 107 28 q 75 97 75 65 q 158 433 75 128 q 250 850 240 738 q 227 872 238 857 q 217 901 217 888 q 303 956 217 929 q 469 983 390 983 q 672 936 593 983 q 750 792 750 889 q 708 663 750 722 q 605 568 665 604 q 483 506 544 532 q 380 462 422 479 q 338 436 338 444 q 560 200 338 394 q 605 163 578 185 q 649 126 632 140 q 683 97 665 113 q 717 51 717 67 q 689 31 717 31 q 540 111 646 31 q 342 293 433 192 q 246 446 251 394 q 183 218 201 283 q 153 111 164 153 q 121 28 128 28 m 480 587 q 516 603 480 587 q 610 676 551 619 q 669 792 669 733 q 500 899 669 899 q 324 863 429 899 q 329 829 329 850 q 251 465 329 743 q 338 520 267 486 q 480 587 408 554 z "},"ř":{"ha":436,"x_min":50,"x_max":556,"o":"m 313 850 q 443 960 388 924 q 527 997 499 997 q 556 969 556 997 q 539 935 556 950 q 485 899 522 921 q 428 863 447 876 q 382 824 410 849 q 310 774 326 774 q 244 815 294 774 q 147 915 193 857 q 100 1007 100 972 q 110 1034 100 1024 q 133 1044 119 1044 q 163 1026 147 1044 q 194 983 179 1008 q 240 919 208 957 q 313 850 272 881 m 135 563 l 132 638 q 139 691 132 685 q 153 697 146 697 q 192 668 172 697 q 211 606 211 639 q 196 428 211 517 q 285 578 238 515 q 372 667 332 642 q 444 692 413 692 q 506 667 506 692 q 463 631 506 649 q 331 531 381 599 q 232 358 281 464 q 158 168 183 251 q 119 51 132 85 q 88 18 107 18 q 61 38 72 18 q 50 76 50 57 q 58 125 50 94 q 116 344 97 253 q 135 563 135 435 z "},"Ś":{"ha":721,"x_min":8,"x_max":765,"o":"m 550 1083 q 546 1083 550 1083 q 533 1090 542 1083 q 525 1108 525 1097 q 528 1125 525 1118 q 540 1143 531 1132 q 556 1163 549 1154 q 602 1210 579 1188 q 641 1251 625 1233 q 666 1279 657 1269 q 686 1300 675 1289 q 724 1321 708 1321 q 752 1301 739 1321 q 765 1268 765 1281 q 764 1250 765 1256 q 758 1238 763 1244 q 748 1226 753 1231 q 733 1213 743 1221 q 714 1197 722 1204 q 669 1163 686 1175 q 641 1140 653 1150 q 623 1126 629 1131 q 608 1114 617 1121 q 594 1103 599 1107 q 584 1096 590 1100 q 574 1090 578 1092 q 567 1086 571 1089 q 550 1083 558 1083 m 628 293 q 530 108 628 182 q 288 35 432 35 q 93 101 178 35 q 8 222 8 168 q 25 246 8 246 q 66 213 35 246 q 150 147 97 181 q 265 114 203 114 q 461 165 385 114 q 538 289 538 217 q 487 394 538 332 q 376 508 436 456 q 265 621 315 560 q 214 724 214 682 q 226 779 214 747 q 253 829 239 811 q 408 930 296 882 q 592 978 521 978 q 650 961 626 978 q 674 925 674 944 q 645 908 674 914 q 557 888 617 901 q 446 854 497 875 q 292 726 292 792 q 460 544 292 694 q 575 417 522 489 q 628 293 628 346 z "},"ś":{"ha":561,"x_min":6,"x_max":585,"o":"m 419 697 q 501 651 464 697 q 538 578 538 604 q 521 553 538 553 q 472 583 504 553 q 406 614 440 614 q 296 566 371 614 q 221 471 221 518 q 314 378 221 438 q 392 324 353 353 q 485 188 485 254 q 414 72 485 121 q 249 24 343 24 q 80 71 154 24 q 6 156 6 118 q 13 176 6 168 q 31 185 21 185 q 67 164 42 185 q 231 103 146 103 q 394 189 394 103 q 353 263 394 226 q 264 326 313 300 q 174 393 215 353 q 133 475 133 433 q 238 622 133 547 q 419 697 343 697 m 369 788 q 365 788 369 788 q 353 794 361 788 q 344 812 344 801 q 347 829 344 822 q 359 847 350 836 q 375 867 368 858 q 422 915 399 892 q 460 956 444 938 q 485 983 476 974 q 506 1004 494 993 q 543 1025 528 1025 q 572 1005 558 1025 q 585 972 585 985 q 583 954 585 960 q 577 942 582 949 q 567 930 572 935 q 552 917 563 925 q 533 903 542 908 q 489 867 506 879 q 460 844 472 854 q 442 830 449 835 q 427 818 436 825 q 414 808 418 811 q 403 800 410 804 q 394 794 397 796 q 386 792 390 793 q 369 788 378 788 z "},"Ş":{"ha":749,"x_min":36,"x_max":701,"o":"m 307 -50 q 391 -72 351 -50 q 431 -124 431 -94 q 386 -197 431 -167 q 188 -249 307 -249 q 146 -225 146 -249 q 185 -201 146 -208 q 273 -181 224 -194 q 340 -136 322 -167 q 274 -110 335 -122 q 214 -83 214 -99 q 235 -25 214 -68 q 263 39 256 18 q 103 116 171 56 q 36 222 36 176 q 53 246 36 246 q 94 213 63 246 q 178 147 125 181 q 293 114 231 114 q 489 165 413 114 q 565 289 565 217 q 515 394 565 332 q 403 508 464 456 q 292 621 343 560 q 242 724 242 682 q 254 779 242 747 q 281 829 267 811 q 436 930 324 882 q 619 978 549 978 q 678 961 654 978 q 701 925 701 944 q 673 908 701 914 q 585 888 644 901 q 474 854 525 875 q 319 726 319 792 q 488 544 319 694 q 603 417 550 489 q 656 293 656 346 q 563 113 656 186 q 335 35 471 40 q 296 -50 321 -7 l 307 -50 z "},"ş":{"ha":561,"x_min":6,"x_max":538,"o":"m 171 -92 q 255 -114 215 -92 q 294 -165 294 -136 q 250 -239 294 -208 q 51 -290 171 -290 q 10 -267 10 -290 q 49 -243 10 -250 q 137 -222 88 -236 q 204 -178 186 -208 q 138 -152 199 -164 q 78 -125 78 -140 q 101 -59 78 -110 q 131 11 125 -8 q 147 39 138 31 q 47 94 89 58 q 6 156 6 129 q 13 176 6 168 q 31 185 21 185 q 67 164 42 185 q 231 103 146 103 q 394 189 394 103 q 353 263 394 226 q 264 326 313 300 q 174 393 215 353 q 133 475 133 433 q 238 622 133 547 q 419 697 343 697 q 501 651 464 697 q 538 578 538 604 q 521 553 538 553 q 472 583 504 553 q 406 614 440 614 q 296 566 371 614 q 221 471 221 518 q 314 378 221 438 q 392 324 353 353 q 485 188 485 254 q 414 72 485 121 q 239 24 343 24 q 200 26 225 24 q 201 14 201 22 q 160 -92 201 -19 l 171 -92 z "},"Š":{"ha":721,"x_min":8,"x_max":782,"o":"m 539 1146 q 669 1256 614 1219 q 753 1293 725 1293 q 782 1265 782 1293 q 765 1231 782 1246 q 711 1194 749 1217 q 655 1158 674 1172 q 608 1119 636 1144 q 537 1069 553 1069 q 470 1111 521 1069 q 373 1210 419 1153 q 326 1303 326 1268 q 336 1330 326 1319 q 360 1340 346 1340 q 390 1322 374 1340 q 420 1278 406 1304 q 467 1215 435 1253 q 539 1146 499 1176 m 628 293 q 530 108 628 182 q 288 35 432 35 q 93 101 178 35 q 8 222 8 168 q 25 246 8 246 q 66 213 35 246 q 150 147 97 181 q 265 114 203 114 q 461 165 385 114 q 538 289 538 217 q 487 394 538 332 q 376 508 436 456 q 265 621 315 560 q 214 724 214 682 q 226 779 214 747 q 253 829 239 811 q 408 930 296 882 q 592 978 521 978 q 650 961 626 978 q 674 925 674 944 q 645 908 674 914 q 557 888 617 901 q 446 854 497 875 q 292 726 292 792 q 460 544 292 694 q 575 417 522 489 q 628 293 628 346 z "},"š":{"ha":561,"x_min":6,"x_max":601,"o":"m 419 697 q 501 651 464 697 q 538 578 538 604 q 521 553 538 553 q 472 583 504 553 q 406 614 440 614 q 296 566 371 614 q 221 471 221 518 q 314 378 221 438 q 392 324 353 353 q 485 188 485 254 q 414 72 485 121 q 249 24 343 24 q 80 71 154 24 q 6 156 6 118 q 13 176 6 168 q 31 185 21 185 q 67 164 42 185 q 231 103 146 103 q 394 189 394 103 q 353 263 394 226 q 264 326 313 300 q 174 393 215 353 q 133 475 133 433 q 238 622 133 547 q 419 697 343 697 m 358 850 q 489 960 433 924 q 573 997 544 997 q 601 969 601 997 q 585 935 601 950 q 531 899 568 921 q 474 863 493 876 q 428 824 456 849 q 356 774 372 774 q 290 815 340 774 q 192 915 239 857 q 146 1007 146 972 q 156 1034 146 1024 q 179 1044 165 1044 q 209 1026 193 1044 q 240 983 225 1008 q 286 919 254 957 q 358 850 318 881 z "},"Ţ":{"ha":736,"x_min":93,"x_max":825,"o":"m 424 900 l 147 888 q 112 911 131 888 q 93 951 93 935 q 151 971 93 968 q 542 974 210 974 q 737 949 649 974 q 825 900 825 925 q 783 886 825 886 q 662 892 742 886 q 501 900 582 899 q 506 872 506 885 q 400 400 506 785 q 363 256 385 346 q 300 36 315 61 q 261 -50 292 4 l 272 -50 q 356 -72 317 -50 q 396 -124 396 -94 q 350 -197 396 -167 q 153 -249 272 -249 q 111 -225 111 -249 q 150 -201 111 -208 q 238 -181 189 -194 q 306 -136 288 -167 q 240 -110 300 -122 q 179 -83 179 -99 q 203 -17 179 -68 q 233 51 226 33 q 243 75 239 69 q 242 88 242 79 q 328 459 242 129 q 424 900 414 789 z "},"ţ":{"ha":506,"x_min":-29,"x_max":503,"o":"m 274 590 q 199 326 243 468 q 156 146 156 183 q 193 108 156 108 q 329 137 260 108 q 404 165 399 165 q 424 149 424 165 q 347 69 424 115 q 201 24 269 24 q 161 28 181 24 q 163 14 163 24 q 121 -92 163 -19 l 132 -92 q 216 -114 176 -92 q 256 -165 256 -136 q 211 -239 256 -208 q 13 -290 132 -290 q -29 -267 -29 -290 q 10 -243 -29 -250 q 98 -222 49 -236 q 165 -178 147 -208 q 99 -152 160 -164 q 39 -125 39 -140 q 63 -59 39 -110 q 94 15 86 -8 q 119 44 101 39 q 71 128 71 75 q 122 341 71 178 q 190 574 172 504 q 98 560 114 560 q 65 575 82 560 q 49 603 49 590 q 211 660 49 628 q 235 854 235 775 q 256 896 235 896 q 295 873 272 896 q 318 822 318 850 q 293 672 318 793 q 431 686 390 686 q 503 657 503 686 q 469 631 503 640 l 274 590 z "},"Ť":{"ha":736,"x_min":93,"x_max":825,"o":"m 424 900 l 147 888 q 112 911 131 888 q 93 951 93 935 q 151 971 93 968 q 542 974 210 974 q 737 949 649 974 q 825 900 825 925 q 783 886 825 886 q 662 892 742 886 q 501 900 582 899 q 506 872 506 885 q 400 400 506 785 q 358 236 385 346 q 317 77 332 126 q 290 28 301 28 q 258 47 275 28 q 242 97 242 65 q 328 459 242 129 q 424 900 414 789 m 557 1032 q 543 1019 557 1032 q 513 994 529 1007 q 483 982 496 982 q 419 1024 469 982 q 322 1123 368 1065 q 275 1215 275 1181 q 285 1242 275 1232 q 308 1253 294 1253 q 338 1235 322 1253 q 369 1191 354 1217 q 415 1127 383 1165 q 488 1058 447 1089 q 618 1169 563 1132 q 702 1206 674 1206 q 731 1178 731 1206 q 714 1144 731 1158 q 660 1107 697 1129 q 603 1071 622 1085 q 557 1032 585 1057 z "},"ť":{"ha":533,"x_min":65,"x_max":593,"o":"m 451 972 q 467 1003 451 992 q 510 1015 482 1015 q 565 991 538 1015 q 593 925 593 967 q 526 800 593 854 q 418 746 460 746 q 397 760 397 746 q 455 820 397 774 q 515 901 513 867 q 503 931 514 921 q 481 944 493 942 q 451 972 451 949 m 290 590 q 216 326 260 468 q 172 146 172 183 q 210 108 172 108 q 346 137 276 108 q 421 165 415 165 q 440 149 440 165 q 363 69 440 115 q 223 24 286 24 q 124 53 160 24 q 88 122 88 83 q 106 228 88 161 q 156 399 124 294 q 207 574 189 504 q 115 560 131 560 q 82 575 99 560 q 65 603 65 590 q 228 660 65 628 q 251 854 251 775 q 272 896 251 896 q 312 873 289 896 q 335 822 335 850 q 310 672 335 793 q 447 686 407 686 q 519 657 519 686 q 486 631 519 640 l 290 590 z "},"Ū":{"ha":832,"x_min":138,"x_max":775,"o":"m 753 1160 q 713 1136 753 1143 q 587 1123 674 1129 q 458 1111 500 1117 q 354 1103 379 1103 q 306 1122 329 1103 q 282 1158 282 1142 q 458 1188 282 1188 q 693 1183 633 1188 q 753 1160 753 1179 m 257 938 q 260 970 257 963 q 279 978 264 978 q 317 947 294 978 q 340 868 340 917 q 280 589 340 819 q 219 278 219 358 q 254 144 219 197 q 342 92 289 92 q 455 147 396 92 q 566 291 514 201 q 653 510 618 381 q 688 775 688 640 q 683 881 688 822 q 678 955 678 940 q 682 974 678 969 q 697 978 686 978 q 749 944 722 978 q 775 844 775 910 q 642 247 775 481 q 336 14 508 14 q 194 89 250 14 q 138 265 138 164 q 197 602 138 367 q 257 938 257 838 z "},"ū":{"ha":665,"x_min":26,"x_max":660,"o":"m 189 863 q 365 892 189 892 q 600 888 540 892 q 660 864 660 883 q 620 840 660 847 q 494 827 581 833 q 364 817 407 821 q 261 807 286 807 q 213 826 236 807 q 189 863 189 846 m 546 675 q 567 697 546 697 q 601 672 583 697 q 619 618 619 646 q 468 82 619 610 q 429 24 451 24 q 399 69 399 24 q 444 260 399 115 q 315 87 388 150 q 178 24 242 24 q 70 73 114 24 q 26 181 26 122 q 65 392 26 267 q 151 608 103 518 q 226 697 199 697 q 253 681 242 697 q 265 649 265 665 q 227 557 265 633 q 150 372 189 481 q 111 174 111 264 q 131 120 111 142 q 181 99 151 99 q 331 206 250 99 q 467 439 413 314 q 544 667 521 561 q 546 675 546 672 z "},"Ů":{"ha":832,"x_min":138,"x_max":775,"o":"m 543 1121 q 552 1121 543 1121 q 577 1142 561 1121 q 593 1190 593 1163 q 583 1233 593 1218 q 554 1249 572 1249 q 520 1227 536 1249 q 504 1178 504 1206 q 515 1136 504 1151 q 543 1121 525 1121 m 540 1061 q 517 1061 540 1061 q 467 1092 494 1061 q 440 1172 440 1124 q 476 1265 440 1219 q 558 1311 513 1311 q 631 1280 604 1311 q 658 1201 658 1249 q 622 1107 658 1153 q 540 1061 586 1061 m 257 938 q 260 970 257 963 q 279 978 264 978 q 317 947 294 978 q 340 868 340 917 q 280 589 340 819 q 219 278 219 358 q 254 144 219 197 q 342 92 289 92 q 455 147 396 92 q 566 291 514 201 q 653 510 618 381 q 688 775 688 640 q 683 881 688 822 q 678 955 678 940 q 682 974 678 969 q 697 978 686 978 q 749 944 722 978 q 775 844 775 910 q 642 247 775 481 q 336 14 508 14 q 194 89 250 14 q 138 265 138 164 q 197 602 138 367 q 257 938 257 838 z "},"ů":{"ha":665,"x_min":26,"x_max":619,"o":"m 546 675 q 567 697 546 697 q 601 672 583 697 q 619 618 619 646 q 468 82 619 610 q 429 24 451 24 q 399 69 399 24 q 444 260 399 115 q 315 87 388 150 q 178 24 242 24 q 70 73 114 24 q 26 181 26 122 q 65 392 26 267 q 151 608 103 518 q 226 697 199 697 q 253 681 242 697 q 265 649 265 665 q 227 557 265 633 q 150 372 189 481 q 111 174 111 264 q 131 120 111 142 q 181 99 151 99 q 331 206 250 99 q 467 439 413 314 q 544 667 521 561 q 546 675 546 672 m 565 905 q 565 881 565 905 q 529 811 565 857 q 447 765 493 765 q 374 797 401 765 q 347 876 347 828 q 383 969 347 924 q 465 1015 419 1015 q 538 984 511 1015 q 565 905 565 953 m 500 894 q 500 908 500 894 q 490 938 500 922 q 461 953 479 953 q 427 931 443 953 q 411 883 411 910 q 422 840 411 856 q 450 825 432 825 q 484 846 468 825 q 500 894 500 867 z "},"Ű":{"ha":832,"x_min":138,"x_max":793,"o":"m 726 1346 q 728 1348 726 1346 q 734 1351 731 1350 q 750 1353 738 1353 q 778 1335 763 1353 q 793 1301 793 1317 q 788 1273 793 1285 q 776 1252 782 1261 q 753 1222 769 1243 q 726 1187 736 1200 q 703 1153 717 1174 q 682 1124 689 1133 q 665 1103 675 1115 q 626 1083 649 1083 q 604 1110 604 1083 q 615 1149 604 1129 q 635 1186 626 1169 q 651 1215 644 1203 q 666 1243 658 1228 q 679 1268 674 1258 q 691 1290 685 1278 q 701 1310 697 1303 q 710 1324 706 1317 q 719 1337 715 1332 q 726 1346 722 1342 m 528 1355 q 530 1357 528 1355 q 537 1360 532 1358 q 555 1361 542 1361 q 584 1344 568 1361 q 600 1308 600 1326 q 546 1199 600 1289 q 519 1153 524 1160 q 508 1135 514 1146 q 497 1118 501 1124 q 488 1106 493 1113 q 478 1095 482 1099 q 469 1089 475 1092 q 451 1082 461 1082 q 426 1113 426 1082 q 445 1170 426 1129 q 471 1230 464 1211 q 483 1263 478 1249 q 492 1286 489 1278 q 500 1306 496 1294 q 507 1323 504 1317 q 514 1336 510 1329 q 522 1347 518 1343 q 528 1355 525 1351 m 257 938 q 260 970 257 963 q 279 978 264 978 q 317 947 294 978 q 340 868 340 917 q 280 589 340 819 q 219 278 219 358 q 254 144 219 197 q 342 92 289 92 q 455 147 396 92 q 566 291 514 201 q 653 510 618 381 q 688 775 688 640 q 683 881 688 822 q 678 955 678 940 q 682 974 678 969 q 697 978 686 978 q 749 944 722 978 q 775 844 775 910 q 642 247 775 481 q 336 14 508 14 q 194 89 250 14 q 138 265 138 164 q 197 602 138 367 q 257 938 257 838 z "},"ű":{"ha":665,"x_min":26,"x_max":700,"o":"m 633 1050 q 635 1052 633 1050 q 641 1056 638 1054 q 657 1057 644 1057 q 685 1039 669 1057 q 700 1005 700 1021 q 694 977 700 989 q 683 956 689 965 q 660 926 676 947 q 633 891 643 904 q 610 858 624 878 q 589 828 596 838 q 572 808 582 819 q 533 788 556 788 q 511 814 511 788 q 522 853 511 833 q 542 890 533 874 q 558 919 551 907 q 573 947 565 932 q 586 972 581 963 q 598 994 592 982 q 608 1014 604 1007 q 617 1028 613 1021 q 626 1041 622 1036 q 633 1050 629 1046 m 546 675 q 567 697 546 697 q 601 672 583 697 q 619 618 619 646 q 468 82 619 610 q 429 24 451 24 q 399 69 399 24 q 444 260 399 115 q 315 87 388 150 q 178 24 242 24 q 70 73 114 24 q 26 181 26 122 q 65 392 26 267 q 151 608 103 518 q 226 697 199 697 q 253 681 242 697 q 265 649 265 665 q 227 557 265 633 q 150 372 189 481 q 111 174 111 264 q 131 120 111 142 q 181 99 151 99 q 331 206 250 99 q 467 439 413 314 q 544 667 521 561 q 546 675 546 672 m 358 786 q 333 817 333 786 q 352 874 333 833 q 378 934 371 915 q 390 967 385 953 q 399 990 396 982 q 407 1010 403 999 q 414 1027 411 1021 q 421 1040 417 1033 q 428 1051 425 1047 q 436 1058 432 1056 q 458 1065 442 1065 q 491 1048 475 1065 q 507 1012 507 1031 q 453 903 507 993 q 426 857 431 864 q 415 839 421 850 q 404 822 408 828 q 394 810 400 817 q 385 799 389 803 q 378 792 382 796 q 358 786 368 786 z "},"Ų":{"ha":832,"x_min":138,"x_max":775,"o":"m 268 -129 q 328 -161 268 -161 q 375 -150 350 -161 q 408 -139 400 -139 q 438 -166 438 -139 q 393 -212 438 -193 q 305 -231 349 -231 q 226 -203 261 -231 q 190 -140 190 -176 q 217 -60 190 -104 q 282 22 244 -15 q 177 113 217 44 q 138 274 138 182 q 197 602 138 367 q 257 938 257 838 q 260 970 257 963 q 279 978 264 978 q 317 947 294 978 q 340 868 340 917 q 280 589 340 819 q 219 278 219 358 q 254 144 219 197 q 342 92 289 92 q 455 147 396 92 q 566 291 514 201 q 653 510 618 381 q 688 775 688 640 q 683 881 688 822 q 678 955 678 940 q 682 974 678 969 q 697 978 686 978 q 749 944 722 978 q 775 844 775 910 q 663 288 775 514 q 396 22 551 63 q 349 -22 383 6 q 292 -75 315 -49 q 268 -129 268 -101 z "},"ų":{"ha":665,"x_min":26,"x_max":619,"o":"m 546 675 q 567 697 546 697 q 601 672 583 697 q 619 618 619 646 q 468 82 619 610 q 447 38 460 51 q 377 -42 443 13 q 311 -135 311 -96 q 371 -167 311 -167 q 417 -156 392 -167 q 451 -144 442 -144 q 481 -172 481 -144 q 436 -217 481 -199 q 348 -236 392 -236 q 269 -209 304 -236 q 233 -137 233 -182 q 291 -22 233 -92 q 399 67 349 49 l 399 69 q 444 260 399 115 q 315 87 388 150 q 178 24 242 24 q 70 73 114 24 q 26 181 26 122 q 65 392 26 267 q 151 608 103 518 q 226 697 199 697 q 253 681 242 697 q 265 649 265 665 q 227 557 265 633 q 150 372 189 481 q 111 174 111 264 q 131 120 111 142 q 181 99 151 99 q 331 206 250 99 q 467 439 413 314 q 544 667 521 561 q 546 675 546 672 z "},"Ÿ":{"ha":808,"x_min":140,"x_max":843,"o":"m 553 1197 q 553 1208 553 1197 q 568 1238 553 1219 q 602 1257 583 1257 q 645 1210 621 1257 q 669 1144 669 1164 q 647 1110 669 1110 q 586 1142 619 1110 q 553 1197 553 1175 m 364 1197 q 364 1208 364 1197 q 379 1238 364 1219 q 413 1257 394 1257 q 456 1210 432 1257 q 481 1144 481 1164 q 458 1110 481 1110 q 397 1142 431 1110 q 364 1197 364 1175 m 474 494 q 566 614 497 494 q 704 853 635 733 q 801 972 774 972 q 843 936 843 972 q 801 847 843 917 q 682 649 760 776 q 561 442 604 522 q 474 279 518 361 q 410 160 431 197 q 367 81 390 122 q 301 10 324 10 q 285 34 285 10 q 297 92 285 58 q 339 186 308 125 q 456 417 385 281 q 299 513 374 432 q 183 701 225 594 q 140 903 140 808 q 150 953 140 933 q 176 972 160 972 q 205 928 192 972 q 240 804 218 885 q 299 651 263 724 q 386 537 336 579 q 474 494 436 494 z "},"Ź":{"ha":842,"x_min":90,"x_max":781,"o":"m 556 1083 q 551 1083 556 1083 q 539 1090 547 1083 q 531 1108 531 1097 q 533 1125 531 1118 q 545 1143 536 1132 q 561 1163 554 1154 q 608 1210 585 1188 q 647 1251 631 1233 q 672 1279 663 1269 q 692 1300 681 1289 q 729 1321 714 1321 q 758 1301 744 1321 q 771 1268 771 1281 q 769 1250 771 1256 q 763 1238 768 1244 q 753 1226 758 1231 q 738 1213 749 1221 q 719 1197 728 1204 q 675 1163 692 1175 q 647 1140 658 1150 q 628 1126 635 1131 q 613 1114 622 1121 q 600 1103 604 1107 q 590 1096 596 1100 q 580 1090 583 1092 q 572 1086 576 1089 q 556 1083 564 1083 m 781 807 q 686 645 781 749 q 479 450 592 542 q 178 154 178 201 q 190 129 178 142 q 224 117 201 117 q 483 142 301 117 q 691 168 664 168 q 723 163 718 168 q 728 143 728 158 q 656 97 728 122 q 460 54 583 72 q 213 36 336 36 q 128 71 167 36 q 90 148 90 106 q 153 263 90 190 q 305 411 215 335 q 483 564 394 488 q 697 825 697 746 q 625 867 697 849 q 480 885 553 885 q 336 874 407 885 q 244 863 265 863 q 200 884 224 863 q 175 926 176 906 q 272 963 172 946 q 386 971 322 971 q 742 879 644 971 q 781 807 781 842 z "},"ź":{"ha":581,"x_min":7,"x_max":608,"o":"m 75 654 q 307 697 75 697 q 472 667 425 697 q 511 626 494 653 q 528 578 528 600 q 461 458 528 529 q 315 331 394 388 q 103 139 103 175 q 154 106 103 106 q 365 119 242 106 q 508 133 489 133 q 537 130 528 133 q 546 114 546 126 q 398 51 546 79 q 151 24 250 24 q 51 61 94 24 q 7 135 7 99 q 76 238 7 171 q 229 366 146 304 q 382 490 313 428 q 451 581 451 553 q 290 614 451 614 q 206 606 260 614 q 133 599 153 599 q 94 617 114 599 q 75 654 75 636 m 393 788 q 389 788 393 788 q 376 794 385 788 q 368 812 368 801 q 371 829 368 822 q 383 847 374 836 q 400 867 392 858 q 445 915 422 892 q 484 956 468 938 q 509 983 500 974 q 531 1004 518 993 q 567 1025 551 1025 q 595 1005 582 1025 q 608 972 608 985 q 607 954 608 960 q 601 942 606 949 q 591 930 596 935 q 576 917 586 925 q 558 903 565 908 q 513 867 529 879 q 484 844 496 854 q 466 830 472 835 q 451 818 460 825 q 438 808 442 811 q 427 800 433 804 q 417 794 421 796 q 408 792 414 793 q 393 788 401 788 z "},"Ż":{"ha":842,"x_min":90,"x_max":781,"o":"m 590 1097 q 528 1130 564 1097 q 492 1187 492 1163 q 510 1235 492 1211 q 547 1258 528 1258 q 591 1203 567 1258 q 615 1117 615 1147 q 607 1104 615 1111 q 590 1097 599 1097 m 781 807 q 686 645 781 749 q 479 450 592 542 q 178 154 178 201 q 190 129 178 142 q 224 117 201 117 q 483 142 301 117 q 691 168 664 168 q 723 163 718 168 q 728 143 728 158 q 656 97 728 122 q 460 54 583 72 q 213 36 336 36 q 128 71 167 36 q 90 148 90 106 q 153 263 90 190 q 305 411 215 335 q 483 564 394 488 q 697 825 697 746 q 625 867 697 849 q 480 885 553 885 q 336 874 407 885 q 244 863 265 863 q 200 884 224 863 q 175 926 176 906 q 272 963 172 946 q 386 971 322 971 q 742 879 644 971 q 781 807 781 842 z "},"ż":{"ha":581,"x_min":7,"x_max":546,"o":"m 428 801 q 365 834 401 801 q 329 891 329 867 q 347 939 329 915 q 385 963 365 963 q 428 907 404 963 q 453 821 453 851 q 444 808 453 815 q 428 801 436 801 m 75 654 q 307 697 75 697 q 472 667 425 697 q 511 626 494 653 q 528 578 528 600 q 461 458 528 529 q 315 331 394 388 q 103 139 103 175 q 154 106 103 106 q 365 119 242 106 q 508 133 489 133 q 537 130 528 133 q 546 114 546 126 q 398 51 546 79 q 151 24 250 24 q 51 61 94 24 q 7 135 7 99 q 76 238 7 171 q 229 366 146 304 q 382 490 313 428 q 451 581 451 553 q 290 614 451 614 q 206 606 260 614 q 133 599 153 599 q 94 617 114 599 q 75 654 75 636 z "},"Ž":{"ha":842,"x_min":90,"x_max":788,"o":"m 544 1146 q 675 1256 619 1219 q 759 1293 731 1293 q 788 1265 788 1293 q 771 1231 788 1246 q 717 1194 754 1217 q 660 1158 679 1172 q 614 1119 642 1144 q 542 1069 558 1069 q 476 1111 526 1069 q 378 1210 425 1153 q 332 1303 332 1268 q 342 1330 332 1319 q 365 1340 351 1340 q 395 1322 379 1340 q 426 1278 411 1304 q 472 1215 440 1253 q 544 1146 504 1176 m 781 807 q 686 645 781 749 q 479 450 592 542 q 178 154 178 201 q 190 129 178 142 q 224 117 201 117 q 483 142 301 117 q 691 168 664 168 q 723 163 718 168 q 728 143 728 158 q 656 97 728 122 q 460 54 583 72 q 213 36 336 36 q 128 71 167 36 q 90 148 90 106 q 153 263 90 190 q 305 411 215 335 q 483 564 394 488 q 697 825 697 746 q 625 867 697 849 q 480 885 553 885 q 336 874 407 885 q 244 863 265 863 q 200 884 224 863 q 175 926 176 906 q 272 963 172 946 q 386 971 322 971 q 742 879 644 971 q 781 807 781 842 z "},"ž":{"ha":581,"x_min":7,"x_max":625,"o":"m 75 654 q 307 697 75 697 q 472 667 425 697 q 511 626 494 653 q 528 578 528 600 q 461 458 528 529 q 315 331 394 388 q 103 139 103 175 q 154 106 103 106 q 365 119 242 106 q 508 133 489 133 q 537 130 528 133 q 546 114 546 126 q 398 51 546 79 q 151 24 250 24 q 51 61 94 24 q 7 135 7 99 q 76 238 7 171 q 229 366 146 304 q 382 490 313 428 q 451 581 451 553 q 290 614 451 614 q 206 606 260 614 q 133 599 153 599 q 94 617 114 599 q 75 654 75 636 m 382 850 q 513 960 457 924 q 597 997 568 997 q 625 969 625 997 q 608 935 625 950 q 554 899 592 921 q 498 863 517 876 q 451 824 479 849 q 380 774 396 774 q 313 815 364 774 q 216 915 263 857 q 169 1007 169 972 q 179 1034 169 1024 q 203 1044 189 1044 q 233 1026 217 1044 q 263 983 249 1008 q 310 919 278 957 q 382 850 342 881 z "},"ƒ":{"ha":546,"x_min":-42,"x_max":664,"o":"m 249 550 q 160 536 176 536 q 127 552 144 536 q 110 582 110 568 q 268 639 110 613 q 344 918 311 826 q 416 1047 378 1010 q 521 1083 454 1083 q 626 1033 588 1083 q 664 926 664 983 q 643 868 664 868 q 613 902 625 868 q 579 969 600 936 q 517 1003 558 1003 q 444 932 476 1003 q 365 653 411 861 q 451 658 435 658 q 524 629 524 658 q 492 602 524 613 q 349 571 460 592 l 347 571 q 223 61 265 189 q 146 -102 181 -67 q 50 -137 111 -137 q -12 -107 18 -137 q -42 -43 -42 -76 q -22 -10 -42 -10 q 8 -35 -18 -10 q 56 -61 33 -61 q 90 -46 78 -61 q 124 32 103 -31 q 244 532 158 138 l 249 550 z "},"Ș":{"ha":749,"x_min":36,"x_max":701,"o":"m 656 293 q 558 108 656 182 q 315 35 460 35 q 121 101 206 35 q 36 222 36 168 q 53 246 36 246 q 94 213 63 246 q 178 147 125 181 q 293 114 231 114 q 489 165 413 114 q 565 289 565 217 q 515 394 565 332 q 403 508 464 456 q 292 621 343 560 q 242 724 242 682 q 254 779 242 747 q 281 829 267 811 q 436 930 324 882 q 619 978 549 978 q 678 961 654 978 q 701 925 701 944 q 673 908 701 914 q 585 888 644 901 q 474 854 525 875 q 319 726 319 792 q 488 544 319 694 q 603 417 550 489 q 656 293 656 346 m 222 -325 q 201 -311 201 -325 q 259 -251 201 -297 q 319 -169 317 -204 q 308 -141 318 -151 q 286 -128 297 -131 q 256 -100 256 -124 q 271 -68 256 -81 q 314 -56 286 -56 q 369 -81 342 -56 q 397 -146 397 -106 q 331 -271 397 -217 q 222 -325 264 -325 z "},"ș":{"ha":561,"x_min":6,"x_max":538,"o":"m 271 -136 q 203 -261 271 -207 q 96 -315 136 -315 q 74 -301 74 -315 q 102 -265 74 -287 q 160 -215 131 -243 q 193 -160 190 -186 q 180 -131 190 -142 q 158 -119 169 -121 q 129 -90 129 -114 q 144 -58 129 -71 q 187 -46 160 -46 q 242 -71 214 -46 q 271 -136 271 -96 m 419 697 q 501 651 464 697 q 538 578 538 604 q 521 553 538 553 q 472 583 504 553 q 406 614 440 614 q 296 566 371 614 q 221 471 221 518 q 314 378 221 438 q 392 324 353 353 q 485 188 485 254 q 414 72 485 121 q 249 24 343 24 q 80 71 154 24 q 6 156 6 118 q 13 176 6 168 q 31 185 21 185 q 67 164 42 185 q 231 103 146 103 q 394 189 394 103 q 353 263 394 226 q 264 326 313 300 q 174 393 215 353 q 133 475 133 433 q 238 622 133 547 q 419 697 343 697 z "},"Ț":{"ha":736,"x_min":93,"x_max":825,"o":"m 424 900 l 147 888 q 112 911 131 888 q 93 951 93 935 q 151 971 93 968 q 542 974 210 974 q 737 949 649 974 q 825 900 825 925 q 783 886 825 886 q 662 892 742 886 q 501 900 582 899 q 506 872 506 885 q 400 400 506 785 q 358 236 385 346 q 317 77 332 126 q 290 28 301 28 q 258 47 275 28 q 242 97 242 65 q 328 459 242 129 q 424 900 414 789 m 174 -100 q 189 -68 174 -81 q 232 -56 204 -56 q 288 -81 260 -56 q 315 -146 315 -106 q 249 -271 315 -217 q 140 -325 182 -325 q 119 -311 119 -325 q 177 -251 119 -297 q 238 -169 235 -204 q 226 -141 236 -151 q 203 -128 215 -131 q 174 -100 174 -124 z "},"ț":{"ha":506,"x_min":46,"x_max":519,"o":"m 290 590 q 216 326 260 468 q 172 146 172 183 q 210 108 172 108 q 346 137 276 108 q 421 165 415 165 q 440 149 440 165 q 363 69 440 115 q 223 24 286 24 q 124 53 160 24 q 88 122 88 83 q 106 228 88 161 q 156 399 124 294 q 207 574 189 504 q 115 560 131 560 q 82 575 99 560 q 65 603 65 590 q 228 660 65 628 q 251 854 251 775 q 272 896 251 896 q 312 873 289 896 q 335 822 335 850 q 310 672 335 793 q 447 686 407 686 q 519 657 519 686 q 486 631 519 640 l 290 590 m 101 -90 q 117 -58 101 -71 q 159 -46 132 -46 q 215 -71 186 -46 q 243 -136 243 -96 q 176 -261 243 -207 q 68 -315 108 -315 q 46 -301 46 -315 q 74 -265 46 -287 q 133 -215 103 -243 q 165 -160 163 -186 q 152 -131 163 -142 q 131 -119 142 -121 q 101 -90 101 -114 z "},"ʼ":{"ha":343,"x_min":56,"x_max":286,"o":"m 286 1029 q 206 865 286 943 q 81 786 125 786 q 56 801 56 786 q 90 844 56 817 q 160 912 125 872 q 196 987 196 951 q 183 1037 196 1022 q 156 1056 171 1051 q 114 1096 114 1068 q 132 1131 114 1117 q 184 1146 150 1146 q 252 1114 218 1146 q 286 1029 286 1082 z "},"ˆ":{"ha":450,"x_min":14,"x_max":436,"o":"m 240 1004 q 245 1006 240 1004 q 258 1008 251 1008 q 271 1007 265 1008 q 281 1004 276 1006 q 292 999 286 1003 q 301 992 297 994 q 310 983 304 990 q 319 972 317 976 q 343 944 339 949 q 436 809 436 833 q 410 785 436 785 q 363 804 383 785 q 306 875 342 824 q 263 936 269 926 q 177 880 224 915 q 99 822 131 844 q 52 799 68 799 q 25 807 36 799 q 14 836 14 815 q 35 878 14 857 q 90 919 56 900 q 146 953 124 939 q 182 975 168 967 q 212 992 196 983 q 240 1004 228 1000 z "},"ˇ":{"ha":483,"x_min":14,"x_max":469,"o":"m 226 850 q 357 960 301 924 q 441 997 413 997 q 469 969 469 997 q 453 935 469 950 q 399 899 436 921 q 342 863 361 876 q 296 824 324 849 q 224 774 240 774 q 158 815 208 774 q 60 915 107 857 q 14 1007 14 972 q 24 1034 14 1024 q 47 1044 33 1044 q 77 1026 61 1044 q 108 983 93 1008 q 154 919 122 957 q 226 850 186 881 z "},"ˉ":{"ha":497,"x_min":14,"x_max":483,"o":"m 483 869 q 444 843 483 853 q 329 822 406 833 q 210 803 253 811 q 83 785 104 785 q 38 802 63 785 q 14 835 14 819 q 163 874 14 857 q 429 890 313 890 q 483 869 483 890 z "},"˘":{"ha":386,"x_min":14,"x_max":372,"o":"m 101 929 q 106 918 101 929 q 135 888 111 907 q 196 869 160 869 q 261 889 232 869 q 310 928 290 908 q 346 947 331 947 q 372 921 372 947 q 308 841 372 883 q 183 799 243 799 q 69 842 124 799 q 14 931 14 886 q 28 972 14 956 q 56 989 42 989 q 81 970 69 989 q 101 929 92 951 z "},"˙":{"ha":151,"x_min":14,"x_max":138,"o":"m 113 935 q 50 967 86 935 q 14 1024 14 1000 q 32 1072 14 1049 q 69 1096 50 1096 q 113 1040 89 1096 q 138 954 138 985 q 129 942 138 949 q 113 935 121 935 z "},"˚":{"ha":246,"x_min":14,"x_max":232,"o":"m 117 825 q 126 825 117 825 q 151 846 135 825 q 167 894 167 867 q 156 938 167 922 q 128 953 146 953 q 94 931 110 953 q 78 883 78 910 q 88 840 78 856 q 117 825 99 825 m 114 765 q 91 765 114 765 q 41 797 68 765 q 14 876 14 828 q 50 969 14 924 q 132 1015 86 1015 q 205 984 178 1015 q 232 905 232 953 q 196 811 232 857 q 114 765 160 765 z "},"˛":{"ha":275,"x_min":14,"x_max":261,"o":"m 199 43 q 229 18 229 43 q 195 -36 229 -7 q 126 -98 161 -65 q 92 -162 92 -131 q 151 -194 92 -194 q 197 -183 172 -194 q 232 -172 222 -172 q 261 -199 261 -172 q 217 -245 261 -226 q 128 -264 172 -264 q 49 -237 85 -264 q 14 -172 14 -210 q 83 -35 14 -112 q 199 43 153 43 z "},"˜":{"ha":449,"x_min":14,"x_max":435,"o":"m 14 821 q 65 915 14 865 q 165 965 115 965 q 250 914 218 965 q 308 860 281 863 q 342 875 326 861 q 365 906 357 889 q 411 947 388 947 q 435 909 435 947 q 397 828 435 871 q 306 786 358 786 q 161 896 239 786 q 110 856 132 882 q 73 810 88 829 q 44 792 58 792 q 14 821 14 792 z "},"˝":{"ha":394,"x_min":14,"x_max":381,"o":"m 314 1183 q 316 1185 314 1183 q 322 1189 318 1188 q 338 1190 325 1190 q 365 1172 350 1190 q 381 1138 381 1154 q 375 1110 381 1122 q 363 1090 369 1099 q 340 1059 357 1081 q 314 1024 324 1038 q 290 991 304 1011 q 269 962 276 971 q 253 942 263 953 q 214 921 236 921 q 192 947 192 921 q 203 987 192 967 q 223 1024 214 1007 q 239 1053 232 1040 q 253 1081 246 1065 q 267 1106 261 1096 q 278 1128 272 1115 q 289 1147 285 1140 q 298 1162 293 1154 q 306 1174 303 1169 q 314 1183 310 1179 m 116 1192 q 118 1194 116 1192 q 124 1197 119 1196 q 142 1199 129 1199 q 172 1181 156 1199 q 188 1145 188 1164 q 133 1036 188 1126 q 106 990 111 997 q 95 972 101 983 q 85 956 89 961 q 75 943 81 950 q 66 933 69 936 q 58 925 63 929 q 39 919 49 919 q 14 950 14 919 q 33 1008 14 967 q 58 1067 51 1049 q 71 1101 65 1086 q 80 1124 76 1115 q 88 1143 83 1132 q 94 1160 92 1154 q 101 1174 97 1167 q 109 1185 106 1181 q 116 1192 113 1189 z "},"π":{"ha":881,"x_min":93,"x_max":908,"o":"m 708 604 q 699 579 708 604 q 677 483 690 554 q 664 329 664 411 q 676 197 664 247 q 703 126 688 147 q 740 57 740 72 q 727 33 740 42 q 696 24 714 24 q 615 103 647 24 q 583 291 583 182 q 602 505 583 400 q 647 676 621 610 q 361 661 500 669 q 365 583 365 636 q 301 206 365 388 q 174 24 236 24 q 144 34 157 24 q 131 60 131 44 q 154 110 131 75 q 206 192 178 144 q 257 349 233 240 q 281 596 281 457 l 281 657 q 147 650 165 650 q 110 667 128 650 q 93 696 93 683 q 299 747 93 731 q 628 763 504 763 q 777 762 753 763 q 838 757 801 761 q 908 718 908 749 q 874 690 908 699 q 736 679 839 682 l 728 679 q 708 604 725 654 z "},"ँ":{"ha":0,"x_min":-272,"x_max":292,"o":"m -197 1206 l -201 1183 q -137 1083 -201 1124 q 2 1043 -72 1043 q 119 1055 76 1043 q 181 1084 161 1067 q 213 1122 200 1101 q 228 1161 225 1143 q 249 1201 235 1201 q 277 1188 263 1201 q 292 1157 292 1175 q 276 1111 292 1139 q 231 1054 261 1083 q 144 1006 201 1025 q 13 986 86 986 q -185 1044 -97 986 q -272 1201 -272 1101 q -253 1236 -272 1236 q -215 1226 -233 1236 q -197 1206 -197 1217 m 0 1253 q 42 1211 17 1253 q 67 1147 67 1169 q 51 1125 67 1125 q 3 1160 36 1125 q -29 1212 -29 1196 q -19 1240 -29 1228 q 0 1253 -10 1253 z "},"ं":{"ha":0,"x_min":-57,"x_max":42,"o":"m -25 1131 q 17 1089 -8 1131 q 42 1022 42 1047 q 24 997 42 997 q -25 1031 7 997 q -57 1085 -57 1065 q -47 1117 -57 1104 q -25 1131 -37 1131 z "},"ः":{"ha":0,"x_min":69,"x_max":236,"o":"m 99 244 q 138 209 115 244 q 160 150 160 174 q 140 126 160 126 q 97 157 125 126 q 69 203 69 188 q 79 232 69 219 q 99 244 89 244 m 175 617 q 214 581 192 617 q 236 522 236 546 q 217 499 236 499 q 174 529 201 499 q 146 576 146 560 q 156 604 146 592 q 175 617 165 617 z "}}}
